<svg width="20" height="19" viewBox="0 0 20 19" fill="none" xmlns="http://www.w3.org/2000/svg">
<g clip-path="url(#clip0_541_8693)">
<path d="M6.62666 10.3795L6.34729 14.1973C6.74699 14.1973 6.9201 14.0305 7.1277 13.8302L9.00166 12.0901L12.8847 14.853C13.5968 15.2386 14.0986 15.0356 14.2907 14.2165L16.8395 2.6125L16.8402 2.61182C17.0661 1.58899 16.4595 1.18902 15.7657 1.43994L0.783807 7.01288C-0.238675 7.39849 -0.223193 7.9523 0.609992 8.20322L4.44025 9.36074L13.3372 3.9519C13.7559 3.68251 14.1366 3.83156 13.8234 4.10095L6.62666 10.3795Z" fill="white"/>
<g clip-path="url(#clip1_541_8693)">
<path d="M17.8938 16.3027C18.3937 15.7816 18.6663 15.1373 18.6663 14.466C18.6663 13.6261 18.2392 12.8654 17.5553 12.3257C17.5397 14.2501 15.677 15.8153 13.389 15.8153H11.8406C12.4395 16.775 13.6564 17.4345 15.0555 17.4345H18.3885C18.5014 17.4345 18.602 17.3687 18.6454 17.2675C18.6888 17.1663 18.6645 17.0499 18.5847 16.974L17.8938 16.3027Z" fill="white"/>
<path d="M13.389 8.83838C11.2179 8.83838 9.27828 10.3058 9.27828 12.3068C9.27828 12.9563 9.48996 13.5746 9.8714 14.1065L9.51145 14.4562C9.28866 14.6727 9.21107 15.0091 9.34019 15.3068C9.46456 15.5952 9.74842 15.7753 10.056 15.7753H13.389C15.5601 15.7753 17.4998 14.3079 17.4998 12.3068C17.4998 10.3058 15.5601 8.83838 13.389 8.83838Z" fill="#AAA1DF" stroke="white"/>
<path d="M15.0556 11.4976H11.7226C11.5698 11.4976 11.4448 11.619 11.4448 11.7674C11.4448 11.9158 11.5698 12.0373 11.7226 12.0373H15.0556C15.2083 12.0373 15.3333 11.9158 15.3333 11.7674C15.3333 11.619 15.2083 11.4976 15.0556 11.4976Z" fill="white"/>
<path d="M13.9446 12.5771H11.7226C11.5698 12.5771 11.4448 12.6986 11.4448 12.847C11.4448 12.9954 11.5698 13.1169 11.7226 13.1169H13.9446C14.0973 13.1169 14.2223 12.9954 14.2223 12.847C14.2223 12.6986 14.0973 12.5771 13.9446 12.5771Z" fill="white"/>
</g>
</g>
<defs>
<clipPath id="clip0_541_8693">
<rect width="20" height="19" fill="white"/>
</clipPath>
<clipPath id="clip1_541_8693">
<rect width="10.6667" height="9.5" fill="white" transform="translate(8 8.20459)"/>
</clipPath>
</defs>
</svg>
