<svg width="59" height="59" viewBox="0 0 59 59" fill="none" xmlns="http://www.w3.org/2000/svg">
<circle cx="29.5" cy="29.5" r="29" stroke="url(#paint0_linear_634_2597)"/>
<g clip-path="url(#clip0_634_2597)">
<path d="M19.0071 28.4688C19.2478 29.1352 19.2478 29.8648 19.0071 30.5312H22.2813V28.4688H19.0071Z" fill="#515BE0"/>
<path d="M39.993 30.5312C39.7523 29.8648 39.7523 29.1352 39.993 28.4688H36.7188V30.5312H39.993Z" fill="#515BE0"/>
<path d="M29.8258 21.3015L30.5312 21.5381V19.0068C29.8648 19.2475 29.1352 19.2475 28.4688 19.0068V21.5381L29.1742 21.3025C29.3857 21.232 29.6141 21.2317 29.8258 21.3015Z" fill="#515BE0"/>
<path d="M29.5 37.7502C29.3399 37.7502 29.1818 37.7129 29.0385 37.6414C28.9426 37.5933 28.7409 37.4904 28.4688 37.3408V39.9932C29.1352 39.7525 29.8648 39.7525 30.5312 39.9932V37.3408C30.2591 37.4904 30.0574 37.5933 29.961 37.6414C29.818 37.7132 29.6601 37.7505 29.5 37.7502Z" fill="#515BE0"/>
<path d="M24.2351 18.726C24.0604 18.3768 23.7031 18.1562 23.3126 18.1562H22.1008C22.3415 18.8227 22.3415 19.5523 22.1008 20.2188H22.6754L24.0674 23.0031L26.0453 22.3462L24.2351 18.726Z" fill="#515BE0"/>
<path d="M36.3248 20.2188H36.8993C36.6586 19.5523 36.6586 18.8227 36.8993 18.1562H35.6875C35.2971 18.1562 34.9398 18.3768 34.7651 18.726L32.9548 22.3462L34.9322 23.0031L36.3248 20.2188Z" fill="#515BE0"/>
<path d="M34.7301 40.1957C34.8867 40.5872 35.2659 40.8437 35.6876 40.8437H36.8993C36.6586 40.1773 36.6586 39.4477 36.8993 38.7812H36.3837L34.6357 34.4067C34.113 34.9083 33.5566 35.3735 32.9702 35.7988L34.7301 40.1957Z" fill="#515BE0"/>
<path d="M22.6145 38.7812H22.0989C22.3396 39.4477 22.3396 40.1773 22.0989 40.8437H23.3127C23.7344 40.8437 24.1135 40.5872 24.2701 40.1957L26.0295 35.7963C25.4434 35.3718 24.887 34.9075 24.3646 34.4067L22.6145 38.7812Z" fill="#515BE0"/>
<path d="M32.5938 16.0938C32.5938 17.8023 31.2085 19.1875 29.5 19.1875C27.7915 19.1875 26.4062 17.8023 26.4062 16.0938C26.4062 14.3852 27.7915 13 29.5 13C31.2085 13 32.5938 14.3852 32.5938 16.0938Z" fill="#57A4FF"/>
<path d="M22.2812 19.1875C22.2812 20.896 20.896 22.2812 19.1875 22.2812C17.479 22.2812 16.0938 20.896 16.0938 19.1875C16.0938 17.479 17.479 16.0938 19.1875 16.0938C20.896 16.0938 22.2812 17.479 22.2812 19.1875Z" fill="#9BC9FF"/>
<path d="M32.5938 42.9062C32.5938 44.6148 31.2085 46 29.5 46C27.7915 46 26.4062 44.6148 26.4062 42.9062C26.4062 41.1977 27.7915 39.8125 29.5 39.8125C31.2085 39.8125 32.5938 41.1977 32.5938 42.9062Z" fill="#57A4FF"/>
<path d="M46 29.5C46 31.2085 44.6148 32.5938 42.9062 32.5938C41.1977 32.5938 39.8125 31.2085 39.8125 29.5C39.8125 27.7915 41.1977 26.4062 42.9062 26.4062C44.6148 26.4062 46 27.7915 46 29.5Z" fill="#57A4FF"/>
<path d="M19.1875 29.5C19.1875 31.2085 17.8023 32.5938 16.0938 32.5938C14.3852 32.5938 13 31.2085 13 29.5C13 27.7915 14.3852 26.4062 16.0938 26.4062C17.8023 26.4062 19.1875 27.7915 19.1875 29.5Z" fill="#57A4FF"/>
<path d="M42.9062 19.1875C42.9062 20.896 41.521 22.2812 39.8125 22.2812C38.104 22.2812 36.7188 20.896 36.7188 19.1875C36.7188 17.479 38.104 16.0938 39.8125 16.0938C41.521 16.0938 42.9062 17.479 42.9062 19.1875Z" fill="#9BC9FF"/>
<path d="M42.9062 39.8125C42.9062 41.521 41.521 42.9062 39.8125 42.9062C38.104 42.9062 36.7188 41.521 36.7188 39.8125C36.7188 38.104 38.104 36.7188 39.8125 36.7188C41.521 36.7188 42.9062 38.104 42.9062 39.8125Z" fill="#9BC9FF"/>
<path d="M22.2812 39.8125C22.2812 41.521 20.896 42.9062 19.1875 42.9062C17.479 42.9062 16.0938 41.521 16.0938 39.8125C16.0938 38.104 17.479 36.7188 19.1875 36.7188C20.896 36.7188 22.2812 38.104 22.2812 39.8125Z" fill="#9BC9FF"/>
<path d="M36.0133 23.3642L29.8258 21.3017C29.6143 21.2315 29.3857 21.2315 29.1742 21.3017L22.9867 23.3642C22.565 23.5047 22.2807 23.8995 22.2813 24.3438V30.5313C22.2813 34.1578 28.3471 37.2954 29.0385 37.6413C29.3288 37.7866 29.6707 37.7866 29.961 37.6413C30.6529 37.2954 36.7188 34.1578 36.7188 30.5313V24.3438C36.7193 23.8995 36.435 23.5047 36.0133 23.3642Z" fill="#57A4FF"/>
</g>
<defs>
<linearGradient id="paint0_linear_634_2597" x1="29.5" y1="0" x2="29.5" y2="59" gradientUnits="userSpaceOnUse">
<stop/>
<stop offset="1" stop-color="white" stop-opacity="0.3"/>
</linearGradient>
<clipPath id="clip0_634_2597">
<rect width="33" height="33" fill="white" transform="translate(13 13)"/>
</clipPath>
</defs>
</svg>
