<svg width="59" height="59" viewBox="0 0 59 59" fill="none" xmlns="http://www.w3.org/2000/svg">
<circle cx="29.5" cy="29.5" r="29" stroke="url(#paint0_linear_634_2592)"/>
<path fill-rule="evenodd" clip-rule="evenodd" d="M32.1792 16.9388C32.2853 16.9759 32.4028 16.9598 32.4952 16.8958C33.1296 16.4561 34.1494 15.8803 35.2784 15.7946C35.6951 15.7629 35.9858 15.5913 36.1744 15.3493C36.3568 15.1152 36.4447 14.8047 36.4316 14.458C36.3797 13.0819 34.6486 11.0564 32.3019 12.3575C31.9623 12.5458 31.4121 12.6789 30.9139 12.4096C30.5609 12.2187 30.2465 11.8315 30.0257 11.1644C29.9177 10.838 29.7301 10.6428 29.5125 10.541C29.2102 10.4 28.8138 10.4399 28.4079 10.6765C27.1658 11.4006 25.7475 14.0487 27.6306 16.1075C27.7424 16.2297 27.9242 16.2574 28.0671 16.1736C28.1379 16.1321 28.2237 16.1158 28.3103 16.1337L32.135 16.9265C32.1502 16.9297 32.1648 16.9337 32.1792 16.9388V16.9388Z" fill="#FEB554"/>
<path fill-rule="evenodd" clip-rule="evenodd" d="M23.1563 32.3724C23.2147 32.5155 23.36 32.6033 23.5139 32.5889C24.1449 32.5298 24.7815 32.5547 25.3985 32.6747C26.4384 32.877 26.9219 33.4075 28.3579 33.8323C29.5399 34.182 30.8455 34.2694 32.0705 34.1329C34.2558 33.889 35.6304 33.0607 37.4621 32.7885C37.7792 32.7413 38.0589 32.7625 38.2946 32.8433C38.4536 32.8979 38.6289 32.832 38.7126 32.6865C39.8226 30.7603 39.8937 27.8747 37.1459 23.6329C35.0403 20.3828 33.2147 19.0495 32.3905 17.7678C32.323 17.6628 32.2048 17.6016 32.0801 17.6068C32.0523 17.608 32.024 17.6058 31.9955 17.5999L28.2227 16.8179C28.1017 16.7928 27.9765 16.8332 27.8929 16.9242C26.0484 18.9335 22.3655 22.1228 22.3655 27.6167C22.3655 29.6114 22.6618 31.1653 23.1563 32.3724V32.3724Z" fill="#FEB554"/>
<g clip-path="url(#clip0_634_2592)">
<path d="M34.1779 26.1218C34.17 26.1276 34.1615 26.1329 34.1544 26.1394C33.8596 26.4087 33.5649 26.6782 33.2702 26.9476C33.2604 26.9565 33.2504 26.9651 33.2431 26.9716C32.93 26.6853 32.6184 26.4004 32.3101 26.1185C32.6177 25.8373 32.9292 25.5525 33.2435 25.2651C33.2468 25.2678 33.2556 25.2741 33.2635 25.2813C33.5655 25.5575 33.8674 25.8338 34.1695 26.1101C34.1719 26.1123 34.1751 26.1137 34.1779 26.1154C34.1779 26.1176 34.1779 26.1197 34.1779 26.1218V26.1218Z" fill="#1A1A1A"/>
<path d="M28.3811 25.4993C28.0672 25.2123 27.7561 24.9279 27.4443 24.6429C27.4549 24.6257 29.9612 22.3306 29.9983 22.3047C30.8517 23.0848 31.7046 23.8646 32.5584 24.6451C32.5479 24.6624 31.6704 25.4684 31.6243 25.501C31.0849 25.0077 30.545 24.5141 30.0018 24.0175C29.4592 24.5136 28.9193 25.0071 28.3811 25.4993V25.4993Z" fill="#1A1A1A"/>
<path d="M28.3776 26.7317C28.9193 27.227 29.4585 27.72 30.0002 28.2152C30.0645 28.1616 30.1223 28.1054 30.1822 28.0512C30.2425 27.9967 30.3022 27.9416 30.3621 27.8868C30.4221 27.832 30.482 27.7772 30.542 27.7224C30.6019 27.6676 30.6618 27.6128 30.7218 27.558C30.7826 27.5025 30.8433 27.4469 30.9041 27.3914C30.964 27.3365 31.024 27.2817 31.0839 27.2269C31.1439 27.1721 31.2038 27.1173 31.2638 27.0625C31.3237 27.0077 31.3836 26.9529 31.4436 26.8981C31.5034 26.8434 31.5633 26.7887 31.6265 26.731C31.9404 27.0176 32.2522 27.3024 32.5611 27.5844C31.7059 28.3663 30.8524 29.1466 30.0022 29.9238C29.1523 29.1468 28.2988 28.3665 27.4429 27.5839C27.7509 27.303 28.063 27.0185 28.3776 26.7317V26.7317Z" fill="#1A1A1A"/>
<path d="M30.002 26.9803C29.6877 26.693 29.3712 26.4036 29.0571 26.1165C29.371 25.8295 29.6875 25.5402 30.0011 25.2534L30.946 26.1173C30.632 26.4043 30.3155 26.6937 30.002 26.9803V26.9803Z" fill="#1A1A1A"/>
<path d="M25.835 26.1149L26.7638 25.2656L27.6937 26.1158C27.3853 26.3978 27.0737 26.6828 26.7649 26.9651C26.4579 26.6844 26.1462 26.3995 25.835 26.1149V26.1149Z" fill="#1A1A1A"/>
</g>
<path fill-rule="evenodd" clip-rule="evenodd" d="M28.4526 15.4462C27.8873 15.3291 27.3333 15.693 27.216 16.2583C27.0989 16.8235 27.4628 17.3777 28.028 17.4948L31.8527 18.2876C32.418 18.4048 32.9721 18.0411 33.0893 17.4756C33.2066 16.9103 32.8427 16.3564 32.2774 16.2391L28.4526 15.4462V15.4462Z" fill="#E87B31"/>
<path fill-rule="evenodd" clip-rule="evenodd" d="M39.508 35.3039C39.9169 34.4498 39.882 33.597 39.5225 32.988C39.142 32.3432 38.3965 31.9397 37.3587 32.0939C35.5354 32.3651 34.1677 33.1925 31.9925 33.4352C30.8589 33.5616 29.6507 33.4825 28.557 33.1591C27.0909 32.7255 26.5941 32.192 25.5326 31.9856C23.5927 31.6082 21.4765 32.0781 19.8247 33.1318C19.1932 33.5346 18.5883 34.2346 18.0176 34.9672C17.483 35.6535 16.9772 36.3671 16.4955 36.8486C16.42 36.9241 16.3829 37.0298 16.3947 37.1358C16.4065 37.242 16.466 37.3369 16.5562 37.3938C16.7225 37.4988 16.8729 37.6335 16.9991 37.7953C18.4878 39.705 21.3279 43.348 22.8168 45.2577C22.9558 45.4362 23.0557 45.6354 23.1161 45.8434C23.1486 45.9558 23.2349 46.0446 23.3465 46.0802C23.4579 46.1159 23.5797 46.0935 23.6714 46.0209C24.4418 45.4099 25.5181 45.2402 26.6399 45.2316C28.4525 45.2178 30.3859 45.6325 31.5238 45.5779C35.0404 45.4096 37.3748 44.1159 40.1209 42.1546C43.2626 39.9106 44.876 38.8739 46.8756 36.0076C47.5069 35.1029 47.696 34.2268 47.4768 33.5235C47.3227 33.0292 46.9708 32.6061 46.3996 32.3078C45.5455 31.8615 44.7634 31.9608 44.0338 32.2876C43.3807 32.58 42.7723 33.0662 42.1951 33.4539C40.9582 34.2846 40.5591 34.8059 39.508 35.3039V35.3039Z" fill="#FACBCF"/>
<path fill-rule="evenodd" clip-rule="evenodd" d="M23.4253 47.7588C24.0609 46.8777 24.0385 45.6827 23.3705 44.8259C21.8817 42.9162 19.0416 39.2733 17.5529 37.3635C16.8848 36.5068 15.7315 36.1936 14.7219 36.5949L12.2695 37.5697C11.8561 37.7341 11.5441 38.0835 11.4275 38.5129C11.311 38.9422 11.4034 39.4013 11.6769 39.7522C13.5167 42.1121 17.7808 47.5817 19.6205 49.9415C19.8941 50.2924 20.3168 50.494 20.7615 50.4858C21.2065 50.4775 21.6213 50.2603 21.8815 49.8994L23.4253 47.7588Z" fill="#414183"/>
<path fill-rule="evenodd" clip-rule="evenodd" d="M39.7577 33.6069C39.7175 33.735 39.6647 33.8646 39.5991 33.9941C39.4549 34.2786 39.2717 34.5339 39.0563 34.7651C37.7855 36.1295 35.4504 36.6814 33.1796 37.3092C32.9929 37.361 32.8832 37.5545 32.9349 37.7412C32.9865 37.9281 33.1801 38.0377 33.3669 37.9861C35.7406 37.3298 38.1605 36.7052 39.5169 35.2996L39.5081 35.3038C39.7923 34.7104 39.8621 34.1176 39.7577 33.6069V33.6069Z" fill="#EFA7AD"/>
<defs>
<linearGradient id="paint0_linear_634_2592" x1="29.5" y1="0" x2="29.5" y2="59" gradientUnits="userSpaceOnUse">
<stop/>
<stop offset="1" stop-color="white" stop-opacity="0.3"/>
</linearGradient>
<clipPath id="clip0_634_2592">
<rect width="10" height="8" fill="white" transform="translate(25 22)"/>
</clipPath>
</defs>
</svg>
