<svg width="59" height="59" viewBox="0 0 59 59" fill="none" xmlns="http://www.w3.org/2000/svg">
<circle cx="29.5" cy="29.5" r="29" stroke="url(#paint0_linear_634_2599)"/>
<g clip-path="url(#clip0_634_2599)">
<path d="M29.5 46C38.6127 46 46 38.6127 46 29.5C46 20.3873 38.6127 13 29.5 13C20.3873 13 13 20.3873 13 29.5C13 38.6127 20.3873 46 29.5 46Z" fill="#A6D4FD"/>
<path d="M37.5546 21.4278L21.4277 37.5547L20.604 38.3784L28.1724 45.9468C28.6104 45.9816 29.053 46 29.5 46C38.6127 46 46 38.6127 46 29.5C46 29.053 45.9816 28.6104 45.9467 28.1724L38.3783 20.604L37.5546 21.4278Z" fill="#6CB1F8"/>
<path d="M16.9316 29.5C16.9316 36.4413 22.5587 42.0684 29.5 42.0684L31.2979 29.5L29.5 16.9316C22.5587 16.9316 16.9316 22.5587 16.9316 29.5Z" fill="#FB7C82"/>
<path d="M42.0684 29.5C42.0684 22.5587 36.4413 16.9316 29.5 16.9316V42.0684C36.4413 42.0684 42.0684 36.4413 42.0684 29.5Z" fill="#FA455C"/>
<path d="M19.1875 29.5C19.1875 35.1955 23.8045 39.8125 29.5 39.8125L31.0372 29.5L29.5 19.1875C23.8045 19.1875 19.1875 23.8045 19.1875 29.5Z" fill="white"/>
<path d="M39.8125 29.5C39.8125 23.8045 35.1955 19.1875 29.5 19.1875V39.8125C35.1955 39.8125 39.8125 35.1955 39.8125 29.5Z" fill="#E9EDF5"/>
<path d="M22.2694 20.6743L20.6743 22.2694L29.4999 31.095L30.3871 30.1924L29.4999 27.9047L22.2694 20.6743Z" fill="#FB7C82"/>
<path d="M38.3256 36.7304L29.5 27.9048V31.0951L36.7305 38.3255L38.3256 36.7304Z" fill="#FA455C"/>
</g>
<defs>
<linearGradient id="paint0_linear_634_2599" x1="29.5" y1="0" x2="29.5" y2="59" gradientUnits="userSpaceOnUse">
<stop/>
<stop offset="1" stop-color="white" stop-opacity="0.3"/>
</linearGradient>
<clipPath id="clip0_634_2599">
<rect width="33" height="33" fill="white" transform="translate(13 13)"/>
</clipPath>
</defs>
</svg>
