<svg width="59" height="59" viewBox="0 0 59 59" fill="none" xmlns="http://www.w3.org/2000/svg">
<circle cx="29.5" cy="29.5" r="29" stroke="url(#paint0_linear_634_2595)"/>
<g clip-path="url(#clip0_634_2595)">
<path d="M38.7644 37.5566L37.5937 39.3994L29.5 34.283L21.4062 39.3994L20.2356 37.5566L28.416 32.4184V24.332H30.584V32.4184L38.7644 37.5566Z" fill="#5A5A5A"/>
<path d="M38.7644 37.5566L37.5938 39.3994L29.5 34.283V24.332H30.584V32.4184L38.7644 37.5566Z" fill="#444444"/>
<path d="M17.5039 36.2559C13.9268 36.2559 11 39.1826 11 42.7598V45H24.0078V42.7598C24.0078 39.1826 21.0811 36.2559 17.5039 36.2559Z" fill="#73BCFF"/>
<path d="M24.0078 42.7598V45H17.5039V36.2559C21.0811 36.2559 24.0078 39.1826 24.0078 42.7598Z" fill="#0095FF"/>
<path d="M17.5039 27.584C15.1191 27.584 13.168 29.5352 13.168 31.9199C13.168 34.3047 15.1191 36.2559 17.5039 36.2559C19.8887 36.2559 21.8398 34.3047 21.8398 31.9199C21.8398 29.5352 19.8887 27.584 17.5039 27.584Z" fill="#73BCFF"/>
<path d="M17.5039 36.2559V27.584C19.8887 27.584 21.8398 29.5352 21.8398 31.9199C21.8398 34.3047 19.8887 36.2559 17.5039 36.2559Z" fill="#0095FF"/>
<path d="M41.4961 36.2559C37.9189 36.2559 34.9922 39.1826 34.9922 42.7598V45H48V42.7598C48 39.1826 45.0732 36.2559 41.4961 36.2559Z" fill="#73BCFF"/>
<path d="M48 42.7598V45H41.4961V36.2559C45.0732 36.2559 48 39.1826 48 42.7598Z" fill="#0095FF"/>
<path d="M41.4961 27.584C39.1113 27.584 37.1602 29.5352 37.1602 31.9199C37.1602 34.3047 39.1113 36.2559 41.4961 36.2559C43.8809 36.2559 45.832 34.3047 45.832 31.9199C45.832 29.5352 43.8809 27.584 41.4961 27.584Z" fill="#73BCFF"/>
<path d="M41.4961 36.2559V27.584C43.8809 27.584 45.832 29.5352 45.832 31.9199C45.832 34.3047 43.8809 36.2559 41.4961 36.2559Z" fill="#0095FF"/>
<path d="M29.5 16.6719C25.9229 16.6719 22.9961 19.6709 22.9961 23.248V25.416H36.0039V23.248C36.0039 19.6709 33.0771 16.6719 29.5 16.6719Z" fill="#73BCFF"/>
<path d="M36.0039 23.248V25.416H29.5V16.6719C33.0771 16.6719 36.0039 19.6709 36.0039 23.248Z" fill="#0095FF"/>
<path d="M29.5 8C27.1152 8 25.1641 9.95117 25.1641 12.3359C25.1641 14.7207 27.1152 16.6719 29.5 16.6719C31.8848 16.6719 33.8359 14.7207 33.8359 12.3359C33.8359 9.95117 31.8848 8 29.5 8Z" fill="#73BCFF"/>
<path d="M29.5 16.6719V8C31.8848 8 33.8359 9.95117 33.8359 12.3359C33.8359 14.7207 31.8848 16.6719 29.5 16.6719Z" fill="#0095FF"/>
</g>
<defs>
<linearGradient id="paint0_linear_634_2595" x1="29.5" y1="0" x2="29.5" y2="59" gradientUnits="userSpaceOnUse">
<stop/>
<stop offset="1" stop-color="white" stop-opacity="0.3"/>
</linearGradient>
<clipPath id="clip0_634_2595">
<rect width="37" height="37" fill="white" transform="translate(11 8)"/>
</clipPath>
</defs>
</svg>
