<svg width="426" height="392" viewBox="0 0 426 392" fill="none" xmlns="http://www.w3.org/2000/svg">
<circle cx="211.5" cy="217.5" r="149.5" fill="url(#paint0_linear_625_2584)"/>
<circle cx="211.5" cy="217.5" r="174" stroke="url(#paint1_linear_625_2584)"/>
<g clip-path="url(#clip0_625_2584)">
<g style="mix-blend-mode:screen">
<path d="M363.633 146.412C363.781 146.394 363.93 146.407 364.072 146.451C364.214 146.495 364.345 146.569 364.456 146.667C364.567 146.766 364.657 146.887 364.718 147.022C364.779 147.158 364.81 147.305 364.81 147.454C364.81 147.602 364.779 147.749 364.718 147.885C364.657 148.021 364.567 148.142 364.456 148.24C364.345 148.339 364.214 148.412 364.072 148.456C363.93 148.501 363.781 148.514 363.633 148.496C363.486 148.514 363.336 148.501 363.194 148.456C363.052 148.412 362.921 148.339 362.81 148.24C362.699 148.142 362.61 148.021 362.549 147.885C362.488 147.749 362.456 147.602 362.456 147.454C362.456 147.305 362.488 147.158 362.549 147.022C362.61 146.887 362.699 146.766 362.81 146.667C362.921 146.569 363.052 146.495 363.194 146.451C363.336 146.407 363.486 146.394 363.633 146.412V146.412Z" fill="#426394"/>
<path d="M237.255 214.203C237.642 214.2 238.022 214.312 238.346 214.526C238.67 214.739 238.924 215.044 239.074 215.401C239.225 215.759 239.266 216.153 239.192 216.535C239.118 216.916 238.933 217.266 238.66 217.542C238.387 217.817 238.038 218.005 237.658 218.082C237.278 218.159 236.884 218.121 236.525 217.973C236.166 217.825 235.86 217.574 235.644 217.252C235.428 216.929 235.313 216.55 235.313 216.162C235.311 215.906 235.36 215.651 235.456 215.414C235.553 215.176 235.696 214.96 235.876 214.778C236.057 214.596 236.271 214.451 236.508 214.353C236.745 214.254 236.998 214.203 237.255 214.203V214.203Z" fill="#ABBDC9"/>
<path d="M78.3697 266.512C78.6563 266.512 78.9311 266.626 79.1337 266.829C79.3363 267.032 79.4501 267.307 79.4501 267.593C79.4501 267.88 79.3363 268.155 79.1337 268.358C78.9311 268.561 78.6563 268.675 78.3697 268.675C78.0832 268.675 77.8084 268.561 77.6058 268.358C77.4031 268.155 77.2893 267.88 77.2893 267.593C77.2893 267.307 77.4031 267.032 77.6058 266.829C77.8084 266.626 78.0832 266.512 78.3697 266.512V266.512Z" fill="#426394"/>
<path d="M1.87899 207.903C2.25437 207.9 2.62221 208.009 2.93584 208.215C3.24947 208.422 3.49475 208.717 3.64055 209.063C3.78636 209.409 3.82612 209.791 3.7548 210.16C3.68347 210.529 3.50426 210.868 3.23992 211.135C2.97558 211.401 2.63803 211.584 2.27008 211.658C1.90213 211.732 1.52038 211.696 1.17326 211.553C0.826146 211.41 0.529313 211.167 0.320425 210.855C0.111537 210.542 1.28212e-05 210.175 1.10643e-09 209.8C-1.70674e-05 209.299 0.197451 208.819 0.549388 208.464C0.901326 208.109 1.37922 207.908 1.87899 207.903V207.903Z" fill="#426394"/>
<path d="M68.4425 226.614C68.7595 226.618 69.0622 226.747 69.2849 226.973C69.5077 227.199 69.6326 227.504 69.6325 227.821C69.5989 228.115 69.4582 228.387 69.2373 228.584C69.0164 228.781 68.7307 228.89 68.4347 228.89C68.1387 228.89 67.853 228.781 67.6321 228.584C67.4112 228.387 67.2705 228.115 67.2368 227.821C67.2368 227.501 67.3638 227.194 67.59 226.968C67.8161 226.741 68.1227 226.614 68.4425 226.614V226.614Z" fill="#426394"/>
<path d="M34.2761 153.071C34.6301 153.081 34.9736 153.194 35.2634 153.398C35.5533 153.601 35.7768 153.886 35.9059 154.216C36.035 154.546 36.0641 154.907 35.9894 155.253C35.9147 155.599 35.7396 155.916 35.486 156.164C35.2324 156.411 34.9115 156.578 34.5636 156.644C34.2156 156.71 33.856 156.671 33.5297 156.534C33.2033 156.396 32.9248 156.165 32.729 155.87C32.5331 155.574 32.4286 155.228 32.4285 154.874C32.4284 154.633 32.4765 154.395 32.5699 154.173C32.6633 153.951 32.8002 153.75 32.9724 153.582C33.1446 153.414 33.3487 153.283 33.5726 153.195C33.7965 153.107 34.0358 153.065 34.2761 153.071V153.071Z" fill="#426394"/>
<path d="M108.449 171.61C108.748 171.61 109.035 171.729 109.247 171.941C109.458 172.152 109.577 172.439 109.577 172.739C109.577 173.038 109.458 173.325 109.247 173.536C109.035 173.748 108.748 173.867 108.449 173.867C108.15 173.867 107.864 173.748 107.652 173.536C107.441 173.325 107.322 173.038 107.322 172.739C107.322 172.439 107.441 172.152 107.652 171.941C107.864 171.729 108.15 171.61 108.449 171.61V171.61Z" fill="#F0C2E3"/>
<path d="M112.129 19.5571C112.666 19.5613 113.18 19.7777 113.558 20.1593C113.937 20.5409 114.149 21.0567 114.149 21.5943C114.146 21.9935 114.025 22.3827 113.801 22.7131C113.577 23.0435 113.261 23.3002 112.891 23.4508C112.522 23.6014 112.116 23.6392 111.726 23.5594C111.335 23.4796 110.976 23.2859 110.695 23.0026C110.415 22.7192 110.224 22.359 110.147 21.9673C110.07 21.5756 110.111 21.1699 110.265 20.8015C110.418 20.433 110.677 20.1182 111.009 19.8968C111.341 19.6753 111.73 19.5571 112.129 19.5571V19.5571Z" fill="#426394"/>
<path d="M155.816 1.28523C156.05 1.2831 156.283 1.32796 156.499 1.41719C156.716 1.50641 156.912 1.63817 157.077 1.8047C157.242 1.97122 157.372 2.16913 157.46 2.38674C157.547 2.60435 157.59 2.83726 157.585 3.07169C157.582 3.42124 157.476 3.76205 157.28 4.05118C157.083 4.34032 156.806 4.56485 156.482 4.69647C156.159 4.8281 155.803 4.86094 155.461 4.79085C155.119 4.72077 154.805 4.5509 154.559 4.30264C154.313 4.05437 154.147 3.73883 154.08 3.39576C154.012 3.0527 154.048 2.69746 154.183 2.3748C154.317 2.05214 154.544 1.7765 154.835 1.58261C155.125 1.38871 155.467 1.28524 155.816 1.28523Z" fill="#426394"/>
<path d="M381.202 312.866C381.511 312.866 381.814 312.958 382.072 313.13C382.329 313.303 382.53 313.547 382.648 313.834C382.767 314.12 382.798 314.435 382.737 314.739C382.677 315.043 382.528 315.322 382.309 315.541C382.09 315.761 381.811 315.91 381.507 315.97C381.203 316.031 380.889 316 380.602 315.881C380.316 315.762 380.072 315.562 379.9 315.304C379.728 315.046 379.636 314.743 379.636 314.433C379.636 314.018 379.801 313.619 380.094 313.325C380.388 313.031 380.786 312.866 381.202 312.866Z" fill="#426394"/>
<path d="M424.278 246.14C424.62 246.137 424.955 246.236 425.24 246.424C425.526 246.612 425.749 246.881 425.881 247.197C426.014 247.513 426.049 247.861 425.983 248.196C425.917 248.532 425.753 248.841 425.511 249.083C425.269 249.325 424.961 249.489 424.625 249.555C424.29 249.621 423.942 249.586 423.627 249.453C423.312 249.321 423.043 249.098 422.855 248.812C422.667 248.526 422.568 248.191 422.571 247.848C422.571 247.395 422.751 246.961 423.071 246.641C423.391 246.32 423.825 246.14 424.278 246.14Z" fill="#426394"/>
<path d="M265.863 37.7193C266.021 37.7172 266.179 37.747 266.326 37.8069C266.474 37.8668 266.607 37.9556 266.72 38.0681C266.832 38.1805 266.921 38.3144 266.981 38.4617C267.041 38.6091 267.07 38.7669 267.068 38.926C267.068 39.246 266.941 39.5529 266.715 39.7792C266.489 40.0055 266.182 40.1326 265.863 40.1326C265.543 40.1326 265.236 40.0055 265.01 39.7792C264.784 39.5529 264.657 39.246 264.657 38.926C264.655 38.7669 264.684 38.6091 264.744 38.4617C264.804 38.3144 264.893 38.1805 265.005 38.0681C265.118 37.9556 265.251 37.8668 265.399 37.8069C265.546 37.747 265.704 37.7172 265.863 37.7193V37.7193Z" fill="#426394"/>
<path d="M380.732 86.4082C380.996 86.3842 381.263 86.4156 381.514 86.5003C381.766 86.5851 381.997 86.7214 382.193 86.9005C382.389 87.0797 382.545 87.2977 382.653 87.5408C382.76 87.7838 382.815 88.0466 382.815 88.3122C382.815 88.5779 382.76 88.8406 382.653 89.0836C382.545 89.3267 382.389 89.5447 382.193 89.7239C381.997 89.903 381.766 90.0393 381.514 90.1241C381.263 90.2089 380.996 90.2402 380.732 90.2162C380.257 90.173 379.816 89.9538 379.494 89.6015C379.173 89.2492 378.994 88.7893 378.994 88.3122C378.994 87.8351 379.173 87.3752 379.494 87.0229C379.816 86.6706 380.257 86.4514 380.732 86.4082Z" fill="#426394"/>
<path d="M387.073 275.538C387.339 275.532 387.6 275.605 387.823 275.749C388.046 275.892 388.222 276.099 388.327 276.342C388.432 276.586 388.462 276.856 388.413 277.116C388.364 277.377 388.238 277.617 388.051 277.806C387.865 277.995 387.626 278.124 387.366 278.176C387.106 278.228 386.837 278.202 386.592 278.099C386.347 277.997 386.138 277.824 385.993 277.602C385.847 277.38 385.771 277.12 385.774 276.855C385.774 276.508 385.91 276.176 386.153 275.93C386.397 275.683 386.727 275.543 387.073 275.538V275.538Z" fill="#426394"/>
<path d="M313.495 221.913C313.618 221.911 313.739 221.934 313.853 221.979C313.967 222.025 314.071 222.092 314.158 222.178C314.246 222.264 314.315 222.367 314.363 222.48C314.41 222.594 314.434 222.715 314.434 222.838C314.43 223.084 314.33 223.32 314.154 223.493C313.978 223.666 313.741 223.762 313.495 223.762C313.374 223.762 313.255 223.738 313.144 223.692C313.033 223.645 312.932 223.577 312.847 223.491C312.763 223.405 312.696 223.303 312.651 223.19C312.607 223.078 312.585 222.958 312.587 222.838C312.585 222.717 312.607 222.597 312.651 222.485C312.696 222.373 312.763 222.271 312.847 222.185C312.932 222.099 313.033 222.031 313.144 221.984C313.255 221.937 313.374 221.913 313.495 221.913Z" fill="#F0C2E3"/>
<path d="M362.506 227.006C362.805 227.006 363.091 227.125 363.303 227.337C363.514 227.548 363.633 227.835 363.633 228.135C363.633 228.434 363.514 228.721 363.303 228.932C363.091 229.144 362.805 229.263 362.506 229.263C362.207 229.263 361.92 229.144 361.708 228.932C361.497 228.721 361.378 228.434 361.378 228.135C361.378 227.835 361.497 227.548 361.708 227.337C361.92 227.125 362.207 227.006 362.506 227.006V227.006Z" fill="#F0C2E3"/>
<path d="M334.634 228.699C334.857 228.699 335.075 228.765 335.26 228.889C335.446 229.013 335.59 229.189 335.675 229.395C335.761 229.601 335.783 229.828 335.74 230.047C335.696 230.266 335.589 230.467 335.431 230.625C335.273 230.783 335.072 230.89 334.854 230.934C334.635 230.977 334.408 230.955 334.202 230.869C333.996 230.784 333.82 230.639 333.696 230.454C333.572 230.268 333.506 230.05 333.506 229.827C333.51 229.529 333.63 229.244 333.841 229.034C334.052 228.823 334.336 228.703 334.634 228.699Z" fill="#F0C2E3"/>
<path d="M325.051 188.707C325.393 188.711 325.719 188.85 325.96 189.093C326.2 189.337 326.335 189.665 326.335 190.008C326.335 190.348 326.2 190.675 325.959 190.916C325.718 191.157 325.391 191.293 325.051 191.293C324.71 191.293 324.384 191.157 324.143 190.916C323.902 190.675 323.767 190.348 323.767 190.008C323.767 189.665 323.902 189.337 324.142 189.093C324.382 188.85 324.709 188.711 325.051 188.707V188.707Z" fill="#F0C2E3"/>
<path d="M317.112 40.2266C317.278 40.2265 317.442 40.2595 317.595 40.3235C317.748 40.3875 317.887 40.4812 318.003 40.5993C318.12 40.7174 318.212 40.8574 318.274 41.0113C318.336 41.1652 318.367 41.33 318.365 41.4959C318.367 41.6611 318.336 41.8251 318.274 41.9781C318.211 42.1312 318.119 42.2702 318.003 42.387C317.886 42.5039 317.747 42.5962 317.594 42.6584C317.441 42.7207 317.277 42.7517 317.112 42.7496C316.946 42.7516 316.782 42.7207 316.628 42.6587C316.474 42.5966 316.334 42.5046 316.216 42.3879C316.098 42.2713 316.004 42.1324 315.941 41.9793C315.877 41.8262 315.844 41.6619 315.844 41.4959C315.844 41.1593 315.977 40.8364 316.215 40.5983C316.453 40.3603 316.776 40.2266 317.112 40.2266V40.2266Z" fill="#D47580"/>
<path d="M282.758 17.4571C283.096 17.4933 283.409 17.6534 283.636 17.9065C283.863 18.1596 283.989 18.4879 283.989 18.8282C283.989 19.1686 283.863 19.4969 283.636 19.75C283.409 20.0031 283.096 20.1632 282.758 20.1994C282.566 20.22 282.371 20.1999 282.187 20.1404C282.003 20.0809 281.834 19.9833 281.69 19.8539C281.546 19.7246 281.431 19.5665 281.353 19.3897C281.274 19.213 281.233 19.0217 281.233 18.8282C281.233 18.6348 281.274 18.4435 281.353 18.2667C281.431 18.09 281.546 17.9319 281.69 17.8025C281.834 17.6732 282.003 17.5756 282.187 17.5161C282.371 17.4566 282.566 17.4365 282.758 17.4571V17.4571Z" fill="#426394"/>
<path d="M389.438 285.019C389.674 285.016 389.905 285.083 390.103 285.212C390.301 285.341 390.456 285.526 390.548 285.743C390.641 285.961 390.667 286.201 390.622 286.433C390.578 286.665 390.466 286.878 390.3 287.047C390.135 287.215 389.923 287.33 389.691 287.377C389.46 287.424 389.22 287.402 389.002 287.312C388.783 287.222 388.597 287.07 388.465 286.873C388.334 286.677 388.263 286.446 388.263 286.21C388.263 285.897 388.387 285.596 388.606 285.373C388.826 285.151 389.125 285.023 389.438 285.019V285.019Z" fill="#426394"/>
<path d="M225.245 90.8901C225.66 90.8901 226.058 91.0552 226.352 91.3491C226.646 91.643 226.811 92.0415 226.811 92.4571C226.811 92.8873 226.64 93.2999 226.336 93.604C226.032 93.9082 225.62 94.0791 225.19 94.0791C224.76 94.0791 224.348 93.9082 224.044 93.604C223.74 93.2999 223.569 92.8873 223.569 92.4571C223.569 92.2418 223.613 92.0286 223.698 91.831C223.784 91.6333 223.909 91.4555 224.066 91.3084C224.223 91.1614 224.409 91.0483 224.612 90.9763C224.815 90.9044 225.03 90.875 225.245 90.8901V90.8901Z" fill="#D47580"/>
<path d="M240.355 124.88C240.476 124.878 240.595 124.9 240.707 124.945C240.819 124.989 240.921 125.056 241.007 125.141C241.093 125.225 241.162 125.326 241.208 125.437C241.255 125.549 241.279 125.668 241.279 125.789C241.279 126.034 241.182 126.269 241.008 126.443C240.835 126.616 240.6 126.713 240.355 126.713C240.11 126.713 239.875 126.616 239.702 126.443C239.528 126.269 239.431 126.034 239.431 125.789C239.431 125.668 239.455 125.549 239.502 125.437C239.548 125.326 239.617 125.225 239.703 125.141C239.789 125.056 239.891 124.989 240.003 124.945C240.115 124.9 240.234 124.878 240.355 124.88Z" fill="#426394"/>
<path d="M254.432 153.244C254.806 153.244 255.164 153.393 255.428 153.657C255.693 153.922 255.841 154.28 255.841 154.654C255.841 155.029 255.693 155.387 255.428 155.652C255.164 155.916 254.806 156.065 254.432 156.065C254.058 156.065 253.7 155.916 253.435 155.652C253.171 155.387 253.023 155.029 253.023 154.654C253.023 154.28 253.171 153.922 253.435 153.657C253.7 153.393 254.058 153.244 254.432 153.244V153.244Z" fill="#426394"/>
<path d="M354.99 198.094C355.244 198.094 355.489 198.194 355.671 198.373C355.852 198.552 355.956 198.795 355.96 199.05C355.96 199.177 355.935 199.302 355.886 199.419C355.837 199.536 355.765 199.642 355.675 199.731C355.585 199.82 355.478 199.89 355.36 199.937C355.242 199.984 355.116 200.008 354.99 200.006C354.864 200.006 354.74 199.981 354.624 199.933C354.508 199.885 354.403 199.814 354.314 199.726C354.225 199.637 354.155 199.531 354.107 199.415C354.059 199.3 354.034 199.175 354.034 199.05C354.034 198.796 354.135 198.553 354.314 198.374C354.493 198.194 354.736 198.094 354.99 198.094Z" fill="#426394"/>
<path d="M109.013 269.772C109.169 269.77 109.323 269.798 109.467 269.857C109.612 269.915 109.743 270.001 109.854 270.11C109.964 270.22 110.052 270.35 110.112 270.493C110.172 270.637 110.203 270.791 110.203 270.947C110.203 271.263 110.078 271.566 109.855 271.789C109.631 272.012 109.329 272.138 109.013 272.138C108.858 272.138 108.704 272.107 108.56 272.047C108.417 271.987 108.286 271.899 108.177 271.788C108.068 271.677 107.982 271.546 107.924 271.402C107.865 271.257 107.837 271.103 107.839 270.947C107.837 270.792 107.866 270.638 107.924 270.495C107.982 270.351 108.069 270.221 108.178 270.111C108.287 270.002 108.418 269.915 108.561 269.857C108.705 269.798 108.858 269.769 109.013 269.772V269.772Z" fill="#426394"/>
<path d="M8.31461 262.782C8.69244 262.782 9.06178 262.894 9.37593 263.104C9.69008 263.315 9.93493 263.613 10.0795 263.962C10.2241 264.312 10.2619 264.696 10.1882 265.067C10.1145 265.438 9.93257 265.779 9.66541 266.046C9.39825 266.313 9.05787 266.495 8.6873 266.569C8.31674 266.643 7.93263 266.605 7.58357 266.46C7.2345 266.316 6.93616 266.071 6.72625 265.756C6.51634 265.442 6.4043 265.072 6.4043 264.694C6.4043 264.187 6.60556 263.701 6.96382 263.342C7.32207 262.984 7.80797 262.782 8.31461 262.782V262.782Z" fill="#426394"/>
<path d="M94.1063 190.148C94.5059 190.148 94.8964 190.267 95.2286 190.489C95.5607 190.711 95.8196 191.027 95.9725 191.396C96.1254 191.766 96.1654 192.172 96.0875 192.564C96.0095 192.956 95.8171 193.317 95.5347 193.599C95.2522 193.882 94.8922 194.075 94.5004 194.153C94.1086 194.231 93.7025 194.191 93.3334 194.038C92.9643 193.885 92.6488 193.625 92.4268 193.293C92.2049 192.961 92.0864 192.57 92.0864 192.17C92.0864 191.634 92.2992 191.12 92.678 190.741C93.0569 190.361 93.5706 190.148 94.1063 190.148Z" fill="#426394"/>
<path d="M258.159 115.399C258.512 115.399 258.85 115.54 259.1 115.79C259.349 116.039 259.49 116.378 259.49 116.731C259.49 117.085 259.349 117.423 259.1 117.673C258.85 117.923 258.512 118.063 258.159 118.063C257.806 118.063 257.467 117.923 257.217 117.673C256.968 117.423 256.828 117.085 256.828 116.731C256.828 116.378 256.968 116.039 257.217 115.79C257.467 115.54 257.806 115.399 258.159 115.399Z" fill="#426394"/>
<path d="M257.376 89.0879C257.57 89.0672 257.767 89.0876 257.953 89.1479C258.138 89.2082 258.31 89.3069 258.455 89.4377C258.6 89.5685 258.717 89.7284 258.796 89.9071C258.876 90.0857 258.917 90.2792 258.917 90.4748C258.917 90.6704 258.876 90.8638 258.796 91.0425C258.717 91.2211 258.6 91.3811 258.455 91.5119C258.31 91.6427 258.138 91.7414 257.953 91.8016C257.767 91.8619 257.57 91.8823 257.376 91.8616C257.034 91.8252 256.717 91.6634 256.487 91.4073C256.257 91.1513 256.13 90.8191 256.13 90.4748C256.13 90.1304 256.257 89.7983 256.487 89.5422C256.717 89.2862 257.034 89.1244 257.376 89.0879V89.0879Z" fill="#426394"/>
<path d="M144.933 57.2607C145.369 57.2607 145.788 57.4341 146.096 57.7427C146.404 58.0512 146.578 58.4698 146.578 58.9062C146.578 59.3426 146.404 59.7611 146.096 60.0697C145.788 60.3782 145.369 60.5516 144.933 60.5516C144.497 60.5516 144.079 60.3782 143.771 60.0697C143.463 59.7611 143.289 59.3426 143.289 58.9062C143.289 58.4698 143.463 58.0512 143.771 57.7427C144.079 57.4341 144.497 57.2607 144.933 57.2607V57.2607Z" fill="#ABBDC9"/>
<path d="M157.021 26.6246C157.379 26.6215 157.729 26.7249 158.028 26.9218C158.326 27.1186 158.559 27.3999 158.698 27.7298C158.836 28.0597 158.873 28.4234 158.804 28.7744C158.735 29.1254 158.563 29.448 158.31 29.701C158.058 29.9539 157.735 30.1259 157.385 30.1949C157.034 30.2639 156.67 30.2269 156.341 30.0886C156.011 29.9503 155.73 29.7169 155.533 29.4181C155.337 29.1194 155.233 28.7688 155.236 28.411C155.236 27.9372 155.424 27.4829 155.759 27.1478C156.094 26.8128 156.548 26.6246 157.021 26.6246Z" fill="#ABBDC9"/>
<path d="M13.0433 216.366C13.3685 216.366 13.6863 216.462 13.9567 216.643C14.2271 216.824 14.4378 217.081 14.5623 217.381C14.6867 217.682 14.7193 218.013 14.6558 218.332C14.5924 218.651 14.4358 218.945 14.2059 219.175C13.9759 219.405 13.683 219.561 13.364 219.625C13.0451 219.688 12.7145 219.656 12.4141 219.531C12.1137 219.407 11.8569 219.196 11.6763 218.925C11.4956 218.655 11.3992 218.337 11.3992 218.011C11.3992 217.575 11.5724 217.156 11.8807 216.848C12.1891 216.539 12.6072 216.366 13.0433 216.366V216.366Z" fill="#426394"/>
<path d="M14.1237 111.607C14.335 111.607 14.5414 111.67 14.7169 111.788C14.8923 111.906 15.0287 112.073 15.1088 112.269C15.189 112.464 15.2091 112.679 15.1667 112.886C15.1244 113.094 15.0214 113.283 14.8709 113.432C14.7204 113.58 14.5292 113.68 14.3217 113.72C14.1141 113.759 13.8996 113.736 13.7053 113.653C13.511 113.57 13.3458 113.431 13.2307 113.253C13.1156 113.076 13.0558 112.868 13.059 112.657C13.0589 112.518 13.0866 112.38 13.1403 112.252C13.194 112.123 13.2727 112.007 13.3717 111.909C13.4708 111.811 13.5883 111.734 13.7174 111.682C13.8465 111.631 13.9846 111.605 14.1237 111.607Z" fill="#426394"/>
<path d="M108.747 148.543C109.133 148.546 109.51 148.663 109.83 148.88C110.15 149.098 110.398 149.405 110.544 149.763C110.69 150.121 110.726 150.514 110.649 150.893C110.572 151.272 110.384 151.62 110.11 151.892C109.835 152.165 109.487 152.35 109.107 152.424C108.728 152.498 108.335 152.458 107.979 152.31C107.622 152.161 107.317 151.91 107.103 151.588C106.888 151.266 106.774 150.888 106.774 150.502C106.772 150.242 106.822 149.985 106.92 149.746C107.019 149.506 107.164 149.289 107.348 149.106C107.532 148.924 107.75 148.78 107.991 148.683C108.231 148.586 108.488 148.539 108.747 148.543V148.543Z" fill="#F0C2E3"/>
<path d="M86.6375 184.053C86.791 184.051 86.9433 184.079 87.0857 184.137C87.2281 184.194 87.3577 184.279 87.467 184.387C87.5762 184.495 87.663 184.623 87.7222 184.765C87.7814 184.907 87.8119 185.059 87.8119 185.212C87.831 185.377 87.815 185.544 87.7651 185.702C87.7152 185.86 87.6325 186.006 87.5223 186.13C87.4121 186.253 87.277 186.353 87.1259 186.42C86.9747 186.488 86.811 186.523 86.6453 186.523C86.4797 186.523 86.3159 186.488 86.1648 186.42C86.0136 186.353 85.8785 186.253 85.7684 186.13C85.6582 186.006 85.5754 185.86 85.5255 185.702C85.4756 185.544 85.4597 185.377 85.4788 185.212C85.4788 185.06 85.5088 184.909 85.567 184.769C85.6252 184.628 85.7106 184.5 85.8182 184.392C85.9258 184.285 86.0535 184.199 86.1941 184.141C86.3347 184.083 86.4853 184.053 86.6375 184.053V184.053Z" fill="#426394"/>
<path d="M86.4024 212.025C86.6161 212.025 86.825 212.088 87.0027 212.207C87.1804 212.326 87.3189 212.495 87.4006 212.692C87.4824 212.89 87.5038 213.107 87.4621 213.317C87.4204 213.527 87.3175 213.72 87.1664 213.871C87.0153 214.022 86.8228 214.125 86.6132 214.167C86.4036 214.208 86.1864 214.187 85.989 214.105C85.7916 214.023 85.6228 213.885 85.5041 213.707C85.3854 213.529 85.322 213.32 85.322 213.106C85.322 212.819 85.4358 212.544 85.6385 212.342C85.8411 212.139 86.1159 212.025 86.4024 212.025V212.025Z" fill="#426394"/>
<path d="M53.9115 241.439C54.2105 241.439 54.4973 241.558 54.7087 241.77C54.9202 241.981 55.0389 242.268 55.0389 242.567C55.042 242.795 54.9772 243.018 54.8528 243.209C54.7284 243.399 54.5501 243.548 54.3406 243.637C54.1311 243.725 53.9 243.749 53.6768 243.706C53.4536 243.662 53.2485 243.553 53.0877 243.392C52.9269 243.231 52.8177 243.026 52.7741 242.802C52.7305 242.579 52.7545 242.348 52.8429 242.138C52.9314 241.928 53.0803 241.75 53.2707 241.625C53.461 241.501 53.6842 241.436 53.9115 241.439V241.439Z" fill="#426394"/>
<path d="M98.3498 278.484C98.6656 278.469 98.9787 278.549 99.2479 278.716C99.5171 278.882 99.7297 279.125 99.8578 279.415C99.9859 279.704 100.023 280.025 99.9655 280.336C99.9076 280.647 99.757 280.934 99.5334 281.158C99.3098 281.381 99.0238 281.532 98.7129 281.59C98.402 281.648 98.0809 281.61 97.7918 281.482C97.5027 281.354 97.2592 281.141 97.0933 280.872C96.9274 280.602 96.8468 280.289 96.8622 279.973C96.8622 279.578 97.019 279.199 97.2979 278.92C97.5769 278.641 97.9553 278.484 98.3498 278.484V278.484Z" fill="#426394"/>
<path d="M162.987 179.806C163.365 179.806 163.735 179.918 164.049 180.128C164.363 180.338 164.608 180.637 164.752 180.986C164.897 181.335 164.935 181.72 164.861 182.09C164.787 182.461 164.605 182.802 164.338 183.069C164.071 183.337 163.731 183.519 163.36 183.593C162.99 183.666 162.605 183.629 162.256 183.484C161.907 183.339 161.609 183.094 161.399 182.78C161.189 182.465 161.077 182.096 161.077 181.717C161.077 181.21 161.278 180.724 161.637 180.366C161.995 180.007 162.481 179.806 162.987 179.806Z" fill="#F0C2E3"/>
<path d="M76.0836 226.082C76.3469 226.082 76.6042 226.16 76.8231 226.306C77.042 226.452 77.2126 226.66 77.3133 226.904C77.414 227.147 77.4404 227.415 77.389 227.673C77.3377 227.932 77.2109 228.169 77.0248 228.355C76.8386 228.542 76.6015 228.669 76.3433 228.72C76.0851 228.771 75.8175 228.745 75.5743 228.644C75.3311 228.543 75.1232 228.373 74.977 228.154C74.8307 227.935 74.7527 227.677 74.7527 227.414C74.7568 227.062 74.8983 226.725 75.147 226.476C75.3957 226.227 75.7319 226.086 76.0836 226.082V226.082Z" fill="#426394"/>
<path d="M31.7864 104.273C32.1741 104.27 32.5541 104.382 32.878 104.595C33.2019 104.809 33.4552 105.114 33.6058 105.471C33.7563 105.829 33.7973 106.223 33.7236 106.604C33.6498 106.985 33.4647 107.336 33.1916 107.611C32.9185 107.887 32.5698 108.075 32.1897 108.152C31.8096 108.229 31.4152 108.191 31.0567 108.043C30.6981 107.895 30.3915 107.644 30.1757 107.322C29.9599 106.999 29.8447 106.62 29.8447 106.232C29.8447 105.715 30.0488 105.219 30.4125 104.852C30.7761 104.485 31.27 104.277 31.7864 104.273V104.273Z" fill="#426394"/>
<path d="M10.679 206.431C10.9081 206.431 11.1322 206.499 11.3227 206.626C11.5133 206.754 11.6618 206.935 11.7495 207.147C11.8372 207.358 11.8601 207.592 11.8154 207.817C11.7707 208.041 11.6604 208.248 11.4983 208.41C11.3363 208.572 11.1298 208.683 10.905 208.728C10.6803 208.772 10.4473 208.749 10.2356 208.662C10.0238 208.574 9.84286 208.425 9.71554 208.235C9.58822 208.044 9.52026 207.82 9.52026 207.59C9.52026 207.438 9.55023 207.287 9.60846 207.147C9.66669 207.006 9.75204 206.878 9.85964 206.77C9.96723 206.663 10.095 206.577 10.2356 206.519C10.3761 206.461 10.5268 206.431 10.679 206.431V206.431Z" fill="#426394"/>
<path d="M50.0595 231.237C50.3042 231.237 50.5433 231.31 50.7468 231.446C50.9502 231.582 51.1087 231.775 51.2024 232.002C51.296 232.228 51.3205 232.477 51.2728 232.717C51.225 232.957 51.1072 233.178 50.9342 233.351C50.7612 233.524 50.5408 233.642 50.3008 233.689C50.0609 233.737 49.8122 233.713 49.5861 233.619C49.3601 233.525 49.1669 233.367 49.031 233.163C48.8951 232.959 48.8225 232.72 48.8225 232.475C48.8225 232.147 48.9528 231.832 49.1848 231.6C49.4168 231.368 49.7314 231.237 50.0595 231.237V231.237Z" fill="#426394"/>
<path d="M90.5519 72.6338C90.9496 72.6308 91.3393 72.7462 91.6713 72.9654C92.0033 73.1846 92.2626 73.4977 92.4162 73.8648C92.5698 74.232 92.6108 74.6366 92.534 75.0271C92.4572 75.4177 92.266 75.7765 91.9847 76.058C91.7035 76.3395 91.3449 76.5308 90.9547 76.6077C90.5644 76.6846 90.1602 76.6436 89.7933 76.4898C89.4264 76.3361 89.1136 76.0765 88.8945 75.7443C88.6755 75.412 88.5602 75.0221 88.5633 74.624C88.5633 74.0962 88.7728 73.59 89.1457 73.2168C89.5187 72.8435 90.0245 72.6338 90.5519 72.6338V72.6338Z" fill="#F0C2E3"/>
<path d="M115.276 218.419C115.504 218.415 115.727 218.48 115.917 218.605C116.108 218.729 116.257 218.908 116.345 219.117C116.433 219.327 116.457 219.558 116.414 219.782C116.37 220.005 116.261 220.21 116.1 220.371C115.939 220.532 115.734 220.642 115.511 220.685C115.288 220.729 115.057 220.705 114.847 220.616C114.638 220.528 114.46 220.379 114.335 220.188C114.211 219.998 114.146 219.774 114.149 219.547C114.149 219.248 114.268 218.961 114.479 218.749C114.691 218.537 114.977 218.419 115.276 218.419V218.419Z" fill="#F0C2E3"/>
<path d="M124.938 124.896C125.199 124.896 125.453 124.973 125.67 125.119C125.887 125.264 126.055 125.47 126.154 125.712C126.253 125.953 126.278 126.219 126.226 126.475C126.174 126.73 126.048 126.965 125.862 127.148C125.677 127.332 125.441 127.456 125.185 127.505C124.928 127.554 124.663 127.526 124.423 127.424C124.183 127.321 123.979 127.15 123.836 126.932C123.694 126.713 123.619 126.457 123.622 126.196C123.622 126.024 123.657 125.854 123.723 125.695C123.789 125.536 123.886 125.392 124.009 125.271C124.131 125.15 124.276 125.055 124.436 124.99C124.595 124.926 124.766 124.894 124.938 124.896V124.896Z" fill="#426394"/>
<path d="M151.009 101.061C151.25 101.061 151.486 101.132 151.687 101.267C151.888 101.401 152.045 101.592 152.137 101.815C152.23 102.038 152.254 102.284 152.207 102.521C152.159 102.758 152.043 102.976 151.872 103.147C151.702 103.318 151.484 103.435 151.247 103.482C151.01 103.529 150.764 103.505 150.541 103.412C150.318 103.32 150.127 103.163 149.993 102.962C149.859 102.761 149.787 102.525 149.787 102.283C149.787 101.959 149.916 101.648 150.145 101.419C150.374 101.189 150.685 101.061 151.009 101.061Z" fill="#426394"/>
<path d="M46.6304 328.083C47.0175 328.083 47.3959 328.197 47.7178 328.413C48.0397 328.628 48.2905 328.934 48.4387 329.292C48.5868 329.65 48.6256 330.044 48.5501 330.424C48.4745 330.803 48.2881 331.153 48.0144 331.426C47.7407 331.7 47.3919 331.887 47.0122 331.963C46.6326 332.038 46.239 331.999 45.8814 331.851C45.5237 331.703 45.218 331.452 45.003 331.13C44.7879 330.807 44.6731 330.429 44.6731 330.041C44.6772 329.523 44.8847 329.027 45.2509 328.661C45.6171 328.294 46.1125 328.087 46.6304 328.083V328.083Z" fill="#426394"/>
<path d="M359.906 291.585C360.216 291.585 360.519 291.677 360.776 291.849C361.034 292.021 361.234 292.266 361.353 292.552C361.472 292.839 361.503 293.154 361.442 293.458C361.382 293.762 361.233 294.041 361.014 294.26C360.795 294.479 360.516 294.629 360.212 294.689C359.908 294.749 359.593 294.718 359.307 294.6C359.021 294.481 358.777 294.28 358.604 294.023C358.432 293.765 358.341 293.462 358.341 293.152C358.341 292.736 358.506 292.338 358.799 292.044C359.093 291.75 359.491 291.585 359.906 291.585Z" fill="#426394"/>
<path d="M294.079 273.392C294.325 273.392 294.562 273.488 294.738 273.661C294.913 273.834 295.014 274.07 295.018 274.316C295.018 274.439 294.994 274.56 294.946 274.674C294.899 274.787 294.83 274.889 294.742 274.976C294.655 275.062 294.551 275.129 294.437 275.175C294.323 275.22 294.201 275.243 294.079 275.241C293.957 275.243 293.836 275.22 293.723 275.175C293.61 275.129 293.507 275.061 293.421 274.975C293.335 274.888 293.267 274.786 293.221 274.672C293.175 274.559 293.153 274.438 293.155 274.316C293.155 274.071 293.252 273.836 293.426 273.662C293.599 273.489 293.834 273.392 294.079 273.392V273.392Z" fill="#426394"/>
<path d="M258.926 66.0366C259.27 66.0366 259.606 66.1386 259.891 66.3298C260.177 66.5209 260.4 66.7926 260.532 67.1104C260.663 67.4283 260.698 67.778 260.631 68.1154C260.563 68.4528 260.398 68.7628 260.155 69.0061C259.912 69.2493 259.602 69.415 259.265 69.4821C258.928 69.5492 258.578 69.5148 258.261 69.3831C257.943 69.2515 257.672 69.0285 257.481 68.7425C257.29 68.4564 257.188 68.1201 257.188 67.7761C257.188 67.3147 257.371 66.8723 257.697 66.5461C258.023 66.2199 258.465 66.0366 258.926 66.0366Z" fill="#426394"/>
<path d="M314.873 117.217C315.211 117.217 315.541 117.317 315.821 117.505C316.102 117.692 316.321 117.959 316.45 118.271C316.579 118.583 316.613 118.927 316.547 119.258C316.481 119.589 316.319 119.894 316.08 120.133C315.841 120.372 315.537 120.534 315.206 120.6C314.875 120.666 314.532 120.632 314.22 120.503C313.908 120.374 313.641 120.155 313.454 119.874C313.266 119.593 313.166 119.263 313.166 118.925C313.166 118.472 313.346 118.037 313.666 117.717C313.986 117.397 314.42 117.217 314.873 117.217Z" fill="#F0C2E3"/>
<path d="M391.52 204.44C391.936 204.44 392.334 204.606 392.628 204.899C392.921 205.193 393.086 205.592 393.086 206.008C393.086 206.423 392.921 206.822 392.628 207.116C392.334 207.409 391.936 207.575 391.52 207.575C391.105 207.575 390.707 207.409 390.413 207.116C390.12 206.822 389.955 206.423 389.955 206.008C389.955 205.592 390.12 205.193 390.413 204.899C390.707 204.606 391.105 204.44 391.52 204.44Z" fill="#D47580"/>
<path d="M330.484 100.402C330.822 100.402 331.152 100.503 331.433 100.69C331.713 100.878 331.932 101.145 332.061 101.457C332.19 101.769 332.224 102.112 332.158 102.444C332.092 102.775 331.93 103.079 331.691 103.318C331.453 103.557 331.148 103.72 330.817 103.786C330.486 103.852 330.143 103.818 329.831 103.689C329.519 103.559 329.253 103.34 329.065 103.059C328.878 102.779 328.778 102.448 328.778 102.11C328.778 101.657 328.957 101.223 329.277 100.903C329.598 100.582 330.032 100.402 330.484 100.402Z" fill="#426394"/>
<path d="M292.45 96.4376C292.727 96.4345 292.999 96.514 293.23 96.6661C293.462 96.8181 293.643 97.0358 293.75 97.2913C293.858 97.5468 293.887 97.8285 293.833 98.1005C293.78 98.3725 293.647 98.6224 293.451 98.8184C293.255 99.0144 293.006 99.1475 292.734 99.2008C292.462 99.2542 292.181 99.2252 291.925 99.1177C291.67 99.0102 291.453 98.8291 291.301 98.5973C291.149 98.3656 291.069 98.0938 291.072 97.8166C291.076 97.4521 291.223 97.1037 291.48 96.846C291.738 96.5883 292.086 96.4417 292.45 96.4376V96.4376Z" fill="#F0C2E3"/>
<path d="M217.776 3.47914C217.896 3.47912 218.016 3.50313 218.127 3.54978C218.238 3.59644 218.339 3.66479 218.423 3.75086C218.508 3.83692 218.575 3.93898 218.619 4.05107C218.664 4.16316 218.686 4.28303 218.684 4.4037C218.686 4.52437 218.664 4.64425 218.619 4.75634C218.575 4.86843 218.508 4.97048 218.423 5.05655C218.339 5.14262 218.238 5.21097 218.127 5.25762C218.016 5.30428 217.896 5.3283 217.776 5.32828C217.528 5.32842 217.289 5.23201 217.111 5.05947C216.933 4.88692 216.829 4.65176 216.821 4.4037C216.823 4.28022 216.849 4.15836 216.898 4.04507C216.947 3.93177 217.018 3.82927 217.107 3.74341C217.195 3.65755 217.3 3.59002 217.415 3.54468C217.53 3.49933 217.652 3.47706 217.776 3.47914V3.47914Z" fill="#426394"/>
<path d="M154.735 6.37081e-05C155.123 6.37081e-05 155.501 0.114947 155.823 0.330188C156.145 0.545428 156.396 0.851355 156.544 1.20929C156.692 1.56722 156.731 1.96108 156.655 2.34106C156.58 2.72104 156.393 3.07006 156.119 3.34401C155.846 3.61796 155.497 3.80453 155.117 3.88011C154.738 3.95569 154.344 3.91689 153.986 3.76863C153.629 3.62037 153.323 3.36931 153.108 3.04718C152.893 2.72505 152.778 2.34633 152.778 1.9589C152.776 1.70108 152.825 1.44542 152.923 1.20682C153.021 0.968224 153.165 0.751449 153.347 0.569137C153.529 0.386824 153.746 0.242622 153.984 0.14492C154.222 0.0472188 154.478 -0.00202401 154.735 6.37081e-05Z" fill="#426394"/>
<path d="M114.541 40.7124C114.884 40.7124 115.22 40.8144 115.506 41.0055C115.792 41.1967 116.015 41.4683 116.146 41.7862C116.278 42.104 116.312 42.4538 116.245 42.7912C116.178 43.1286 116.013 43.4386 115.77 43.6818C115.526 43.9251 115.217 44.0908 114.88 44.1579C114.542 44.225 114.193 44.1905 113.875 44.0589C113.558 43.9272 113.286 43.7043 113.095 43.4182C112.904 43.1322 112.802 42.7959 112.802 42.4518C112.802 41.9905 112.986 41.5481 113.312 41.2219C113.637 40.8957 114.08 40.7124 114.541 40.7124V40.7124Z" fill="#426394"/>
<path d="M3.86759 162.709C4.17728 162.709 4.48001 162.801 4.73751 162.973C4.99501 163.145 5.19571 163.39 5.31422 163.676C5.43273 163.963 5.46375 164.278 5.40333 164.582C5.34291 164.886 5.19379 165.165 4.9748 165.384C4.75581 165.603 4.47681 165.753 4.17307 165.813C3.86933 165.873 3.55449 165.842 3.26837 165.724C2.98225 165.605 2.7377 165.404 2.56564 165.147C2.39358 164.889 2.30176 164.586 2.30176 164.276C2.30176 163.86 2.46673 163.462 2.76038 163.168C3.05403 162.874 3.4523 162.709 3.86759 162.709Z" fill="#426394"/>
<path d="M408.791 188.049C409.101 188.049 409.404 188.141 409.661 188.313C409.919 188.485 410.12 188.73 410.238 189.016C410.357 189.303 410.388 189.618 410.327 189.922C410.267 190.226 410.118 190.505 409.899 190.724C409.68 190.943 409.401 191.092 409.097 191.153C408.793 191.213 408.478 191.182 408.192 191.064C407.906 190.945 407.662 190.744 407.49 190.487C407.317 190.229 407.226 189.926 407.226 189.616C407.226 189.2 407.391 188.802 407.684 188.508C407.978 188.214 408.376 188.049 408.791 188.049Z" fill="#D47580"/>
<path d="M352.703 98.2397C353.069 98.2397 353.426 98.3482 353.73 98.5514C354.034 98.7546 354.271 99.0434 354.41 99.3813C354.55 99.7192 354.587 100.091 354.516 100.45C354.444 100.808 354.268 101.138 354.01 101.396C353.752 101.655 353.422 101.831 353.064 101.903C352.705 101.974 352.334 101.937 351.996 101.797C351.659 101.657 351.37 101.42 351.167 101.116C350.964 100.812 350.856 100.455 350.856 100.089C350.856 99.5985 351.05 99.1281 351.397 98.7813C351.743 98.4346 352.213 98.2397 352.703 98.2397V98.2397Z" fill="#426394"/>
<path d="M373.091 97.3936C373.234 97.3757 373.379 97.3885 373.517 97.4311C373.655 97.4737 373.782 97.5452 373.89 97.6408C373.998 97.7364 374.085 97.8539 374.144 97.9855C374.204 98.1172 374.234 98.2599 374.234 98.4043C374.234 98.5488 374.204 98.6915 374.144 98.8231C374.085 98.9548 373.998 99.0723 373.89 99.1679C373.782 99.2635 373.655 99.3349 373.517 99.3775C373.379 99.4202 373.234 99.433 373.091 99.4151C372.844 99.3844 372.618 99.2647 372.454 99.0785C372.289 98.8924 372.199 98.6527 372.199 98.4043C372.199 98.156 372.289 97.9163 372.454 97.7301C372.618 97.544 372.844 97.4243 373.091 97.3936Z" fill="#ABBDC9"/>
<path d="M295.488 42.6714C295.777 42.6714 296.059 42.7573 296.299 42.9181C296.538 43.079 296.725 43.3075 296.835 43.5747C296.945 43.8419 296.972 44.1358 296.915 44.4189C296.858 44.702 296.717 44.9617 296.512 45.1648C296.307 45.368 296.046 45.5056 295.762 45.56C295.479 45.6145 295.186 45.5834 294.92 45.4706C294.654 45.3579 294.428 45.1687 294.27 44.927C294.111 44.6853 294.029 44.402 294.032 44.1131C294.036 43.7293 294.191 43.3626 294.464 43.0927C294.736 42.8228 295.105 42.6714 295.488 42.6714V42.6714Z" fill="#426394"/>
<path d="M398.708 239.715C399.105 239.712 399.495 239.827 399.827 240.046C400.159 240.266 400.418 240.579 400.572 240.946C400.726 241.313 400.767 241.718 400.69 242.108C400.613 242.499 400.422 242.858 400.14 243.139C399.859 243.421 399.501 243.612 399.11 243.689C398.72 243.766 398.316 243.725 397.949 243.571C397.582 243.417 397.269 243.158 397.05 242.825C396.831 242.493 396.716 242.103 396.719 241.705C396.719 241.177 396.929 240.671 397.302 240.298C397.674 239.925 398.18 239.715 398.708 239.715V239.715Z" fill="#426394"/>
<path d="M406.098 147.509C406.445 147.509 406.784 147.612 407.073 147.805C407.361 147.997 407.586 148.272 407.718 148.592C407.851 148.913 407.886 149.266 407.818 149.606C407.751 149.947 407.584 150.26 407.338 150.505C407.093 150.75 406.781 150.918 406.44 150.985C406.1 151.053 405.748 151.018 405.427 150.885C405.107 150.753 404.833 150.528 404.64 150.239C404.447 149.95 404.344 149.611 404.344 149.264C404.344 149.033 404.39 148.805 404.478 148.592C404.566 148.379 404.695 148.186 404.858 148.023C405.021 147.86 405.214 147.731 405.427 147.642C405.64 147.554 405.868 147.509 406.098 147.509V147.509Z" fill="#426394"/>
<path d="M42.5592 305.971C42.8209 305.971 43.0718 306.075 43.2568 306.26C43.4418 306.445 43.5457 306.696 43.5457 306.958C43.5457 307.22 43.4418 307.471 43.2568 307.656C43.0718 307.841 42.8209 307.945 42.5592 307.945C42.2976 307.945 42.0467 307.841 41.8617 307.656C41.6767 307.471 41.5728 307.22 41.5728 306.958C41.5728 306.696 41.6767 306.445 41.8617 306.26C42.0467 306.075 42.2976 305.971 42.5592 305.971V305.971Z" fill="#426394"/>
<path d="M165.634 139.297C166.018 139.297 166.393 139.411 166.712 139.624C167.032 139.838 167.28 140.141 167.427 140.496C167.574 140.852 167.613 141.242 167.538 141.619C167.463 141.996 167.278 142.342 167.007 142.614C166.735 142.886 166.389 143.071 166.012 143.146C165.636 143.221 165.245 143.182 164.891 143.035C164.536 142.888 164.233 142.639 164.019 142.32C163.806 142 163.692 141.624 163.692 141.24C163.69 140.984 163.739 140.731 163.836 140.494C163.932 140.257 164.075 140.042 164.256 139.861C164.437 139.681 164.652 139.538 164.888 139.441C165.125 139.344 165.378 139.295 165.634 139.297V139.297Z" fill="#426394"/>
<path d="M327.807 233.494C328.169 233.531 328.504 233.702 328.748 233.972C328.992 234.243 329.127 234.594 329.127 234.959C329.127 235.323 328.992 235.675 328.748 235.945C328.504 236.216 328.169 236.387 327.807 236.424C327.602 236.445 327.395 236.423 327.199 236.359C327.003 236.295 326.823 236.191 326.67 236.053C326.516 235.915 326.394 235.746 326.31 235.558C326.227 235.369 326.183 235.165 326.183 234.959C326.183 234.753 326.227 234.549 326.31 234.36C326.394 234.172 326.516 234.003 326.67 233.865C326.823 233.727 327.003 233.622 327.199 233.558C327.395 233.495 327.602 233.472 327.807 233.494V233.494Z" fill="#ABBDC9"/>
<path d="M382.36 315.953C382.67 315.953 382.973 316.045 383.23 316.217C383.488 316.389 383.688 316.634 383.807 316.921C383.925 317.207 383.956 317.522 383.896 317.826C383.836 318.13 383.686 318.409 383.467 318.628C383.248 318.847 382.969 318.997 382.666 319.057C382.362 319.118 382.047 319.087 381.761 318.968C381.475 318.849 381.23 318.649 381.058 318.391C380.886 318.133 380.794 317.83 380.794 317.52C380.794 317.105 380.959 316.706 381.253 316.412C381.547 316.118 381.945 315.953 382.36 315.953Z" fill="#D47580"/>
<path d="M165.884 205.866C166.15 205.866 166.411 205.945 166.632 206.093C166.854 206.242 167.026 206.452 167.128 206.698C167.23 206.944 167.257 207.215 167.205 207.477C167.153 207.738 167.025 207.978 166.836 208.167C166.648 208.355 166.408 208.484 166.147 208.536C165.886 208.588 165.615 208.561 165.369 208.459C165.123 208.357 164.912 208.184 164.764 207.963C164.616 207.741 164.537 207.481 164.537 207.214C164.535 207.036 164.569 206.86 164.636 206.696C164.703 206.531 164.802 206.382 164.927 206.256C165.053 206.131 165.202 206.032 165.366 205.965C165.531 205.898 165.707 205.864 165.884 205.866V205.866Z" fill="#426394"/>
<path d="M275.946 199.426C276.357 199.466 276.737 199.657 277.015 199.963C277.292 200.269 277.445 200.666 277.445 201.079C277.445 201.492 277.292 201.89 277.015 202.195C276.737 202.501 276.357 202.692 275.946 202.732C275.716 202.755 275.483 202.729 275.263 202.656C275.044 202.583 274.841 202.465 274.67 202.309C274.499 202.154 274.361 201.964 274.268 201.752C274.174 201.54 274.125 201.311 274.125 201.079C274.125 200.847 274.174 200.618 274.268 200.406C274.361 200.194 274.499 200.005 274.67 199.849C274.841 199.693 275.044 199.575 275.263 199.502C275.483 199.429 275.716 199.403 275.946 199.426V199.426Z" fill="#ABBDC9"/>
<path d="M257.219 236.832C257.452 236.832 257.68 236.901 257.873 237.031C258.067 237.161 258.217 237.345 258.306 237.561C258.394 237.776 258.416 238.014 258.37 238.242C258.323 238.47 258.21 238.68 258.044 238.843C257.878 239.007 257.667 239.118 257.439 239.161C257.21 239.205 256.973 239.179 256.759 239.088C256.544 238.997 256.362 238.844 256.235 238.648C256.108 238.453 256.042 238.224 256.045 237.991C256.049 237.682 256.174 237.387 256.394 237.17C256.614 236.953 256.91 236.832 257.219 236.832V236.832Z" fill="#426394"/>
<path d="M255.763 202.105C256.189 202.146 256.585 202.345 256.874 202.662C257.162 202.979 257.321 203.393 257.321 203.821C257.321 204.25 257.162 204.664 256.874 204.981C256.585 205.298 256.189 205.497 255.763 205.537C255.336 205.497 254.941 205.298 254.652 204.981C254.364 204.664 254.205 204.25 254.205 203.821C254.205 203.393 254.364 202.979 254.652 202.662C254.941 202.345 255.336 202.146 255.763 202.105V202.105Z" fill="#ABBDC9"/>
<path d="M275.993 169.808C276.272 169.808 276.545 169.891 276.776 170.046C277.008 170.201 277.189 170.421 277.295 170.679C277.402 170.936 277.43 171.22 277.376 171.494C277.321 171.767 277.187 172.019 276.99 172.216C276.793 172.413 276.542 172.547 276.268 172.602C275.995 172.656 275.712 172.628 275.454 172.521C275.197 172.415 274.977 172.234 274.822 172.002C274.667 171.77 274.584 171.497 274.584 171.218C274.584 170.844 274.733 170.486 274.997 170.221C275.261 169.957 275.62 169.808 275.993 169.808V169.808Z" fill="#ABBDC9"/>
<path d="M118.126 136.335C118.405 136.335 118.677 136.418 118.909 136.573C119.141 136.728 119.322 136.948 119.428 137.206C119.535 137.464 119.563 137.747 119.508 138.021C119.454 138.295 119.32 138.546 119.123 138.743C118.926 138.94 118.675 139.075 118.401 139.129C118.128 139.184 117.845 139.156 117.587 139.049C117.329 138.942 117.109 138.761 116.955 138.529C116.8 138.297 116.717 138.025 116.717 137.746C116.717 137.372 116.866 137.013 117.13 136.749C117.394 136.484 117.753 136.335 118.126 136.335Z" fill="#426394"/>
<path d="M49.3549 288.294C49.5562 288.294 49.753 288.354 49.9204 288.466C50.0878 288.578 50.2182 288.737 50.2953 288.923C50.3723 289.109 50.3924 289.314 50.3532 289.512C50.3139 289.709 50.217 289.891 50.0746 290.033C49.9323 290.176 49.7509 290.273 49.5535 290.312C49.3561 290.351 49.1514 290.331 48.9655 290.254C48.7795 290.177 48.6205 290.046 48.5087 289.879C48.3968 289.711 48.3372 289.514 48.3372 289.313C48.3372 289.043 48.4444 288.784 48.6353 288.593C48.8261 288.402 49.085 288.294 49.3549 288.294V288.294Z" fill="#426394"/>
<path d="M260.601 79.4194C260.929 79.4194 261.25 79.5168 261.523 79.6994C261.796 79.8819 262.009 80.1413 262.135 80.4449C262.26 80.7484 262.293 81.0824 262.229 81.4046C262.165 81.7268 262.007 82.0228 261.775 82.2551C261.543 82.4874 261.247 82.6456 260.925 82.7097C260.603 82.7738 260.269 82.7409 259.966 82.6152C259.663 82.4895 259.403 82.2766 259.221 82.0034C259.039 81.7302 258.941 81.4091 258.941 81.0805C258.945 80.6412 259.122 80.2211 259.432 79.9105C259.742 79.5998 260.162 79.4235 260.601 79.4194Z" fill="#426394"/>
<path d="M392.93 237.819C393.199 237.819 393.463 237.899 393.687 238.049C393.911 238.199 394.085 238.411 394.188 238.661C394.291 238.91 394.318 239.184 394.266 239.448C394.213 239.713 394.084 239.956 393.893 240.146C393.703 240.337 393.46 240.467 393.196 240.519C392.931 240.572 392.657 240.545 392.408 240.442C392.16 240.339 391.947 240.164 391.797 239.94C391.647 239.716 391.567 239.452 391.567 239.182C391.565 239.003 391.599 238.824 391.667 238.658C391.735 238.492 391.835 238.341 391.962 238.214C392.089 238.087 392.24 237.986 392.406 237.918C392.572 237.851 392.75 237.817 392.93 237.819V237.819Z" fill="#ABBDC9"/>
<path d="M141.802 13.853C142.111 13.853 142.414 13.9449 142.672 14.1171C142.929 14.2893 143.13 14.5341 143.248 14.8204C143.367 15.1068 143.398 15.4218 143.337 15.7258C143.277 16.0298 143.128 16.309 142.909 16.5282C142.69 16.7473 142.411 16.8966 142.107 16.9571C141.803 17.0175 141.489 16.9865 141.202 16.8679C140.916 16.7493 140.672 16.5484 140.5 16.2907C140.328 16.033 140.236 15.73 140.236 15.4201C140.236 15.0045 140.401 14.6059 140.694 14.312C140.988 14.0181 141.386 13.853 141.802 13.853Z" fill="#426394"/>
<path d="M113.851 151.771C114.203 151.768 114.547 151.87 114.84 152.063C115.134 152.256 115.363 152.533 115.499 152.857C115.635 153.181 115.671 153.538 115.603 153.883C115.535 154.228 115.367 154.545 115.118 154.794C114.87 155.043 114.553 155.211 114.208 155.279C113.864 155.347 113.507 155.311 113.183 155.175C112.859 155.039 112.583 154.809 112.389 154.516C112.196 154.222 112.095 153.878 112.098 153.526C112.098 153.061 112.282 152.614 112.611 152.285C112.94 151.956 113.386 151.771 113.851 151.771Z" fill="#426394"/>
<path d="M71.4646 220.957C71.8549 220.957 72.2363 221.073 72.5608 221.29C72.8852 221.507 73.1381 221.815 73.2874 222.176C73.4367 222.537 73.4758 222.934 73.3997 223.317C73.3236 223.7 73.1357 224.052 72.8597 224.328C72.5838 224.604 72.2323 224.792 71.8495 224.868C71.4668 224.944 71.0701 224.905 70.7096 224.756C70.3491 224.606 70.041 224.353 69.8242 224.029C69.6074 223.704 69.4917 223.322 69.4917 222.932C69.4917 222.672 69.5427 222.416 69.6419 222.176C69.741 221.936 69.8864 221.719 70.0696 221.535C70.2528 221.352 70.4703 221.207 70.7096 221.107C70.949 221.008 71.2056 220.957 71.4646 220.957V220.957Z" fill="#F0C2E3"/>
<path d="M94.952 218.622C95.2988 218.622 95.6379 218.725 95.9263 218.918C96.2147 219.111 96.4395 219.385 96.5722 219.706C96.705 220.026 96.7397 220.379 96.672 220.72C96.6043 221.06 96.4373 221.373 96.192 221.618C95.9468 221.864 95.6343 222.031 95.2941 222.099C94.9539 222.166 94.6013 222.132 94.2808 221.999C93.9604 221.866 93.6865 221.641 93.4938 221.352C93.3011 221.064 93.1982 220.724 93.1982 220.377C93.1982 220.147 93.2436 219.918 93.3317 219.706C93.4199 219.493 93.5491 219.299 93.7119 219.136C93.8748 218.973 94.0681 218.844 94.2808 218.756C94.4936 218.667 94.7217 218.622 94.952 218.622V218.622Z" fill="#F0C2E3"/>
<path d="M58.8753 130.067C59.2546 130.071 59.617 130.225 59.8838 130.495C60.1506 130.765 60.3002 131.129 60.3002 131.509C60.2971 131.79 60.2109 132.064 60.0524 132.297C59.894 132.529 59.6704 132.709 59.4098 132.815C59.1492 132.92 58.8632 132.946 58.5878 132.89C58.3124 132.833 58.06 132.696 57.8623 132.496C57.6646 132.296 57.5304 132.042 57.4767 131.765C57.423 131.489 57.4521 131.203 57.5604 130.944C57.6687 130.684 57.8513 130.462 58.0853 130.306C58.3192 130.15 58.5941 130.067 58.8753 130.067V130.067Z" fill="#426394"/>
<path d="M63.9016 71.5367C64.2372 71.5182 64.5704 71.602 64.8573 71.7772C65.1443 71.9523 65.3713 72.2105 65.5084 72.5176C65.6455 72.8246 65.6863 73.1661 65.6252 73.4969C65.5642 73.8276 65.4043 74.132 65.1667 74.3698C64.929 74.6077 64.6249 74.7677 64.2944 74.8288C63.9639 74.8898 63.6227 74.8491 63.3159 74.7118C63.009 74.5746 62.7511 74.3474 62.576 74.0603C62.401 73.7731 62.3173 73.4396 62.3358 73.1038C62.3358 72.6882 62.5007 72.2896 62.7944 71.9957C63.088 71.7018 63.4863 71.5367 63.9016 71.5367Z" fill="#ABBDC9"/>
<path d="M103.439 21.5474C103.638 21.5474 103.832 21.6066 103.997 21.7175C104.162 21.8284 104.291 21.986 104.366 22.1702C104.441 22.3544 104.46 22.5568 104.42 22.7518C104.38 22.9467 104.283 23.1254 104.142 23.265C104 23.4046 103.82 23.4989 103.624 23.5358C103.429 23.5727 103.227 23.5506 103.044 23.4723C102.861 23.394 102.706 23.263 102.598 23.096C102.49 22.929 102.434 22.7336 102.437 22.5346C102.441 22.2713 102.548 22.0203 102.736 21.8355C102.923 21.6508 103.176 21.5473 103.439 21.5474V21.5474Z" fill="#F0C2E3"/>
<path d="M65.6396 139.36C65.9813 139.36 66.3154 139.461 66.6001 139.65C66.8849 139.839 67.1076 140.108 67.2404 140.423C67.3732 140.738 67.4103 141.086 67.3469 141.422C67.2836 141.758 67.1226 142.068 66.8842 142.313C66.6458 142.558 66.3406 142.727 66.0066 142.799C65.6726 142.872 65.3247 142.844 65.0064 142.719C64.6881 142.595 64.4135 142.379 64.217 142.1C64.0205 141.82 63.9107 141.488 63.9015 141.146C63.8952 140.914 63.9356 140.683 64.0201 140.466C64.1046 140.25 64.2317 140.052 64.3937 139.886C64.5557 139.719 64.7494 139.587 64.9634 139.497C65.1774 139.406 65.4073 139.36 65.6396 139.36V139.36Z" fill="#426394"/>
</g>
</g>
<defs>
<linearGradient id="paint0_linear_625_2584" x1="211.5" y1="68" x2="211.5" y2="312" gradientUnits="userSpaceOnUse">
<stop stop-color="#1783B0"/>
<stop offset="0.646579" stop-color="#DC67EE" stop-opacity="0"/>
</linearGradient>
<linearGradient id="paint1_linear_625_2584" x1="211.5" y1="43" x2="211.5" y2="392" gradientUnits="userSpaceOnUse">
<stop stop-color="white"/>
<stop offset="1" stop-color="white" stop-opacity="0.3"/>
</linearGradient>
<clipPath id="clip0_625_2584">
<rect width="426" height="332" fill="white"/>
</clipPath>
</defs>
</svg>
