<svg width="23" height="15" viewBox="0 0 23 15" fill="none" xmlns="http://www.w3.org/2000/svg">
<path d="M16.6468 1.60445C15.3395 0.591097 13.7707 0.0844506 12.1147 0L11.8532 0.253352C13.3349 0.591097 14.6422 1.26664 15.8624 2.19554C14.3807 1.43555 12.7248 0.928899 10.9816 0.759998C10.4587 0.675547 10.0229 0.675547 9.5 0.675547C8.97708 0.675547 8.54127 0.675547 8.01836 0.759998C6.27523 0.928899 4.61926 1.43555 3.13761 2.19554C4.35777 1.26664 5.66515 0.591097 7.14679 0.253352L6.8853 0C5.22933 0.0844506 3.66053 0.591097 2.35321 1.60445C0.87156 4.30669 0.0871566 7.34668 0 10.4711C1.30732 11.8222 3.13761 12.6667 5.05507 12.6667C5.05507 12.6667 5.66515 11.9911 6.1009 11.4C4.96791 11.1467 3.92202 10.5555 3.22478 9.62668C3.83485 9.96442 4.44493 10.3022 5.05507 10.5555C5.83947 10.8933 6.62388 11.0622 7.40828 11.2311C8.10552 11.3155 8.80276 11.4 9.5 11.4C10.1972 11.4 10.8945 11.3155 11.5917 11.2311C12.3761 11.0622 13.1605 10.8933 13.9449 10.5555C14.5551 10.3022 15.1651 9.96442 15.7752 9.62668C15.078 10.5555 14.0321 11.1467 12.8991 11.4C13.3349 11.9911 13.9449 12.6667 13.9449 12.6667C15.8624 12.6667 17.6927 11.8222 19 10.4711C18.9128 7.34668 18.1284 4.30669 16.6468 1.60445ZM6.62388 8.95107C5.75231 8.95107 4.96791 8.19107 4.96791 7.26223C4.96791 6.33333 5.75231 5.57334 6.62388 5.57334C7.49544 5.57334 8.27984 6.33333 8.27984 7.26223C8.27984 8.19107 7.49544 8.95107 6.62388 8.95107ZM12.3761 8.95107C11.5046 8.95107 10.7202 8.19107 10.7202 7.26223C10.7202 6.33333 11.5046 5.57334 12.3761 5.57334C13.2477 5.57334 14.0321 6.33333 14.0321 7.26223C14.0321 8.19107 13.2477 8.95107 12.3761 8.95107Z" fill="white"/>
<g clip-path="url(#clip0_541_8707)">
<path d="M21.8938 13.3027C22.3937 12.7816 22.6663 12.1373 22.6663 11.466C22.6663 10.6261 22.2392 9.8654 21.5553 9.32568C21.5397 11.2501 19.677 12.8153 17.389 12.8153H15.8406C16.4395 13.775 17.6564 14.4345 19.0555 14.4345H22.3885C22.5014 14.4345 22.602 14.3687 22.6454 14.2675C22.6888 14.1663 22.6645 14.0499 22.5847 13.974L21.8938 13.3027Z" fill="white"/>
<path d="M17.389 5.83838C15.2179 5.83838 13.2783 7.30576 13.2783 9.30683C13.2783 9.95634 13.49 10.5746 13.8714 11.1065L13.5114 11.4562C13.2887 11.6727 13.2111 12.0091 13.3402 12.3068C13.4646 12.5952 13.7484 12.7753 14.056 12.7753H17.389C19.5601 12.7753 21.4998 11.3079 21.4998 9.30683C21.4998 7.30576 19.5601 5.83838 17.389 5.83838Z" fill="#AAA1DF" stroke="white"/>
<path d="M19.0556 8.49756H15.7226C15.5698 8.49756 15.4448 8.619 15.4448 8.76742C15.4448 8.91584 15.5698 9.03728 15.7226 9.03728H19.0556C19.2083 9.03728 19.3333 8.91584 19.3333 8.76742C19.3333 8.619 19.2083 8.49756 19.0556 8.49756Z" fill="white"/>
<path d="M17.9446 9.57715H15.7226C15.5698 9.57715 15.4448 9.69858 15.4448 9.84701C15.4448 9.99543 15.5698 10.1169 15.7226 10.1169H17.9446C18.0973 10.1169 18.2223 9.99543 18.2223 9.84701C18.2223 9.69858 18.0973 9.57715 17.9446 9.57715Z" fill="white"/>
</g>
<defs>
<clipPath id="clip0_541_8707">
<rect width="10.6667" height="9.5" fill="white" transform="translate(12 5.20459)"/>
</clipPath>
</defs>
</svg>
