<svg width="59" height="59" viewBox="0 0 59 59" fill="none" xmlns="http://www.w3.org/2000/svg">
<circle cx="29.5" cy="29.5" r="29" stroke="url(#paint0_linear_634_2601)"/>
<path d="M41.7145 41.9194L37.9824 41.098L36.8257 44.7496C36.7425 45.0122 36.3869 45.0507 36.2495 44.812L31.6326 36.7917C33.9068 36.2989 35.9304 35.131 37.4841 33.5078L42.0569 41.4523C42.1941 41.6906 41.983 41.9785 41.7145 41.9194Z" fill="#FD646F"/>
<path d="M41.7145 41.9195L38.2648 41.1602C38.1048 41.125 37.9445 41.2176 37.895 41.3738L36.8257 44.7496C36.7425 45.0122 36.3869 45.0507 36.2495 44.812L32.2942 37.9405L31.6326 36.7917C33.9068 36.2989 35.9304 35.131 37.4841 33.5078L38.1407 34.6477L42.0569 41.4523C42.194 41.6908 41.983 41.9786 41.7145 41.9195Z" fill="#FD646F"/>
<path d="M41.7144 41.9191L38.265 41.16C38.1048 41.1252 37.9446 41.2176 37.8953 41.3733L38.2665 40.2196C38.3166 40.064 38.477 39.9721 38.6366 40.0076L41.6049 40.6674L42.0569 41.4525C42.1943 41.6905 41.9829 41.9786 41.7144 41.9191Z" fill="#FC4755"/>
<path d="M27.4401 36.6954L22.7501 44.8412C22.6127 45.0799 22.2571 45.0414 22.1739 44.7788L21.1045 41.4029C21.0551 41.2467 20.8947 41.1541 20.7347 41.1893L17.2852 41.9485C17.0166 42.0076 16.8056 41.7198 16.9428 41.4814L21.3047 33.9033C22.9331 35.4472 25.1297 36.315 27.4401 36.6954Z" fill="#FD646F"/>
<path d="M21.9221 35.0301L18.0352 41.7827L17.2855 41.9479C17.0169 42.0071 16.8058 41.7192 16.943 41.4808L20.6559 35.0301L21.6599 33.2812C21.9303 33.5372 22.2127 33.7804 22.5071 34.0091L21.9221 35.0301Z" fill="#FC4755"/>
<path d="M23.2077 44.0453L22.7499 44.8405C22.6125 45.0792 22.2573 45.0412 22.1738 44.7784L21.1044 41.4025C21.055 41.2461 20.8948 41.1537 20.7346 41.1885L21.9173 40.9283C22.0773 40.8931 22.2376 40.9858 22.2871 41.1418L23.2077 44.0453Z" fill="#FC4755"/>
<path d="M21.4103 33.71L24.4949 35.101L27.4401 36.6948L26.6504 38.0656C24.4483 37.6185 22.4051 36.5935 20.7165 35.0839C20.6963 35.0662 20.676 35.0484 20.6558 35.0299L21.4103 33.71Z" fill="#FC4755"/>
<path d="M38.1407 34.6468L37.4841 33.5068L34.0098 35.0403L31.6326 36.7907L31.8998 37.2546L32.5559 38.3941L36.2495 44.8109C36.3869 45.0496 36.7425 45.0111 36.8257 44.7486L37.0609 44.006L33.3896 37.6112C35.1669 36.9927 36.7849 35.9865 38.1407 34.6468Z" fill="#FC4755"/>
<path d="M40.9907 25.5257C40.9907 28.6234 39.7719 31.4368 37.7882 33.5077C36.2345 35.1309 34.211 36.2988 31.9367 36.7916C31.151 36.9618 30.3361 37.0513 29.4997 37.0513C28.8615 37.0513 28.236 36.9992 27.6263 36.8989C25.4343 36.5382 23.4507 35.5551 21.8627 34.1364C21.7766 34.0602 21.6924 33.9828 21.6089 33.9034C21.3125 33.6227 21.0314 33.3261 20.7655 33.0156C20.511 32.7171 20.2717 32.4053 20.0482 32.0814C19.377 31.1104 18.8509 30.0302 18.5007 28.8731C18.181 27.8138 18.0088 26.6904 18.0088 25.5257C18.0088 19.1605 23.1537 14 29.4997 14C30.6603 14 31.781 14.1727 32.8364 14.4941C33.9906 14.844 35.067 15.3718 36.0357 16.0456C36.3586 16.2698 36.6695 16.5098 36.9664 16.7657C37.364 17.1061 37.7376 17.4738 38.0852 17.865C39.8928 19.9016 40.9907 22.5853 40.9907 25.5257Z" fill="#FAA515"/>
<path d="M29.4999 33.781C34.0454 33.781 37.7303 30.085 37.7303 25.5258C37.7303 20.9665 34.0454 17.2705 29.4999 17.2705C24.9544 17.2705 21.2695 20.9665 21.2695 25.5258C21.2695 30.085 24.9544 33.781 29.4999 33.781Z" fill="#FAD207"/>
<path d="M37.73 25.5258C37.73 30.0849 34.0451 33.781 29.4998 33.781C24.9544 33.781 21.2695 30.0849 21.2695 25.5258C21.2695 25.1816 21.2904 24.8425 21.3316 24.5098C21.8305 28.59 25.2976 31.7488 29.4998 31.7488C33.702 31.7488 37.1691 28.59 37.668 24.5098C37.7091 24.8425 37.73 25.1817 37.73 25.5258Z" fill="#FAA515"/>
<path fill-rule="evenodd" clip-rule="evenodd" d="M29.4998 17.2705C24.9544 17.2705 21.2695 20.9666 21.2695 25.5256C21.2695 30.0847 24.9544 33.7808 29.4998 33.7808C34.0451 33.7808 37.73 30.0847 37.73 25.5256C37.73 20.9666 34.0451 17.2705 29.4998 17.2705ZM29.4998 32.8282C25.485 32.8282 22.2192 29.5525 22.2192 25.5256C22.2192 21.4988 25.485 18.2231 29.4998 18.2231C33.5146 18.2231 36.7803 21.4988 36.7803 25.5256C36.7803 29.5525 33.5146 32.8282 29.4998 32.8282Z" fill="#FAF063"/>
<path d="M29.7841 20.9606L30.9147 23.2701C30.9608 23.3642 31.0504 23.4294 31.1541 23.4443L33.6949 23.8094C33.955 23.8467 34.059 24.1663 33.8708 24.3495L32.0279 26.144C31.953 26.2169 31.919 26.322 31.9368 26.4248L32.3759 28.9622C32.4208 29.2214 32.1482 29.4191 31.9157 29.2959L29.648 28.0942C29.5553 28.0451 29.4443 28.0451 29.3516 28.0942L27.0838 29.2959C26.8513 29.4191 26.5788 29.2214 26.6237 28.9622L27.0628 26.4248C27.0806 26.322 27.0465 26.2169 26.9717 26.144L25.1288 24.3495C24.9406 24.1662 25.0446 23.8467 25.3046 23.8094L27.8455 23.4443C27.9491 23.4294 28.0387 23.3642 28.0848 23.2701L29.2154 20.9606C29.3312 20.7241 29.6683 20.7241 29.7841 20.9606Z" fill="#FAA515"/>
<defs>
<linearGradient id="paint0_linear_634_2601" x1="29.5" y1="0" x2="29.5" y2="59" gradientUnits="userSpaceOnUse">
<stop/>
<stop offset="1" stop-color="white" stop-opacity="0.3"/>
</linearGradient>
</defs>
</svg>
