<svg width="9" height="19" viewBox="0 0 9 19" fill="none" xmlns="http://www.w3.org/2000/svg">
<path d="M3.98624 0.217693C3.98602 0.217916 3.98577 0.218102 3.98555 0.218361L0.211353 4.09644C-0.0713855 4.38697 -0.0703333 4.85688 0.21382 5.14608C0.497937 5.43523 0.957482 5.43412 1.24026 5.14359L3.77419 2.53985L3.77419 18.2578C3.77419 18.6677 4.09914 19 4.5 19C4.90086 19 5.22581 18.6677 5.22581 18.2578L5.22581 2.53988L7.75974 5.14355C8.04252 5.43408 8.50206 5.43519 8.78618 5.14604C9.07037 4.85684 9.07135 4.38689 8.78865 4.0964L5.01445 0.218325C5.01423 0.218102 5.01398 0.217915 5.01376 0.217655C4.73004 -0.0730228 4.26901 -0.072094 3.98624 0.217693Z" fill="url(#paint0_linear_84_215)"/>
<defs>
<linearGradient id="paint0_linear_84_215" x1="0" y1="9.5" x2="10.6431" y2="12.0792" gradientUnits="userSpaceOnUse">
<stop stop-color="#1783B0"/>
<stop offset="1" stop-color="#DC67EE"/>
</linearGradient>
</defs>
</svg>
