<svg width="59" height="59" viewBox="0 0 59 59" fill="none" xmlns="http://www.w3.org/2000/svg">
<path fill-rule="evenodd" clip-rule="evenodd" d="M29.5 58C45.2401 58 58 45.2401 58 29.5C58 13.7599 45.2401 1 29.5 1C13.7599 1 1 13.7599 1 29.5C1 45.2401 13.7599 58 29.5 58ZM29.5 59C45.7924 59 59 45.7924 59 29.5C59 13.2076 45.7924 0 29.5 0C13.2076 0 0 13.2076 0 29.5C0 45.7924 13.2076 59 29.5 59Z" fill="#F0B90B"/>
<path d="M20.9057 28.5033L16.9518 32.4558L13 28.5033L16.9518 24.5508L20.9057 28.5033ZM30.5022 18.905L37.2763 25.6804L41.2259 21.7368L30.5 11L19.7741 21.7368L23.7259 25.6893L30.5022 18.905ZM44.0505 24.5508L40.0987 28.5033L44.0482 32.4558L48 28.5033L44.0505 24.5508ZM30.5022 38.1016L23.7281 31.3262L19.7741 35.2743L30.5 46L41.2259 35.2743L37.2741 31.3218L30.5022 38.1016ZM30.5022 32.4558L34.454 28.5033L30.5022 24.5508L26.5505 28.5033L30.5022 32.4558Z" fill="#F0B90B"/>
</svg>
