<svg width="22" height="32" viewBox="0 0 22 32" fill="none" xmlns="http://www.w3.org/2000/svg">
<path fill-rule="evenodd" clip-rule="evenodd" d="M1.57962 8.78249L11.6446 1.40717C12.1097 1.06635 12.77 1.39438 12.7794 1.97095L13.0492 18.3607C13.0642 19.2746 12.6358 20.1371 11.8987 20.6773L3.69127 26.6914C2.78895 27.4739 2.95461 28.9484 4.05198 29.5086C4.93427 29.959 5.99356 29.8757 6.78824 29.2934L15.0168 23.2638C14.7618 22.5091 14.7989 21.6585 15.1884 20.8956C15.5667 20.1545 16.207 19.6342 16.9407 19.3886L16.7293 6.53837C16.5581 6.48588 16.389 6.41779 16.224 6.33352C14.7056 5.55842 14.0988 3.70764 14.8686 2.19971C15.6384 0.691788 17.4933 0.0976875 19.0117 0.872793C20.53 1.64792 21.1368 3.4987 20.367 5.00662C19.9906 5.74395 19.3548 6.26282 18.6257 6.50993L18.8373 19.3673C19.0047 19.4193 19.1699 19.4863 19.3314 19.5687C20.8497 20.3438 21.4566 22.1946 20.6868 23.7025C19.917 25.2105 18.062 25.8045 16.5437 25.0294C16.4033 24.9577 16.2706 24.8769 16.1462 24.7878L7.79844 30.9049C6.4998 31.8565 4.7687 31.9926 3.32685 31.2566L2.52376 30.8466C1.42567 30.286 0.725899 29.1679 0.70579 27.9418L0.429171 11.099C0.414134 10.1852 0.842483 9.32265 1.57962 8.78249ZM18.9949 22.8389C19.291 22.2589 19.0576 21.5471 18.4736 21.2489C17.8897 20.9508 17.1763 21.1793 16.8802 21.7593C16.5841 22.3392 16.8175 23.0511 17.4015 23.3492C17.9854 23.6473 18.6989 23.4188 18.9949 22.8389ZM18.1539 2.55303C18.7379 2.85116 18.9713 3.563 18.6752 4.14297C18.3792 4.72294 17.6657 4.95143 17.0817 4.65329C16.4977 4.35517 16.2644 3.64334 16.5604 3.06337C16.8565 2.4834 17.5699 2.25491 18.1539 2.55303Z" fill="white"/>
</svg>
