<svg width="25" height="24" viewBox="0 0 25 24" fill="none" xmlns="http://www.w3.org/2000/svg">
<path fill-rule="evenodd" clip-rule="evenodd" d="M2.28175 0.075437C0.884078 0.443197 -0.00247551 1.67243 0.111164 3.08518C0.22654 4.51953 1.26145 5.5524 2.69864 5.66755C5.17554 5.86595 6.67736 3.07326 5.16083 1.08894C4.562 0.305223 3.21303 -0.169634 2.28175 0.075437ZM11.5731 0.079309C10.9829 0.241943 10.7123 0.387355 10.2861 0.770808C9.1661 1.7785 9.0644 3.45447 10.0452 4.73801C10.4246 5.23437 11.4261 5.6921 12.1328 5.6921C14.7336 5.6921 16.0216 2.64894 14.1931 0.824102C13.5592 0.191502 12.381 -0.143446 11.5731 0.079309ZM20.8644 0.128221C20.196 0.339156 19.8339 0.567108 19.4429 1.02301C18.5021 2.11987 18.579 3.84852 19.6126 4.84368C20.3042 5.5094 20.6339 5.63942 21.6301 5.63901C22.6705 5.63861 23.1178 5.44428 23.7639 4.71172C25.1249 3.16853 24.4099 0.729742 22.4239 0.141163C21.802 -0.0431754 21.4175 -0.0464365 20.8644 0.128221ZM2.1625 9.24854C1.02886 9.53886 0.135464 10.5788 0.0144732 11.7488C-0.155221 13.3897 1.18998 14.8632 2.85771 14.8632C5.23639 14.8632 6.57178 11.9911 5.02933 10.1927C4.36883 9.42259 3.10633 9.00673 2.1625 9.24854ZM11.471 9.2465C9.29342 9.81949 8.54358 12.4807 10.1236 14.0284C11.2681 15.1493 12.9971 15.139 14.1294 14.0046C15.8628 12.2678 14.7665 9.38213 12.3056 9.20411C12.0151 9.18312 11.6394 9.20218 11.471 9.2465ZM20.63 9.34973C19.8858 9.60632 19.3881 10.0376 19.0265 10.7392C18.4238 11.9088 18.7023 13.3332 19.7005 14.1859C20.806 15.1304 22.5353 15.065 23.5622 14.0401C24.3058 13.298 24.5737 12.1143 24.231 11.0846C23.9819 10.3362 23.2083 9.57014 22.4607 9.33159C21.7678 9.11037 21.3113 9.11495 20.63 9.34973ZM1.62636 18.6454C0.562456 19.176 0.0213142 20.1438 0.108509 21.3599C0.184065 22.4139 0.70785 23.2172 1.62044 23.6788C3.53159 24.6453 5.73863 23.3181 5.74353 21.1993C5.74853 19.0192 3.57743 17.6725 1.62636 18.6454ZM10.9363 18.6332C9.87295 19.1685 9.37684 19.9939 9.37888 21.2246C9.38061 22.3038 10.0919 23.3715 11.0993 23.8071C11.6714 24.0545 12.7967 24.0267 13.3655 23.7512C15.5102 22.7119 15.5879 19.6875 13.497 18.6337C13.1507 18.4593 12.7882 18.3738 12.2878 18.3487C11.6503 18.3167 11.5042 18.3474 10.9363 18.6332ZM20.6824 18.4742C18.7622 19.158 18.1455 21.5222 19.4898 23.0463C20.9622 24.7157 23.7192 24.0772 24.3472 21.9215C24.9764 19.7612 22.8048 17.7185 20.6824 18.4742Z" fill="url(#paint0_linear_237_2923)"/>
<defs>
<linearGradient id="paint0_linear_237_2923" x1="12.2323" y1="0" x2="0.185922" y2="24.0024" gradientUnits="userSpaceOnUse">
<stop stop-color="#1783B0"/>
<stop offset="1" stop-color="#DC67EE"/>
</linearGradient>
</defs>
</svg>
