<svg width="59" height="59" viewBox="0 0 59 59" fill="none" xmlns="http://www.w3.org/2000/svg">
<path fill-rule="evenodd" clip-rule="evenodd" d="M29.5 58C45.2401 58 58 45.2401 58 29.5C58 13.7599 45.2401 1 29.5 1C13.7599 1 1 13.7599 1 29.5C1 45.2401 13.7599 58 29.5 58ZM29.5 59C45.7924 59 59 45.7924 59 29.5C59 13.2076 45.7924 0 29.5 0C13.2076 0 0 13.2076 0 29.5C0 45.7924 13.2076 59 29.5 59Z" fill="#F0B90B"/>
<g clip-path="url(#clip0_84_23)">
<path d="M29.4996 12.0737L33.8172 16.4822L22.9451 27.3218L18.6274 23.0171L29.4996 12.0737Z" fill="#F0B90B"/>
<path fill-rule="evenodd" clip-rule="evenodd" d="M29.5 11.9741L33.9157 16.4826L22.9452 27.4203L18.5288 23.0172L29.5 11.9741ZM18.7262 23.0167L22.9452 27.223L33.719 16.4815L29.4993 12.1731L18.7262 23.0167Z" fill="#F0B90B"/>
<path d="M36.0541 18.6089L40.3717 23.0173L22.9451 40.3918L18.6274 36.0871L36.0541 18.6089Z" fill="#F0B90B"/>
<path fill-rule="evenodd" clip-rule="evenodd" d="M36.0542 18.5093L40.4698 23.0177L22.9448 40.4902L18.5283 36.087L36.0542 18.5093ZM18.7259 36.0867L22.9448 40.293L40.2731 23.0165L36.0533 18.708L18.7259 36.0867Z" fill="#F0B90B"/>
<path d="M16.3904 25.1436L20.708 29.552L16.3904 33.8567L12.0728 29.552L16.3904 25.1436Z" fill="#F0B90B"/>
<path fill-rule="evenodd" clip-rule="evenodd" d="M16.3906 25.0435L20.8066 29.5523L16.3906 33.9551L11.9746 29.5523L16.3906 25.0435ZM12.1713 29.5512L16.3906 33.7578L20.6099 29.5512L16.3906 25.2431L12.1713 29.5512Z" fill="#F0B90B"/>
<path d="M42.6088 25.1436L46.9264 29.552L29.4998 46.9265L25.1821 42.6218L42.6088 25.1436Z" fill="#F0B90B"/>
<path fill-rule="evenodd" clip-rule="evenodd" d="M42.6094 25.0439L47.0249 29.5524L29.4999 47.0249L25.0835 42.6217L42.6094 25.0439ZM25.2811 42.6214L29.4999 46.8276L46.8282 29.5512L42.6085 25.2427L25.2811 42.6214Z" fill="#F0B90B"/>
</g>
<defs>
<clipPath id="clip0_84_23">
<rect width="35" height="35" fill="white" transform="translate(12 12)"/>
</clipPath>
</defs>
</svg>
