<svg width="31" height="31" viewBox="0 0 31 31" fill="none" xmlns="http://www.w3.org/2000/svg">
<path d="M26.4596 4.5404C23.5305 1.61132 19.6425 0 15.5 0C11.3575 0 7.46949 1.61132 4.5404 4.5404C1.61132 7.46949 0 11.3575 0 15.5C0 19.6425 1.61132 23.5305 4.5404 26.4596C7.46949 29.3887 11.3575 31 15.5 31C19.6425 31 23.5305 29.3887 26.4596 26.4596C29.3887 23.5305 31 19.6425 31 15.5C31 11.3575 29.3887 7.46949 26.4596 4.5404ZM25.2136 25.2136C22.6172 27.81 19.1662 29.2386 15.5 29.2386C11.8338 29.2386 8.38279 27.81 5.78641 25.2136C0.430555 19.8577 0.430555 11.1423 5.78641 5.78641C8.38279 3.19003 11.8338 1.76136 15.5 1.76136C19.1662 1.76136 22.6172 3.19003 25.2136 5.78641C30.5694 11.1423 30.5694 19.8577 25.2136 25.2136Z" fill="white"/>
<path d="M22.3298 8.66947C21.9841 8.32372 21.4296 8.32372 21.0838 8.66947L15.4996 14.2536L9.91547 8.66947C9.56972 8.32372 9.01522 8.32372 8.66947 8.66947C8.32372 9.01522 8.32372 9.56972 8.66947 9.91547L14.2536 15.4996L8.66947 21.0838C8.32372 21.4296 8.32372 21.9841 8.66947 22.3298C8.83908 22.4994 9.06741 22.5908 9.28921 22.5908C9.51101 22.5908 9.73933 22.506 9.90895 22.3298L15.4931 16.7456L21.0773 22.3298C21.2469 22.4994 21.4752 22.5908 21.697 22.5908C21.9254 22.5908 22.1472 22.506 22.3168 22.3298C22.6625 21.9841 22.6625 21.4296 22.3168 21.0838L16.7456 15.4996L22.3298 9.91547C22.6756 9.56972 22.6756 9.01522 22.3298 8.66947Z" fill="white"/>
</svg>
