<svg width="18" height="21" viewBox="0 0 18 21" fill="none" xmlns="http://www.w3.org/2000/svg">
<g clip-path="url(#clip0_84_64)">
<path d="M12.752 21.0022H2.00391C1.60142 21.0022 1.21542 20.8423 0.930817 20.5577C0.646215 20.2731 0.486328 19.8871 0.486328 19.4846V5.22266C0.486328 4.82017 0.646215 4.43417 0.930817 4.14957C1.21542 3.86497 1.60142 3.70508 2.00391 3.70508H12.7541C13.1566 3.70508 13.5426 3.86497 13.8272 4.14957C14.1118 4.43417 14.2717 4.82017 14.2717 5.22266V19.4846C14.2717 19.6841 14.2324 19.8816 14.156 20.0658C14.0796 20.2501 13.9676 20.4175 13.8265 20.5584C13.6853 20.6994 13.5178 20.8111 13.3334 20.8873C13.1491 20.9634 12.9515 21.0025 12.752 21.0022ZM2.53506 18.9514H12.2188V5.75586H2.53711L2.53506 18.9514Z" fill="white"/>
<path d="M16.9746 18.375C16.7027 18.375 16.4418 18.267 16.2495 18.0747C16.0573 17.8824 15.9492 17.6216 15.9492 17.3496V2.05078H5.73633C5.46438 2.05078 5.20357 1.94275 5.01127 1.75045C4.81897 1.55815 4.71094 1.29734 4.71094 1.02539C4.71094 0.75344 4.81897 0.492628 5.01127 0.30033C5.20357 0.108032 5.46438 0 5.73633 0L16.4824 0C16.8849 0 17.2709 0.159887 17.5555 0.444488C17.8401 0.729089 18 1.11509 18 1.51758V17.3496C18 17.6216 17.892 17.8824 17.6997 18.0747C17.5074 18.267 17.2466 18.375 16.9746 18.375Z" fill="white"/>
</g>
<defs>
<clipPath id="clip0_84_64">
<rect width="18" height="21" fill="white"/>
</clipPath>
</defs>
</svg>
