<svg width="18" height="18" viewBox="0 0 18 18" fill="none" xmlns="http://www.w3.org/2000/svg">
<path fill-rule="evenodd" clip-rule="evenodd" d="M8.50781 5.69482C8.50781 8.31601 10.6327 10.4409 13.2539 10.4409C15.8751 10.4409 18 8.31601 18 5.69482C18 3.07364 15.8751 0.94873 13.2539 0.94873C10.6327 0.94873 8.50781 3.07364 8.50781 5.69482ZM13.2539 9.38623C11.2152 9.38623 9.5625 7.73353 9.5625 5.69482C9.5625 3.65612 11.2152 2.00342 13.2539 2.00342C15.2926 2.00342 16.9453 3.65612 16.9453 5.69482C16.9453 7.73353 15.2926 9.38623 13.2539 9.38623Z" fill="white"/>
<path d="M12.4629 4.11279C12.4629 4.40403 12.2268 4.64014 11.9355 4.64014C11.6443 4.64014 11.4082 4.40403 11.4082 4.11279C11.4082 3.82156 11.6443 3.58545 11.9355 3.58545C12.2268 3.58545 12.4629 3.82156 12.4629 4.11279Z" fill="white"/>
<path d="M15.0996 7.27686C15.0996 7.56809 14.8635 7.8042 14.5723 7.8042C14.281 7.8042 14.0449 7.56809 14.0449 7.27686C14.0449 6.98562 14.281 6.74951 14.5723 6.74951C14.8635 6.74951 15.0996 6.98562 15.0996 7.27686Z" fill="white"/>
<path fill-rule="evenodd" clip-rule="evenodd" d="M11.598 7.68196C11.8217 7.86841 12.1542 7.83818 12.3407 7.61444L14.9774 4.45038C15.1638 4.22664 15.1336 3.89411 14.9099 3.70766C14.6861 3.52121 14.3536 3.55144 14.1672 3.77518L11.5304 6.93925C11.344 7.16298 11.3742 7.49551 11.598 7.68196Z" fill="white"/>
<path fill-rule="evenodd" clip-rule="evenodd" d="M11.4764 12.8001C11.3768 13.0656 11.0849 13.2048 10.8159 13.1151C10.5396 13.023 10.2409 13.1724 10.1488 13.4486C10.0567 13.7249 10.206 14.0236 10.4823 14.1157C11.2896 14.3848 12.1651 13.9671 12.4639 13.1704L12.4639 13.1703C12.7787 12.3309 12.3336 11.3977 11.483 11.1141L11.4818 11.1137L6.90049 9.59798C6.9003 9.59792 6.9001 9.59785 6.89991 9.59779C5.81625 9.23668 3.71496 9.14403 2.26383 10.5952C2.05789 10.8011 2.05789 11.135 2.26383 11.3409C2.46977 11.5469 2.80367 11.5469 3.00961 11.3409C4.074 10.2765 5.69828 10.3089 6.56688 10.5985L6.56804 10.5989L11.1494 12.1147C11.1496 12.1147 11.1497 12.1148 11.1499 12.1148C11.4331 12.2095 11.5812 12.5203 11.4764 12.8" fill="white"/>
<path fill-rule="evenodd" clip-rule="evenodd" d="M0 16.2417C0 16.5329 0.2361 16.769 0.527344 16.769H2.63672C2.92796 16.769 3.16406 16.5329 3.16406 16.2417V10.9683C3.16406 10.677 2.92796 10.4409 2.63672 10.4409H0.527344C0.2361 10.4409 0 10.677 0 10.9683V16.2417ZM1.05469 15.7144V11.4956H2.10938V15.7144H1.05469Z" fill="white"/>
<path fill-rule="evenodd" clip-rule="evenodd" d="M9.62842 15.9956C8.94175 16.0036 8.21616 15.9152 7.53569 15.7594L2.75369 14.6727C2.46968 14.6082 2.18714 14.7861 2.1226 15.0701C2.05806 15.3541 2.23598 15.6367 2.51998 15.7012L7.30034 16.7875C7.30048 16.7875 7.3002 16.7874 7.30034 16.7875C8.05047 16.9592 8.85993 17.0593 9.64074 17.0502C11.6501 17.0267 13.6006 16.3713 15.231 15.2068L15.2385 15.2015L17.3416 13.6434C18.0766 13.115 18.2193 12.0781 17.6534 11.3707C17.1285 10.7146 16.1823 10.5833 15.4986 11.0716L15.4917 11.0765L13.2006 12.769C12.5147 13.2574 11.6366 13.3888 10.8375 13.1225L10.8359 13.1219L7.58333 12.0495C7.30673 11.9583 7.00857 12.1085 6.91737 12.3851C6.82617 12.6617 6.97646 12.9599 7.25305 13.0511L10.504 14.123C10.5043 14.1231 10.5037 14.1229 10.504 14.123C11.6242 14.4961 12.8562 14.3112 13.8169 13.6249L13.8238 13.62L16.1144 11.9278C16.3421 11.7674 16.6556 11.8118 16.8298 12.0295C17.0188 12.2657 16.9707 12.6122 16.7245 12.788L16.7171 12.7934L14.6144 14.3512C13.1553 15.3922 11.4148 15.9747 9.62842 15.9956Z" fill="white"/>
</svg>
