<svg width="13" height="13" viewBox="0 0 13 13" fill="none" xmlns="http://www.w3.org/2000/svg">
<g clip-path="url(#clip0_84_278)">
<path d="M12.5934 6.09372H7.44774C7.2235 6.09372 7.0415 5.91173 7.0415 5.68749C7.0415 5.46324 7.2235 5.28125 7.44774 5.28125H12.5934C12.8177 5.28125 12.9997 5.46324 12.9997 5.68749C12.9997 5.91173 12.8177 6.09372 12.5934 6.09372Z" fill="white" fill-opacity="0.8"/>
<path d="M10.5624 8.12533C10.4583 8.12533 10.3544 8.08575 10.2753 8.00621C10.1166 7.84743 10.1166 7.59016 10.2753 7.43147L12.0194 5.68741L10.2753 3.94324C10.1166 3.78456 10.1166 3.52729 10.2753 3.3686C10.4341 3.20982 10.6913 3.20982 10.85 3.3686L12.8812 5.39979C13.0399 5.55847 13.0399 5.81574 12.8812 5.97443L10.85 8.00562C10.7704 8.08575 10.6664 8.12533 10.5624 8.12533Z" fill="white" fill-opacity="0.8"/>
<path d="M4.33323 13.0001C4.21729 13.0001 4.1073 12.9838 3.99741 12.9497L0.737694 11.8637C0.294165 11.7088 0 11.2955 0 10.8335V1.08382C0 0.486366 0.485878 0.000488281 1.08333 0.000488281C1.19917 0.000488281 1.30916 0.0167537 1.41915 0.0508712L4.67877 1.13688C5.1224 1.2918 5.41646 1.70508 5.41646 2.16705V11.9167C5.41646 12.5142 4.93069 13.0001 4.33323 13.0001ZM1.08333 0.812963C0.934366 0.812963 0.812475 0.934854 0.812475 1.08382V10.8335C0.812475 10.9489 0.889933 11.0561 1.00042 11.0946L4.24486 12.1757C4.26817 12.1832 4.29852 12.1876 4.33323 12.1876C4.4822 12.1876 4.60399 12.0657 4.60399 11.9167V2.16705C4.60399 2.05171 4.52653 1.9445 4.41605 1.90601L1.1716 0.824864C1.14829 0.817327 1.11795 0.812963 1.08333 0.812963Z" fill="white" fill-opacity="0.8"/>
<path d="M8.26028 4.33372C8.03603 4.33372 7.85404 4.15173 7.85404 3.92748V1.49006C7.85404 1.11685 7.55025 0.812963 7.17704 0.812963H1.08348C0.85924 0.812963 0.677246 0.630969 0.677246 0.406726C0.677246 0.182482 0.85924 0.000488281 1.08348 0.000488281H7.17704C7.99874 0.000488281 8.66651 0.66836 8.66651 1.49006V3.92748C8.66651 4.15173 8.48452 4.33372 8.26028 4.33372Z" fill="white" fill-opacity="0.8"/>
<path d="M7.17691 11.3752H5.01024C4.786 11.3752 4.604 11.1932 4.604 10.969C4.604 10.7447 4.786 10.5627 5.01024 10.5627H7.17691C7.55012 10.5627 7.8539 10.2589 7.8539 9.88565V7.44823C7.8539 7.22399 8.0359 7.04199 8.26014 7.04199C8.48438 7.04199 8.66638 7.22399 8.66638 7.44823V9.88565C8.66638 10.7074 7.9986 11.3752 7.17691 11.3752Z" fill="white" fill-opacity="0.8"/>
</g>
<defs>
<clipPath id="clip0_84_278">
<rect width="13" height="13" fill="white"/>
</clipPath>
</defs>
</svg>
