<svg width="24" height="22" viewBox="0 0 24 22" fill="none" xmlns="http://www.w3.org/2000/svg">
<path d="M23.9033 8.58469L19.6377 1.31611C19.4421 0.982879 19.0143 0.869863 18.6797 1.06308L16.1233 2.53903L13.8205 1.69205C13.1004 1.42716 12.3061 1.49527 11.6416 1.87899L8.14482 3.89785L5.04483 2.10802C4.88002 2.01286 4.68376 1.98863 4.50066 2.04071C4.31766 2.09283 4.16358 2.21686 4.07363 2.38463L0.0835841 9.82374C-0.0958535 10.1584 0.0227872 10.5751 0.351662 10.765L1.93496 11.6791L1.14094 13.0544C0.559365 14.0617 0.905725 15.3543 1.91302 15.9359C2.38055 16.2058 2.90944 16.2755 3.40027 16.1723C3.55632 16.649 3.88116 17.0722 4.34869 17.3421C4.81623 17.612 5.34512 17.6818 5.83594 17.5786C5.99199 18.0552 6.31683 18.4785 6.78437 18.7484C7.2519 19.0183 7.78079 19.088 8.27162 18.9848C8.42771 19.4615 8.75255 19.8847 9.22009 20.1546C10.2274 20.7362 11.52 20.3898 12.1015 19.3825L12.1924 19.2252L14.831 20.7486C15.8383 21.3302 17.1309 20.9838 17.7125 19.9765C17.8497 19.7388 17.9347 19.4851 17.9721 19.2287C18.8693 19.465 19.8509 19.0853 20.3365 18.244C20.5038 17.9543 20.5939 17.641 20.614 17.3278C21.3815 17.3681 22.1447 16.987 22.5547 16.277C22.9646 15.567 22.913 14.7155 22.4943 14.0709C22.7555 13.8969 22.9818 13.6622 23.149 13.3726C23.7145 12.3931 23.4025 11.1441 22.4588 10.5411L23.7436 9.48338C24.0106 9.26372 24.0782 8.88272 23.9033 8.58469ZM12.3447 3.09685C12.6467 2.92238 13.0076 2.89149 13.3351 3.01191L15.9469 3.97257C16.1429 4.04461 16.3605 4.02591 16.5412 3.92157L18.7782 2.63002L22.3868 8.77903L21.1604 9.78868L12.7151 4.91274C12.4975 4.78711 12.2295 4.78711 12.012 4.91274L8.12504 7.15683C7.80155 7.35253 7.34677 7.23071 7.16457 6.89949C6.96887 6.5761 7.09074 6.12118 7.42191 5.93902L12.3447 3.09685ZM2.61619 14.718C2.28043 14.5241 2.16497 14.0933 2.35885 13.7575L3.53073 11.7278C3.7246 11.392 4.15543 11.2766 4.49119 11.4705C4.82696 11.6643 4.94241 12.0952 4.74854 12.4309L3.57666 14.4607C3.38283 14.7964 2.95196 14.9119 2.61619 14.718ZM5.05187 16.1243C4.7161 15.9304 4.60065 15.4996 4.79452 15.1638L6.43515 12.3221C6.62902 11.9863 7.05985 11.8709 7.39562 12.0648C7.73138 12.2587 7.84683 12.6895 7.65296 13.0253L6.01233 15.8669C5.81851 16.2027 5.38763 16.3181 5.05187 16.1243ZM7.48754 17.5305C7.15177 17.3366 7.03632 16.9058 7.23019 16.57L8.40207 14.5403C8.59594 14.2045 9.02677 14.0891 9.36254 14.283C9.6983 14.4768 9.81376 14.9077 9.61988 15.2434L8.44801 17.2732C8.25418 17.6089 7.82335 17.7244 7.48754 17.5305ZM9.92326 18.9368C9.58749 18.7429 9.47199 18.3121 9.66587 17.9763L10.369 16.7584C10.5629 16.4227 10.9937 16.3072 11.3295 16.5011C11.6653 16.695 11.7807 17.1258 11.5869 17.4616L10.8837 18.6794C10.6899 19.0152 10.2591 19.1307 9.92326 18.9368ZM21.3369 15.5739C21.1431 15.9097 20.7122 16.0251 20.3765 15.8312L16.7229 13.7219C16.3867 13.5277 15.9566 13.6429 15.7625 13.9792C15.5683 14.3155 15.6835 14.7455 16.0198 14.9397L18.8614 16.5803C19.1972 16.7742 19.3126 17.205 19.1188 17.5408C18.9249 17.8765 18.4941 17.992 18.1583 17.7981L15.3167 16.1575C14.9804 15.9633 14.5504 16.0786 14.3562 16.4148C14.1621 16.7511 14.2773 17.1811 14.6136 17.3753L16.2374 18.3128C16.5731 18.5067 16.6886 18.9375 16.4947 19.2733C16.3008 19.609 15.87 19.7245 15.5342 19.5306L12.8884 18.003C13.3474 17.0229 12.9869 15.8341 12.0327 15.2831C11.743 15.1159 11.4297 15.0257 11.1165 15.0056C11.1567 14.2381 10.7757 13.4749 10.0657 13.0649C9.77602 12.8977 9.46271 12.8076 9.14954 12.7875C9.1898 12.0199 8.80876 11.2567 8.09874 10.8468C7.38873 10.4369 6.53729 10.4885 5.89271 10.9071C5.71871 10.6459 5.48401 10.4197 5.19432 10.2524C4.38357 9.78432 3.38832 9.91777 2.72743 10.5127L1.64499 9.88791L4.96998 3.68864L6.73857 4.70977L6.71879 4.72121C6.23087 5.00293 5.88183 5.4578 5.73596 6.00202C5.59018 6.54624 5.66499 7.11469 5.94671 7.60261C6.22843 8.09053 6.6833 8.43957 7.22752 8.58544C7.77174 8.73118 8.34019 8.65641 8.82812 8.37469L12.3635 6.33357L21.6739 11.709C22.0096 11.9029 22.1251 12.3337 21.9312 12.6695C21.7374 13.0052 21.3065 13.1207 20.9708 12.9268L18.1291 11.2862C17.7929 11.092 17.3628 11.2073 17.1687 11.5435C16.9745 11.8798 17.0897 12.3098 17.426 12.504L21.0796 14.6134C21.4154 14.8073 21.5308 15.2381 21.3369 15.5739Z" fill="white"/>
</svg>
