<svg width="84" height="84" viewBox="0 0 84 84" fill="none" xmlns="http://www.w3.org/2000/svg">
<path d="M1.15712 30.4246C1.83668 27.432 3.14479 24.7058 4.61556 22.0582C5.68245 20.1363 6.79483 18.2172 8.10983 16.4636C9.48825 14.6203 11.0748 12.9137 12.6834 11.2581C15.3327 8.52767 18.0772 5.90352 21.7189 4.46589C22.6314 4.10579 23.4226 3.44907 24.3241 3.0531C26.0265 2.30531 27.7136 1.4099 29.5042 1.01531C31.8006 0.510349 34.1908 0.427568 36.5438 0.187504C37.4728 0.0923063 38.4184 -0.0580789 39.3378 0.0233222C42.2325 0.281322 45.1271 0.583472 48.0135 0.968403C53.3549 1.6817 58.3751 3.31386 63.0382 6.08839C66.7217 8.29297 70.1802 10.854 73.3639 13.7346C75.597 15.7324 77.2786 18.1799 78.9121 20.6826C80.613 23.2889 82.0824 25.9834 82.8157 29.0076C83.2462 30.8294 83.5529 32.6783 83.7338 34.5415C83.9336 36.5048 83.9764 38.486 83.9998 40.4617C84.0094 41.2206 83.6869 41.9794 83.6635 42.7423C83.4925 48.1121 82.6462 53.3797 81.3077 58.5714C80.3153 62.418 78.5812 65.9072 75.8341 68.8059C73.1806 71.6039 70.4955 74.3784 67.7014 77.0426C65.4711 79.1852 62.9624 80.8491 59.8197 81.59C56.925 82.2674 54.0469 82.9586 51.1205 83.4043C48.791 83.7588 46.4118 84.0693 44.0685 83.9865C40.719 83.8692 37.3791 83.407 34.0433 83.0207C32.516 82.8455 30.957 82.6703 29.4946 82.2177C24.9155 80.7953 20.4935 78.9672 16.3279 76.5693C13.6888 75.0756 11.4197 73.0059 9.6895 70.5139C7.38204 67.1751 5.30614 63.7107 3.58175 60.0463C3.43426 59.5524 3.27712 59.0598 3.15582 58.559C3.08193 57.789 2.92997 57.0286 2.70232 56.2894C2.63478 55.9335 2.5562 55.5803 2.4542 55.2326C2.39217 54.9125 2.26123 54.5607 2.20334 54.2447C2.09031 53.6239 1.96854 53.0044 1.83805 52.3863C1.83805 52.378 1.82979 52.3711 1.82703 52.3642C1.82703 52.1614 1.82703 51.9614 1.80497 51.7599C1.79507 51.6345 1.74696 51.515 1.66713 51.4178C1.64876 51.198 1.61931 50.9793 1.57891 50.7624C1.51092 50.4548 1.42579 50.1513 1.32391 49.8532C1.30874 49.8035 1.29083 49.7539 1.27567 49.7042C1.22329 49.5483 1.17091 49.3924 1.1199 49.2351C1.08269 49.1165 1.0496 48.9964 1.01514 48.8778C0.980683 48.7591 0.975175 48.617 0.951742 48.4942C0.871657 48.1718 0.771285 47.8548 0.65124 47.545C0.61678 47.407 0.579559 47.2622 0.54372 47.1215C0.535449 47.0704 0.518914 47.0194 0.514779 46.9683C0.342477 45.1113 0.270799 43.2432 0.101254 41.3875C-0.243349 37.6651 0.336968 34.0393 1.15712 30.4246ZM2.6527 33.5813C2.77538 33.8834 2.96146 34.2987 3.21233 34.3829C4.19789 34.7112 5.2069 35.023 6.23244 35.1569C7.05948 35.2645 7.49644 34.8216 7.45095 33.9828C7.41787 33.3647 7.24971 32.6376 6.87478 32.1768C5.87819 30.9516 4.73824 29.8451 3.41221 28.4323C2.92425 30.3432 1.94282 31.8291 2.6527 33.5813V33.5813ZM31.8916 5.31715C31.8267 4.69768 31.695 4.08706 31.4988 3.49598C31.474 3.42699 31.4354 3.35801 31.405 3.29454L31.3968 3.25177H31.3885C31.2916 3.02023 31.148 2.81121 30.9667 2.63782C30.9416 2.61831 30.9154 2.60034 30.8881 2.58401L30.9763 2.51502C30.8385 2.48329 30.72 2.45708 30.5987 2.43224C30.4823 2.39294 30.3603 2.37336 30.2375 2.3743C29.5483 2.28738 29.0218 2.39499 28.6248 2.89582C28.5145 3.03378 28.6606 3.3856 28.7902 3.86159C28.8729 4.53625 29.1417 5.17367 29.4601 5.79314C29.6503 6.2581 29.8653 6.71615 30.0831 7.17282C30.7048 10.1516 31.3127 13.1054 32.0322 16.0221C32.3809 17.4321 33.095 18.7814 33.798 20.0645C34.1481 20.6951 34.7877 21.2469 35.408 21.6608C36.8415 22.6418 38.5783 21.843 38.9229 20.1432C39.1242 19.1581 38.876 18.2737 38.395 17.4583C37.7251 16.3242 37.0689 15.1639 36.2557 14.1347C34.2248 11.561 32.7445 8.59677 31.9068 5.42615C31.9026 5.39028 31.8971 5.35303 31.8916 5.31715ZM34.6305 1.95625L32.8799 2.15769C32.6293 3.15252 32.656 4.19711 32.9571 5.17781C33.9055 8.31934 35.2673 11.2167 37.3598 13.7967C38.3839 15.0605 39.1958 16.556 39.8409 18.053C40.792 20.248 39.8409 22.2306 37.7388 23.0198C36.7216 23.4034 35.7264 23.3772 34.942 22.6694C34.0599 21.8706 33.1501 21 32.5781 19.9804C31.5827 18.1972 30.9055 16.2541 30.5766 14.2382C30.2086 12.0693 29.722 9.92115 29.2699 7.76747C29.2312 7.5979 29.1815 7.43106 29.121 7.26802C29.1274 7.17853 29.1147 7.0887 29.0838 7.0045C28.9975 6.76541 28.8966 6.53181 28.7819 6.305C28.6263 5.93292 28.4313 5.57862 28.2002 5.24817C28.0624 4.76942 27.6172 4.23824 26.8397 3.4877C26.6544 3.53138 26.4755 3.59909 26.3077 3.68913C26.0996 3.85348 25.905 4.03434 25.726 4.22997C25.9617 4.69354 26.1905 5.14055 26.4152 5.58343C26.4744 6.1353 26.6909 6.68718 26.9128 7.20042C27.2698 8.0434 27.5703 8.80084 27.7192 9.70867C27.7784 10.0633 27.8253 10.4192 27.8804 10.7738C27.8267 13.3662 27.6916 15.9559 27.6047 18.5469C27.4669 22.6763 29.0493 26.0772 32.3837 28.4337C33.8076 29.4409 35.9566 29.9513 37.8202 29.296C38.3316 29.3413 38.8468 29.285 39.3364 29.1304C39.8204 28.9787 40.2726 28.7398 40.6707 28.4254C40.8803 28.2617 41.0788 28.0843 41.2648 27.8942C42.0643 27.5466 42.6019 26.9174 43.1312 25.7516C45.0748 21.4635 44.0024 17.5687 41.5336 13.9057C40.3041 12.0817 38.8623 10.404 37.6093 8.59665C36.7941 7.421 36.0736 6.18228 35.4548 4.89221C35.073 4.07682 34.9503 3.12898 34.6305 1.95625ZM36.2336 1.67204C36.0486 2.05383 36.0151 2.49166 36.1399 2.8972C36.3921 4.31275 37.0455 5.57101 37.794 6.78651L37.9318 7.00726C38.3702 7.88259 38.8908 8.71415 39.4867 9.49068C39.7624 9.91976 40.038 10.3516 40.3137 10.7738C41.2607 12.1824 42.2849 13.5511 43.1395 15.0204C43.6068 15.8248 44.0492 16.6416 44.4945 17.4583C45.7681 20.6675 45.5572 23.8049 43.9017 26.854C43.309 27.9453 42.4985 28.7952 41.32 29.3056C39.4875 30.1148 37.5531 30.6695 35.5706 30.9544C35.2136 30.8743 34.8593 30.7791 34.5065 30.6784L34.483 30.6701C34.3962 30.6412 34.308 30.6122 34.2211 30.5805C34.0474 30.5198 33.8751 30.4549 33.7042 30.3873C32.9841 30.0925 32.287 29.7443 31.6187 29.3457V29.3457L31.5636 29.3098C30.2706 28.2212 29.3016 26.8264 28.2085 25.5212C27.2326 24.3554 27.1967 23.0516 26.8011 21.796C26.3876 20.4688 26.4469 19.114 26.6633 17.7205C26.9969 15.6054 27.1127 13.4821 26.7722 11.316C26.5158 9.6866 26.5323 8.02271 25.6777 6.53955C25.4875 6.20705 25.2849 5.88144 25.0795 5.5586C24.7735 5.07709 24.3724 4.92119 23.8114 5.12952C21.6748 5.91731 19.5383 6.89275 18.022 8.51387C17.4134 9.15965 16.9858 9.95469 16.7823 10.8187C16.5787 11.6828 16.6065 12.5853 16.8628 13.4352C17.3411 15.0453 17.8373 16.654 18.379 18.4365C18.4562 18.9884 18.5169 19.5403 18.6147 20.0921C18.6328 20.1809 18.6563 20.2684 18.685 20.3543C18.685 20.3681 18.685 20.3791 18.685 20.3915C18.7021 20.6371 18.7371 20.881 18.7898 21.1214C18.7898 21.1724 18.8077 21.2221 18.8146 21.2718C18.8633 22.0961 18.9865 22.9144 19.1826 23.7166C20.397 28.8738 23.0849 32.9025 27.5027 35.7501C29.9205 37.3078 32.6111 38.0749 35.5127 37.7714C37.3529 37.5782 39.1807 37.2678 41.0126 37.0043C42.7425 36.7559 44.1154 35.8426 45.0913 34.4629C45.8715 33.3591 46.6779 32.2637 47.4263 31.1379C49.8592 27.4817 49.8896 23.5676 49.3341 19.492C48.9963 17.0196 48.1831 14.7017 47.3312 12.3618C46.449 9.93356 45.9845 7.3715 45.3463 4.87014C45.3091 4.73217 45.3311 4.54453 45.2705 4.42588C45.2386 4.10448 45.1716 3.78756 45.0706 3.4808V3.4808C45.0582 3.40216 45.0417 3.32352 45.0238 3.24625C45.0442 3.1446 45.0516 3.04074 45.0458 2.93721C45.0408 2.9102 45.0344 2.88349 45.0265 2.85718C45.1175 2.57349 45.2343 2.29871 45.3753 2.03627C42.1663 2.21563 39.2813 0.864927 36.2336 1.67204ZM66.8978 10.6151C67.0288 10.9421 67.0853 11.1353 67.1735 11.305C68.658 14.0643 70.1233 16.8237 71.6451 19.561C72.8994 21.8126 74.7837 23.5275 76.7245 25.1556C77.9279 26.1655 79.0995 27.2679 80.6337 27.9149C80.6585 24.4975 72.9614 14.4948 66.8978 10.6151ZM81.4346 30.3611C81.3587 29.9679 80.8474 29.5871 80.4504 29.3401C77.1491 27.2886 74.2255 24.7872 71.8546 21.7215C70.6554 20.1708 69.7994 18.351 68.8221 16.6333C67.8682 14.9597 66.9529 13.2627 66.0253 11.5726C65.1858 10.0412 64.0955 8.77325 62.451 8.0572C61.3097 7.56051 60.1946 7.01002 58.9044 6.40158C58.7527 8.94717 58.985 11.5011 59.5936 13.9774C60.8376 19.1935 63.1177 24.1057 66.2982 28.4213C68.9475 32.0374 72.3632 34.7678 76.6101 36.3641C77.331 36.64 78.0244 36.9808 78.748 37.2457C79.9376 37.6831 81.0913 38.5012 82.5304 37.2912C82.6586 35.1541 81.9005 32.7742 81.4346 30.3611ZM82.4918 39.9333C82.121 39.7264 81.6882 39.3414 81.1961 39.2352C78.9217 38.744 76.8748 37.6858 74.7879 36.7366C73.3695 36.0923 71.8408 35.5294 70.6609 34.5636C68.8896 33.1136 67.3389 31.3807 65.7772 29.6906C64.7654 28.5965 63.7978 27.5245 63.2877 25.9654C62.6426 24.0049 61.6019 22.1244 60.4468 20.3998C59.6804 19.2561 59.4433 18.0544 59.1263 16.8126C58.3627 13.8201 57.6693 10.8235 57.6886 7.70676C57.6886 7.11626 57.4984 6.52437 57.3702 5.79176L57.3316 5.78211C57.3213 5.70352 57.3042 5.62597 57.2806 5.55032C57.2043 5.26109 57.0389 5.00328 56.8078 4.81357C56.7593 4.73815 56.696 4.67337 56.6217 4.62317H56.6796C56.4949 4.54039 56.3047 4.47279 56.1172 4.39691C54.7211 3.83389 53.2808 3.38765 51.8111 3.06276C51.5858 2.97316 51.3557 2.89624 51.1219 2.83235C51.0424 2.78603 50.9542 2.75672 50.8629 2.74627C50.7715 2.73582 50.679 2.74446 50.5912 2.77164C50.5801 2.77164 50.5719 2.78544 50.5608 2.78958H50.5512C50.4028 2.85432 50.284 2.97247 50.2184 3.12064C50.1528 3.26882 50.1451 3.43624 50.1969 3.58979C50.2369 3.69879 50.2755 3.80778 50.3169 3.91678C50.3162 3.92366 50.3162 3.93059 50.3169 3.93747C50.3499 4.25756 50.3872 4.57765 50.4409 4.89359C50.4856 5.23174 50.5688 5.56366 50.689 5.88282C50.689 5.97664 50.6987 6.07322 50.7042 6.16704C50.7731 7.37426 50.8724 8.5801 50.9179 9.78732C51.0323 12.8336 51.4885 15.822 52.481 18.7056C52.9207 20.0052 53.5244 21.2469 54.0303 22.5135C54.1489 22.8115 54.1364 23.1592 54.2247 23.4724C54.4342 24.2063 54.5196 25.0286 54.9139 25.6467C56.3929 27.9453 57.69 30.3611 59.4626 32.4803C62.3573 35.9557 65.416 39.2876 68.9572 42.0967C70.2556 43.1259 71.9676 43.6571 73.5349 44.3124C75.1559 44.9898 76.8182 45.5762 78.4847 46.1405C80.0548 46.6717 80.0672 46.6358 81.764 46.1281C81.9928 44.1593 82.2299 42.1518 82.4918 39.9333ZM48.1238 82.0536C48.6586 81.9625 49.1893 81.8425 49.7255 81.7859C51.5492 81.5955 53.3811 81.401 55.213 81.263C56.1713 81.1767 57.116 80.9776 58.0277 80.6697C58.1235 80.6575 58.2167 80.6295 58.3034 80.587C58.2869 80.5966 58.2841 80.598 58.3199 80.587H58.331L58.3489 80.5787C59.1883 80.2917 60.014 79.9482 60.8438 79.6046C60.8921 79.595 60.9417 79.5964 60.9913 79.5839C61.1261 79.5448 61.2516 79.4791 61.3607 79.3908L61.6088 79.2887L61.4489 79.3246C61.5355 79.2479 61.6049 79.1539 61.6529 79.0486C61.6588 79.0334 61.6634 79.0177 61.6667 79.0017C61.7765 78.8965 61.8462 78.7563 61.8638 78.6052C61.8814 78.4541 61.8458 78.3016 61.7632 78.1739C61.7632 78.1629 61.7632 78.1518 61.7563 78.1394C61.7494 78.127 61.7563 78.1394 61.7563 78.1284C61.7563 78.1173 61.7563 78.1132 61.7563 78.1049L61.7398 78.0635V78.0525C61.7122 77.9987 61.6846 77.9449 61.6557 77.8911C61.6525 77.8843 61.6489 77.8779 61.6447 77.8717C61.6367 77.8579 61.628 77.8445 61.6185 77.8317C61.6185 77.8317 61.6075 77.8317 61.6047 77.8207C60.247 75.082 58.1876 72.9146 56.091 70.8464C55.0435 69.813 53.49 69.2363 52.0936 68.6389C50.066 67.7739 47.946 67.1047 45.6978 67.3089C43.3821 67.52 41.2869 68.2664 39.9484 70.3442C38.7644 72.1751 39.1393 74.1052 40.9257 75.3952C41.8162 76.0395 42.7287 76.6563 43.6481 77.2564C45.3325 78.3602 46.8185 79.6391 47.6965 81.5003C47.7627 81.6769 47.9405 81.8287 48.1238 82.0536ZM38.6638 81.8811C34.8731 75.6725 28.7847 72.8897 19.2392 76.39C25.5275 79.8488 31.7427 82.1557 38.6638 81.8811ZM10.3181 68.7617C11.4566 70.7071 12.8075 72.4869 14.8034 73.6444C14.8228 73.6534 14.8442 73.6572 14.8654 73.6554C15.1225 73.8952 15.3992 74.113 15.6925 74.3067C16.2797 74.773 16.9468 75.1055 17.6471 75.1138C17.7008 75.1138 17.7546 75.1262 17.8097 75.122C17.8541 75.1156 17.8976 75.104 17.9393 75.0876L17.9503 75.0972C20.4852 74.6433 22.9457 73.9755 25.4393 73.8114C29.0052 73.574 32.5395 74.1521 35.4066 76.4741C37.1434 77.8814 38.5935 79.6667 40.0504 81.3872C40.6115 82.0508 41.1711 82.3847 41.9802 82.3888C43.4069 82.3971 44.8335 82.3888 46.2836 82.3888C46.6972 81.6079 46.2409 81.0285 45.7819 80.6201C44.551 79.5315 43.2553 78.5161 41.9499 77.5158C40.6445 76.5155 39.2344 75.638 38.3412 74.1756C37.8753 73.4126 37.8078 72.7062 38.0655 71.8301C39.0649 68.352 41.9499 66.3859 45.9321 66.1859C47.3988 66.1127 48.8461 66.1859 50.2273 66.8454C51.4155 67.4138 52.7084 67.7794 53.8746 68.3754C54.8946 68.8956 55.9766 69.4598 56.743 70.2752C58.1931 71.8205 59.4999 73.4968 60.8466 75.1455C60.8532 75.1659 60.8615 75.1858 60.8714 75.2048C61.1926 75.6615 61.5606 76.0878 61.8887 76.5348C61.9576 76.6273 62.0182 76.7266 62.0844 76.8204C62.1781 77.0012 62.2691 77.1847 62.3725 77.3599C62.4331 77.4634 62.5103 77.5572 62.5723 77.6538C62.5916 77.7076 62.6151 77.7586 62.6302 77.8124C62.6584 77.9005 62.7072 77.9806 62.7727 78.0459C62.8382 78.1112 62.9184 78.1599 63.0065 78.1877C63.0231 78.207 63.0382 78.2277 63.0562 78.2456C63.0933 78.2772 63.1358 78.302 63.1816 78.3188L63.1251 78.4333C63.1857 78.4112 63.2367 78.3836 63.296 78.3615C63.3411 78.3742 63.3872 78.3825 63.4338 78.3864C63.5747 78.3939 63.7141 78.3551 63.8308 78.276C64.0812 78.113 64.3231 77.9376 64.5559 77.7503C66.0528 76.8742 67.1432 75.6739 68.3038 74.4584C68.341 74.4322 68.3837 74.4088 68.4182 74.3825C68.5804 74.2561 68.7251 74.1086 68.8483 73.9438L68.9103 73.879H68.9006C68.9282 73.8403 68.9572 73.8044 68.9833 73.7658L69.0288 73.7189H69.0082C69.0631 73.5804 69.0679 73.4269 69.0215 73.2853C68.9752 73.1436 68.8807 73.0227 68.7545 72.9435C68.7454 72.9374 68.735 72.9332 68.7242 72.9311L68.6773 72.8801C68.6484 72.8359 68.6208 72.7931 68.5919 72.7518C68.4516 72.5536 68.325 72.3462 68.2128 72.1309C68.075 71.8743 67.9289 71.6177 67.769 71.3707C67.7127 71.2841 67.651 71.2012 67.5843 71.1224C66.0473 68.1298 63.5 66.1183 60.5778 64.6241C55.2557 61.9033 49.5725 61.1556 43.7294 62.3793C41.8203 62.7794 39.9608 63.621 38.2047 64.5096C33.3955 66.9419 28.4663 67.4207 23.3455 65.7609C21.2392 65.0711 19.1247 64.5565 16.8821 64.5827C14.6766 64.6089 12.7771 65.1911 11.3188 67.1558L11.3656 67.2179C11.3588 67.2248 11.3519 67.2275 11.3436 67.2344C11.3353 67.2413 11.3009 67.2841 11.2788 67.3089C11.1486 67.4181 11.0308 67.5411 10.9273 67.6759V67.6759C10.3346 67.8442 10.0093 68.2347 10.3181 68.7617ZM3.67411 53.984C4.16896 57.7546 5.60387 61.1914 7.44957 64.4695C7.97612 65.4091 8.72737 66.2231 9.46758 67.2192L10.5 66.2245C13.5105 63.0747 17.1853 63.0181 21.0655 63.966C21.9739 64.1881 22.8658 64.482 23.7576 64.7648C28.6041 66.2976 33.2962 65.8685 37.8284 63.621C40.7548 62.1682 43.7556 60.892 47.0638 60.8051C54.1034 60.6202 60.6508 62.0703 65.9109 67.1654C66.8592 68.0843 67.565 69.2557 68.352 70.3387C68.4568 70.5194 68.5712 70.6933 68.6787 70.8713C68.6787 70.8713 68.6787 70.8713 68.6787 70.8809C68.6889 70.9649 68.7218 71.0446 68.7738 71.1113L68.7063 70.983L68.7738 71.1141L68.7849 71.1348L68.7725 71.1127C68.8469 71.2617 68.9186 71.4121 69.0013 71.5556C69.0645 71.655 69.1379 71.7475 69.2204 71.8315L69.2576 71.9019C69.2576 71.9088 69.2728 71.9115 69.2783 71.9184C69.3541 72.2592 69.7801 72.5503 70.1136 72.3806C71.4904 71.6701 72.7028 70.6784 73.6727 69.4695C74.0055 69.0559 74.3025 68.6146 74.5604 68.1505C74.6581 68.0809 74.7449 67.9972 74.8182 67.9022C74.9569 67.7163 75.0576 67.5049 75.1145 67.28C75.1345 67.2008 75.1474 67.12 75.1531 67.0385C75.4288 66.5377 75.5667 65.9941 75.3971 65.5071C75.3971 65.4602 75.3971 65.4105 75.3819 65.3622C75.535 64.8614 75.2441 64.482 74.4336 63.7176C71.0978 60.5968 67.7207 57.5091 63.4407 55.6644C61.3152 54.7435 59.0548 54.1727 56.7472 53.9743C55.9256 53.9172 55.1002 53.9823 54.2977 54.1675C48.6959 55.3926 43.3076 57.2952 37.9718 59.3661C32.964 61.3087 27.8308 61.3432 22.7514 59.8311C21.0077 59.3123 19.4018 58.1754 17.8745 57.1117C15.0145 55.1261 11.7485 53.8031 8.31384 53.239C7.55985 53.1106 6.78381 53.0844 5.92781 53.0251C5.84984 53.0033 5.76832 52.9972 5.68797 53.0072L5.57631 52.9989C5.57631 53.0072 5.57631 53.0154 5.57631 53.0223C5.57631 53.0292 5.55564 53.0223 5.54737 53.0223H5.52945C5.41716 53.0382 5.30366 53.0437 5.19036 53.0389C4.84714 53.0168 4.50115 52.9809 4.16895 53.0941C4.01767 53.151 3.89289 53.2621 3.81883 53.4059C3.67548 53.5314 3.63965 53.7205 3.67411 53.984ZM3.16685 51.5999L3.48801 51.7116C3.56821 51.7761 3.6628 51.8201 3.76369 51.84L3.92773 51.8469C3.96672 51.8402 4.00469 51.8286 4.04075 51.8124H4.11519C4.13539 51.8137 4.15564 51.8137 4.17584 51.8124C4.18498 51.8137 4.19427 51.8137 4.20342 51.8124L4.2944 51.793C4.48869 51.8108 4.68397 51.8149 4.87884 51.8055C5.24274 51.7889 5.60663 51.7254 5.97053 51.7241C5.98432 51.7241 5.99397 51.7144 6.00775 51.7144C11.0459 52.1656 15.5298 54.0143 19.6044 56.9875C22.0415 58.7659 24.8424 59.4034 27.8239 59.5758C30.5945 59.7372 33.3307 59.6765 35.9786 58.8487C38.2351 58.1437 40.4047 57.1586 42.657 56.4384C46.5276 55.1967 50.3899 53.8805 54.3446 52.9892C56.0828 52.5988 58.087 52.9672 59.8858 53.3686C63.817 54.242 67.2631 56.1694 70.3232 58.8018C71.4259 59.752 72.5374 60.6911 73.6575 61.6191C74.4846 62.4111 75.3434 63.1713 75.9581 64.1439C76.2338 64.5827 76.8472 64.4475 77.0609 64.0446C77.4151 63.3906 77.6591 62.6829 78.0823 62.0703C78.366 61.685 78.6208 61.2792 78.8445 60.8562C79.349 60.5057 79.2925 59.9608 79.0954 59.3744C78.952 58.9585 78.7354 58.5716 78.4558 58.232C75.507 54.66 72.1543 51.4423 68.4651 48.6432C63.1251 44.6063 56.9512 43.0017 50.332 43.1576C48.8902 43.1921 47.3822 43.6198 46.0465 44.1951C43.5654 45.2644 41.3682 46.84 39.1324 48.3576C37.1365 49.7111 35.0275 50.9625 32.8248 51.9296C30.3795 53.0016 27.693 52.9768 25.0395 52.8954C19.8277 52.7436 15.4416 50.3044 11.01 47.9479C9.16708 46.9697 7.26074 46.1129 5.37369 45.2216C5.098 45.0837 4.75753 45.0699 4.33436 44.9733C4.33362 44.9792 4.33362 44.9853 4.33436 44.9912C4.19265 44.948 4.04553 44.9253 3.89741 44.9236C3.81158 44.9248 3.7261 44.935 3.64239 44.954C3.64308 44.9476 3.64308 44.9411 3.64239 44.9347L1.94005 44.7898C2.36598 47.1532 2.76435 49.3745 3.16685 51.5999ZM1.75811 43.1838C5.66316 43.2873 8.63226 45.4865 11.7999 47.1421C14.6849 48.6488 17.5423 50.1954 20.7044 51.0397C24.2676 51.9931 27.9356 52.2815 31.445 51.1598C33.7084 50.4368 35.7622 49.0047 37.8491 47.7865C40.078 46.4854 42.1815 44.9636 44.4379 43.7164C47.1341 42.2263 50.1156 41.4385 53.1647 41.9228C57.9891 42.6954 62.7736 43.6474 66.9709 46.5227C71.351 49.4941 75.3059 53.0497 78.726 57.091C79.0017 57.4152 79.3394 57.6829 79.8039 58.1258C80.7343 54.7938 81.5379 51.6413 81.6206 48.29C80.817 48.0293 80.154 47.7796 79.4717 47.6002C76.4957 46.8083 73.7706 45.3555 70.8787 44.3359C69.2866 43.7743 67.8779 42.7962 66.6152 41.5765C63.358 38.4419 60.2277 35.2093 57.475 31.607C55.5336 29.0875 53.9906 26.2844 52.9 23.2958C51.84 20.347 50.9653 17.3348 50.281 14.2768C50.0053 13.1027 49.9144 11.8817 49.8165 10.6758C49.6663 8.8243 49.5932 6.96587 49.4664 5.11158C49.4664 5.09503 49.4733 5.07847 49.4664 5.06053C49.3644 4.17478 49.4374 3.17037 48.893 2.40741C48.8001 2.27964 48.6635 2.1905 48.5093 2.15692C48.355 2.12334 48.1938 2.14767 48.0563 2.22529C47.92 2.19801 47.7817 2.18232 47.6427 2.17838C47.5748 2.17583 47.5069 2.18092 47.4401 2.19356L47.3271 2.21701C47.2595 2.22529 47.1892 2.24737 47.1272 2.26116C46.6806 2.10526 46.3911 2.21425 46.3208 2.90271V2.90961C46.3011 2.945 46.2854 2.98248 46.274 3.02137C46.0796 3.97059 46.2602 4.99983 46.5069 5.96698C46.4978 6.00584 46.4941 6.04576 46.4959 6.08564C46.6613 7.13143 47.1176 8.07927 47.3767 9.09885C47.5959 9.9584 47.7434 10.8124 48.1376 11.603C48.2105 11.8342 48.3104 12.0561 48.4353 12.2638C49.9626 14.7624 50.2562 17.6446 50.7001 20.4564C51.4996 25.506 50.3982 30.0755 46.9784 33.9869C46.58 34.4422 46.2271 34.9403 45.8232 35.39C44.7675 36.5958 43.4116 37.5003 41.8934 38.0114C38.3481 39.2242 34.7821 39.4628 31.1652 38.5412C29.244 38.0433 27.4398 37.1713 25.8555 35.975C22.9457 33.8158 20.7775 31.1199 19.377 27.788C19.3325 27.6846 19.2823 27.5837 19.2267 27.4858C19.01 26.3826 18.71 25.2973 18.3294 24.2395C18.1116 23.3675 17.9007 22.4928 17.6857 21.6181C17.5646 20.9013 17.3961 20.1933 17.1812 19.4989C16.8324 17.7936 16.6215 16.0083 15.8841 14.4396C15.6803 13.472 15.3445 12.537 14.8861 11.6609C13.7558 12.0831 13.1355 13.0213 12.4243 13.8091C11.4594 14.8701 10.6323 16.04 9.70053 17.1203C8.53026 18.4848 8.18427 20.0259 8.63088 21.7436C9.3959 24.681 10.7247 27.3713 12.9894 29.3788C13.1538 29.5303 13.3055 29.695 13.4429 29.8713C13.4567 29.8906 13.4732 29.9086 13.487 29.9265C13.822 30.3514 14.1418 30.8136 14.5663 31.1365C14.8485 31.438 15.1607 31.7099 15.4981 31.9477C15.676 32.1367 15.8607 32.3216 16.0495 32.5093C16.5802 33.046 17.1054 33.5799 17.676 34.0683C18.3225 34.8921 18.9182 35.7546 19.4597 36.6511C20.4315 38.3067 19.4597 40.5445 17.5161 41.6731C15.2431 42.9893 12.751 43.3287 10.1775 43.0183C7.76446 42.7319 5.43017 41.9784 3.30469 40.7998C2.83327 40.539 2.34944 40.3003 1.74845 39.9871L1.75811 43.1838ZM1.83943 38.119C2.10133 38.5426 2.50658 39.1883 3.04416 39.4077C3.34029 39.5868 3.64685 39.748 3.96219 39.8906C4.3068 40.0561 4.63072 40.2603 4.97808 40.4203C5.2887 40.5721 5.62296 40.6697 5.96641 40.7087C7.65359 41.1804 9.36481 41.5613 11.0927 41.8497C12.9426 42.1546 14.7014 41.5186 16.3748 40.8508C18.5596 39.9802 19.184 37.7038 17.7215 35.8495C16.6863 34.5638 15.5254 33.3848 14.2562 32.3299C11.152 29.6975 8.92999 26.5159 7.77763 22.599C7.62325 22.0747 7.43303 21.5615 7.15597 20.7282C6.19108 22.5218 5.33095 24.0491 4.53698 25.6178C3.81056 27.0609 4.6445 28.1495 5.51015 29.1718C6.21257 30.0157 6.96129 30.8199 7.75283 31.5807C8.46409 32.2526 8.66534 33.068 8.65707 33.969C8.64466 35.4576 7.79005 36.2772 6.27517 36.302C5.93609 36.302 5.7114 36.3144 5.53497 36.3351C5.32958 36.2937 5.12143 36.2675 4.93534 36.2413C4.81542 36.2247 4.6955 36.2109 4.57696 36.1889C4.53285 36.1889 4.48874 36.1723 4.43912 36.1613C4.3895 36.1502 4.35503 36.1364 4.41982 36.1613L4.24614 36.1047C3.97872 36.0178 3.7127 35.9226 3.44805 35.8288C3.04831 35.5956 2.60997 35.4149 2.12339 35.1872C1.37491 36.1364 1.35285 37.3312 1.83667 38.1149L1.83943 38.119Z" fill="url(#paint0_linear_108_894)"/>
<defs>
<linearGradient id="paint0_linear_108_894" x1="42" y1="0" x2="42" y2="84" gradientUnits="userSpaceOnUse">
<stop stop-color="white"/>
<stop offset="1" stop-color="white" stop-opacity="0"/>
</linearGradient>
</defs>
</svg>
