<svg width="285" height="63" viewBox="0 0 285 63" fill="none" xmlns="http://www.w3.org/2000/svg">
<g clip-path="url(#clip0_571_4384)">
<path d="M38.5877 70.9273C37.6063 70.0166 36.7681 69.0461 36.2323 67.8559C35.98 67.3003 35.4864 66.8046 35.0074 66.361C34.1987 65.6135 33.2958 64.945 32.4664 64.2141C30.69 62.6515 28.9254 61.0764 27.1725 59.4889C26.1293 58.5488 25.0202 57.652 24.0938 56.6241C22.0985 54.4174 19.6399 52.8912 16.5955 52.0014C15.4521 51.6689 14.6601 51.9068 13.8161 52.5023C13.3342 52.8426 12.7836 53.11 12.2458 53.386C11.1662 53.9451 10.0562 54.4686 8.98442 55.0416C7.71443 55.7213 6.49643 56.4792 5.20779 57.125C2.90336 58.2866 0.379084 59.1217 -1.61423 60.7451C-1.63877 60.7651 -1.74083 60.7095 -1.87627 60.6687C-1.49841 59.949 -0.85655 59.4629 -0.136169 59.0705C0.897292 58.5071 1.96021 57.9853 3.02214 57.4653C4.35788 56.8116 5.727 56.2074 7.04115 55.5225C7.74485 55.1553 8.33666 54.6222 9.02858 54.2333C10.7383 53.2715 12.6462 52.6195 14.2803 51.5248C14.9545 51.0734 15.5336 50.6246 15.9291 49.9552C16.4316 49.1019 17.1873 48.4048 18.2542 48.1652C20.433 47.6764 22.2781 46.7015 24.0299 45.4862C24.7493 44.9861 25.666 44.6988 26.515 44.3576C26.9753 44.1736 27.4964 44.1041 27.9656 43.9392C28.1834 43.8619 28.3581 43.6787 28.7124 43.4261C27.838 43.3645 27.1637 43.407 26.5532 43.2525C25.2322 42.9269 23.9338 42.5267 22.6442 42.1118C21.1308 41.6248 19.6203 41.1629 17.995 41.0535C17.413 41.0145 16.8428 40.8582 16.2648 40.7714C15.0134 40.5848 13.7513 40.2401 12.5353 40.8851C10.7324 41.8401 8.74887 42.4191 6.79677 43.0624C6.57398 43.1049 6.35218 43.1492 6.1343 43.2047C6.02424 43.2346 5.91639 43.2706 5.8114 43.3124C5.04194 43.3862 4.27053 43.4469 3.505 43.552C3.27044 43.5841 3.03391 43.6206 2.79738 43.6614C2.22815 43.6952 1.66676 43.7412 1.10439 43.7742C0.129816 43.8307 -0.841815 44.3298 -2.03623 43.7742C-1.67997 43.6067 -1.47975 43.4478 -1.25108 43.4174C0.724571 43.1492 2.69727 42.841 4.6847 42.6752C5.77792 42.5919 6.8328 42.2788 7.76152 41.7619C8.28463 41.4737 8.87351 41.2723 9.44864 41.0674C10.0238 40.8626 10.6264 40.6941 11.2241 40.5275C11.6912 40.3964 11.8924 40.1429 11.9582 39.7028C12.0799 38.8798 12.2075 38.0464 12.4754 37.2555C13.6531 33.79 15.3412 30.5198 17.3758 27.3859C19.8441 23.587 23.0397 20.276 26.2657 16.9832C27.9283 15.2869 29.9549 13.9873 32.0376 12.752C33.2722 12.0193 34.551 11.3413 35.8446 10.6937C36.5854 10.3112 37.3721 10.0032 38.1902 9.77522C39.6065 9.40106 41.0541 9.10937 42.5017 8.83678C43.2084 8.70309 43.9543 8.73608 44.6609 8.6128C46.8063 8.24125 48.9331 7.77767 51.0864 7.44605C53.7462 7.03543 56.4235 6.71249 59.097 6.37132C59.8705 6.25762 60.6527 6.19552 61.4368 6.18555C63.8648 6.20291 66.2929 6.25673 68.7201 6.32357C69.2296 6.33854 69.7341 6.41716 70.2187 6.5571C72.6331 7.2568 75.071 7.90789 77.4353 8.7274C80.3129 9.72139 83.2366 10.6303 85.9218 12.0262C88.2253 13.2269 90.409 14.5499 92.2855 16.2462C92.657 16.6031 93.0502 16.9418 93.4632 17.261C96.3094 19.3289 98.6129 21.8065 100.668 24.4864C102.616 27.0256 104.087 29.7819 105.368 32.6146C105.957 33.9289 106.432 35.2927 106.87 36.6557C107.177 37.6106 107.335 38.6063 107.541 39.5005C108.275 39.8364 108.894 40.2401 109.584 40.4111C111.245 40.8235 112.668 41.6143 114.056 42.4556C115.766 43.4973 117.412 44.612 119.097 45.6824C120.22 46.3968 121.478 46.6911 122.866 46.6043C123.883 46.5409 124.905 46.5557 125.923 46.5097C126.859 46.4663 127.793 46.3916 128.728 46.3248C129.234 46.2883 129.737 46.2145 130.244 46.1998C132.424 46.1338 134.492 45.6398 136.509 44.9488C138.08 44.4123 139.607 43.7829 141.206 43.3393C142.535 42.9712 143.691 42.2733 145.152 42.117C147.826 41.8314 150.396 42.0302 152.891 42.854C154.058 43.2403 155.097 43.9565 156.281 44.2639C158.108 44.7387 159.773 45.4792 161.438 46.2501C161.841 46.4376 162.332 46.6147 162.765 46.5861C164.125 46.4993 165.407 46.8352 166.657 47.1582C168.11 47.5332 169.485 48.1417 170.887 48.6617C172.731 49.3432 174.581 50.0099 176.403 50.7339C177.953 51.3494 179.502 51.662 181.159 51.1038C182.693 50.5829 184.214 50.029 185.772 49.595C187.786 49.0359 189.842 48.5949 191.872 48.0784C193.977 47.5419 196.113 47.0722 198.162 46.3977C200.615 45.5912 203 44.6154 205.399 43.6813C206.871 43.1101 208.369 42.5771 209.738 41.8522C211.394 40.9763 213.164 40.5301 215.024 40.2175C215.908 40.0657 216.774 39.8429 217.612 39.5517C218.387 39.2852 219.138 39.3008 219.913 39.4449C221.824 39.8009 223.733 40.1681 225.643 40.5283C227.654 40.9068 229.559 41.505 231.227 42.6066C232.583 43.5042 234.039 44.2378 235.653 44.7179C236.913 45.092 238.187 45.4471 239.4 45.9202C240.188 46.2302 241.054 46.35 241.911 46.2675C244.151 46.0834 246.25 45.4619 248.31 44.7049C249.754 44.1744 251.179 43.5911 252.651 43.1249C254.018 42.6908 255.301 42.1639 256.468 41.3886C257.351 40.8044 258.398 40.6134 259.458 41.0414C262.127 42.1291 264.764 43.2664 266.899 45.1216C267.326 45.4803 267.785 45.8067 268.273 46.0973C270.459 47.4455 272.637 48.8041 274.855 50.1089C277.038 51.3937 279.252 52.6395 281.48 53.8626C282.911 54.6439 284.388 55.3688 285.856 56.1007C286.193 56.2682 286.445 56.4184 286.215 56.9332C285.653 56.7049 285.122 56.5226 284.626 56.2821C283.527 55.7508 282.447 55.1883 281.356 54.6439C280.913 54.4234 280.443 54.2429 280.016 54.0024C277.771 52.7402 275.502 51.5126 273.307 50.1827C271.148 48.8675 269.013 47.5045 266.979 46.0435C265.579 45.0382 264.241 43.9895 262.616 43.2603C261.371 42.7012 260.149 42.1109 258.507 41.9347C258.776 42.5424 258.949 43.0303 259.194 43.4834C260.634 46.139 262.031 48.8154 263.564 51.4293C264.39 52.8365 265.397 54.17 266.428 55.4704C267.834 57.2396 269.195 59.0297 269.801 61.1453C270.21 62.5955 270.912 63.9684 271.873 65.1977C273.376 67.1075 274.26 69.2483 275.145 71.3943C275.451 72.1331 275.698 72.9396 275.703 73.7165C275.713 75.4172 276.025 77.0223 276.972 78.5146C277.085 78.6934 277.274 78.8966 277.251 79.0685C277.186 79.5407 277.536 79.6814 277.897 79.8159C279.337 80.3516 280.77 80.9045 282.231 81.3907C283.403 81.7813 284.611 82.0852 285.804 82.4324C286.109 82.5193 286.375 82.6304 286.283 83.0488C286.126 83.0341 285.971 83.0083 285.819 82.9715C282.962 82.0418 279.893 81.6129 277.263 80.1423C277.135 80.0694 276.961 80.0625 276.826 79.9974C274.666 78.9713 272.311 78.3644 270.358 76.8982C268.28 75.3356 265.882 74.0959 263.555 72.8128C261.628 71.7502 259.605 70.8231 257.618 69.8499C255.08 68.6076 252.572 67.3098 249.976 66.1691C248.406 65.4746 246.981 64.6716 245.795 63.5318C245.185 62.9458 244.539 62.3867 243.95 61.7834C242.105 59.8961 240.248 58.0166 238.454 56.0911C236.536 54.0319 234.688 51.9241 232.803 49.8407C232.264 49.246 231.793 48.5671 231.134 48.1044C228.654 46.3569 226.596 44.2751 224.861 41.9547C224.098 40.9338 223.055 40.7549 221.852 40.6525C221.875 40.7697 221.861 40.8547 221.902 40.8955C223.216 42.1691 223.932 43.6735 224.121 45.3811C224.396 47.8431 225.362 50.069 226.857 52.1525C227.458 52.9893 228.266 53.7454 228.436 54.7967C228.642 56.0529 229.407 57.0677 230.371 57.948C231.79 59.2432 233.273 60.4829 234.732 61.7434C234.927 61.9141 235.137 62.0714 235.359 62.214C236.793 63.1168 238.264 63.9788 239.666 64.919C241.452 66.1161 243.118 67.4166 244.181 69.231C244.942 70.5612 245.779 71.8563 246.688 73.1114C247.822 74.6489 249.051 76.1342 250.304 77.5988C250.862 78.2516 251.482 78.9443 252.246 79.361C253.541 80.0642 254.965 80.586 256.359 81.1372C257.501 81.5904 258.708 81.9185 259.832 82.4047C261.206 82.995 262.528 83.6686 263.849 84.3423C265.68 85.2755 267.564 86.1246 269.205 87.3434C272.058 89.4625 275.2 91.1024 278.977 91.5894C280.323 91.763 281.529 92.3108 282.608 92.9975C283.605 93.6355 284.467 94.383 285.814 94.3639C286.278 94.3578 286.489 94.6642 286.256 95.1651C284.96 95.0922 283.638 95.0506 282.325 94.9377C277.162 94.4915 272.079 93.5661 267.078 92.4262C261.68 91.197 256.215 90.3254 250.786 89.2611C249.374 88.9841 247.947 88.7029 246.511 88.5891C243.117 88.32 239.712 88.1551 236.314 87.9381C233.075 87.7288 229.823 87.5465 226.586 87.2696C223.968 87.0531 221.328 87.1765 218.751 87.636C214.374 88.399 209.96 88.5492 205.53 88.5345C200.747 88.5171 195.965 88.3982 191.183 88.3513C188.36 88.3235 185.538 88.3791 182.716 88.3426C179.834 88.3053 177.033 87.8304 174.292 87.0335C173.176 86.7091 172.035 86.457 170.878 86.2791C168.515 85.9179 166.126 85.9509 163.733 85.9223C159.228 85.8693 154.724 85.6792 150.22 85.5403C147.578 85.4587 145.032 85.0628 142.579 84.1001C140.088 83.1071 137.371 82.6387 134.642 82.7319C133.999 82.6257 133.349 82.5593 132.696 82.5331C132.421 82.5044 132.144 82.4887 131.867 82.4863C131.813 82.4858 131.76 82.4956 131.711 82.5149C130.225 82.3804 128.724 82.3343 127.228 82.3239C122.797 82.2927 118.506 81.6077 114.316 80.3464C112.762 79.8784 111.186 79.4478 109.59 79.1162C106.192 78.4122 102.733 78.9634 99.3048 78.8271C99.1988 78.8228 99.0918 78.9278 98.9799 78.9391C97.4803 79.0971 96.0013 79.4027 94.4712 79.3341C93.0285 79.2699 91.5808 79.2308 90.1371 79.2621C86.5637 79.3376 83.0109 79.3107 79.4885 78.6344C77.081 78.1717 74.6519 77.7359 72.2071 77.5007C68.6886 77.1638 65.1702 77.4034 61.6625 77.8418C59.4552 78.1179 57.2254 78.3801 55.0024 78.4026C51.8706 78.4356 48.7368 78.2116 45.6021 78.1517C43.2143 78.1057 40.8244 78.117 38.4376 78.1517C36.3255 78.1839 34.2173 78.3974 32.1033 78.1899C31.4035 78.1205 30.6999 78.0754 29.9962 78.0502C28.786 78.0068 27.5739 77.9955 26.3648 77.9538C25.7396 77.9321 25.1154 77.8731 24.4912 77.8305C24.0624 76.9312 23.5873 77.7724 23.127 77.7759C22.2319 77.7828 21.3359 77.65 20.4389 77.5805C18.2208 77.4069 16.0145 77.0249 13.7729 77.3079C12.6099 77.4555 11.4459 77.5918 10.2829 77.742C6.44542 78.2264 2.5746 78.5233 -1.20004 79.355C-1.37768 79.394 -1.59264 79.3168 -1.78304 79.2933C-1.79874 79.2178 -1.81346 79.1423 -1.82818 79.0668C-1.4464 78.9409 -1.07542 78.7785 -0.681858 78.6969C1.71287 78.2004 4.0968 77.6491 6.5141 77.2585C8.61145 76.9181 10.7451 76.7376 12.869 76.5431C13.9171 76.4468 14.98 76.4763 16.0361 76.4433C19.0952 76.3461 22.1505 76.3669 25.19 76.7194C28.0627 77.0518 30.9187 77.5371 33.8356 77.439C34.8857 77.4034 35.9349 77.3071 36.985 77.2914C39.2983 77.2576 41.6135 77.2611 43.9278 77.2402C44.3311 77.2402 44.7335 77.189 45.3734 77.1456C44.8268 76.6985 44.4666 76.4363 44.1486 76.1394C42.2887 74.4058 40.4476 72.6592 38.5877 70.9273ZM228.629 45.2665C229.529 46.1711 230.636 46.916 231.605 47.7676C232.127 48.2286 232.556 48.7737 233.017 49.2877C235.161 51.6759 237.288 54.0762 239.451 56.4505C240.508 57.608 241.602 58.7406 242.733 59.8483C244.02 61.1088 245.312 62.3711 246.699 63.543C247.522 64.2328 248.441 64.8267 249.434 65.3105C253.411 67.2525 257.459 69.0834 261.416 71.0557C263.459 72.074 265.391 73.2755 267.333 74.4414C268.624 75.2227 269.829 76.1099 271.101 76.9164C272.607 77.8713 274.358 78.3922 276.023 79.0668L276.245 78.9122C276.036 78.3644 275.841 77.8123 275.614 77.2697C275.311 76.5483 275.242 75.8156 275.179 75.0447C275.065 73.6488 275.03 72.2234 274.213 70.9142C273.67 70.0461 273.45 69.0226 272.974 68.1146C272.498 67.2065 271.911 66.3384 271.32 65.4815C270.375 64.1117 269.607 62.6827 269.144 61.1236C268.491 58.9325 267.059 57.1207 265.538 55.3402C264.644 54.2932 263.781 53.1968 263.121 52.0274C261.457 49.0836 259.919 46.0843 258.324 43.111C258.16 42.8045 257.953 42.5163 257.698 42.1118C257.252 42.3062 256.89 42.479 256.513 42.6266C255.156 43.1561 253.797 43.6808 252.435 44.2005C252.003 44.3646 251.557 44.5008 251.118 44.6476C249.068 45.3325 247.041 46.0765 244.962 46.6833C242.607 47.3726 240.294 47.3153 238.06 46.1407C237.132 45.6537 236.032 45.402 234.985 45.1198C233.266 44.6571 231.862 43.7135 230.363 42.9052C229.331 42.3488 228.272 41.8097 227.158 41.406C226.642 41.2185 225.968 41.3739 225.163 41.3739C226.367 42.736 227.427 44.0572 228.629 45.2665ZM19.2346 77.1413V77.2211H19.8912C19.8912 77.1951 19.8912 77.1682 19.8912 77.1413H19.2346ZM13.0378 39.7158L14.3019 39.629C15.0193 39.7574 15.7348 39.9137 16.4611 39.9762C17.1657 40.4276 18.1011 40.0083 18.9441 40.0144C18.9441 40.0014 18.9441 39.9892 18.9441 39.9771C19.1463 39.9973 19.351 39.984 19.5477 39.938C19.576 39.9309 19.6038 39.9225 19.6311 39.9128C19.8792 39.8731 20.1184 39.7983 20.3397 39.6915C20.4734 39.6264 20.6005 39.5511 20.7195 39.4666C21.3271 39.4597 21.5744 39.2383 21.4134 38.6419C21.2741 38.1437 21.0018 37.6823 20.6194 37.2963C20.0114 36.7134 19.3438 36.1813 18.6251 35.7068C17.4572 34.9133 16.2412 34.1746 14.8849 33.3099C14.2135 35.4629 12.8778 37.3302 13.0378 39.7149V39.7158ZM15.2784 32.5911C16.0793 33.184 16.7741 33.8004 17.5779 34.2709C18.952 35.0783 20.2602 35.9421 21.3742 37.0289C22.1966 37.8311 22.5863 38.7044 22.1495 39.7731L21.8737 40.0422L20.2377 40.5631C20.5321 40.6785 20.7598 40.7862 20.9993 40.8591C22.703 41.3748 24.4196 41.8566 26.1106 42.4035C27.413 42.8245 28.7134 42.5832 30.0776 42.6361C30.004 42.4886 29.9481 42.3757 29.8911 42.2889C29.8911 42.2889 29.896 42.2828 29.899 42.2785C29.9239 42.2312 29.9381 42.18 29.9406 42.1278C29.9431 42.0757 29.934 42.0236 29.9137 41.9746C29.8961 41.9425 29.8764 41.9104 29.8578 41.8783C29.8234 41.8175 29.7891 41.7559 29.7508 41.696C29.7069 41.6332 29.6552 41.5749 29.5967 41.5223C29.5663 41.4833 29.5368 41.4416 29.5045 41.4034L29.5604 41.3817C28.946 39.8321 27.573 38.8398 26.1695 37.9092C23.8827 36.3926 21.6294 34.8465 19.4859 33.1693C18.424 32.3385 17.469 31.4582 16.6132 30.2498C16.1558 31.0511 15.7505 31.7655 15.2784 32.5911ZM17.2972 29.0127C17.0028 29.6647 17.4297 30.3271 17.9008 30.8358C18.5447 31.5303 19.2356 32.2109 20.0178 32.7786C22.4989 34.5808 25.0104 36.3512 27.5524 38.0898C28.7301 38.8945 29.7115 39.8191 30.2788 41.031C30.6449 41.8123 31.3859 42.0137 32.1436 42.0328C33.3733 42.0632 34.608 41.9408 36.0497 41.8731C35.8034 41.4954 35.7052 41.2385 35.5099 41.0683C35.0436 40.6506 34.5473 40.26 34.024 39.8989C32.81 39.0803 31.5831 38.2756 30.3357 37.4969C29.3464 36.8779 28.2924 36.3397 27.3139 35.7068C24.1948 33.6893 21.7923 31.1101 19.8932 28.1542C19.5516 27.622 19.3141 27.0369 18.9343 26.2921C18.3336 27.2687 17.7153 28.1038 17.3012 29.0127H17.2972ZM19.8078 25.2555C19.6311 25.8571 19.8294 26.6254 20.1081 27.2322C20.5007 28.0899 21.066 28.9016 21.6608 29.6708C23.7218 32.3333 26.3157 34.5045 29.369 36.2737C31.3643 37.43 33.3085 38.6593 35.2253 39.9146C35.9123 40.3625 36.4452 40.985 37.0586 41.5371C37.139 41.5277 37.2178 41.5096 37.2932 41.4833H37.302C37.4502 41.4833 37.5965 41.4833 37.7466 41.4746C37.848 41.4688 37.949 41.4578 38.0489 41.4416C38.4297 41.4421 38.807 41.3772 39.1599 41.2506L40.7705 40.7601C40.7616 40.7323 40.7538 40.7037 40.7459 40.6733C40.8582 40.6115 40.9558 40.531 41.0335 40.4363C41.108 40.3528 41.1433 40.2471 41.132 40.1412C41.1207 40.0353 41.0636 39.9373 40.9726 39.8677C40.915 39.8256 40.8454 39.7983 40.7714 39.7887C40.6899 39.6503 40.5912 39.5205 40.477 39.4015C38.5053 37.5186 36.4119 35.7493 34.0976 34.1928C33.3159 33.6729 32.5013 33.1929 31.6577 32.7552C28.3905 31.0389 25.5473 28.899 23.287 26.1887C22.5529 25.3093 21.9306 24.357 21.1955 23.3535C20.6705 24.048 20.005 24.5975 19.8117 25.2555H19.8078ZM63.4428 59.8718C63.2711 60.4065 63.4497 60.8701 63.3879 61.3571C63.2554 62.3989 63.8364 63.1515 64.6745 63.7879C65.5647 64.4659 66.499 65.1022 67.348 65.8192C68.3753 66.6682 69.3472 67.5682 70.259 68.5148C70.7153 69 71.1737 69.2336 71.8401 69.1433C73.375 68.9341 74.9022 68.796 76.2831 67.9939C77.45 67.3141 78.7965 66.8757 80.0567 66.3184C80.8252 65.979 81.5691 65.5935 82.3474 65.2715C83.0531 64.9789 83.795 64.7558 84.5115 64.4841C85.9837 63.925 87.4794 63.4085 88.9093 62.7748C90.728 61.9691 92.4897 61.0646 94.3338 60.1756C94.321 59.5124 93.7449 59.1122 93.2385 58.7085C91.1153 57.0174 88.9787 55.339 86.8287 53.6734C85.5322 52.669 84.1709 51.7288 82.9029 50.6931C82.3151 50.1902 81.81 49.6169 81.4023 48.9899C79.7603 46.5592 78.1684 44.1076 76.553 41.6656C76.419 41.4604 76.2604 41.2686 76.0799 41.0935C74.6333 39.7045 73.5517 38.1045 72.5918 36.4265C72.2582 35.8431 71.8067 35.3135 71.3994 34.7614C70.7409 33.8629 70.0529 32.9792 69.4365 32.0607C69.1813 31.6839 69.0547 31.236 68.8879 30.8149C68.5846 30.051 68.2293 29.3201 67.5924 28.6959C67.4999 28.4832 67.3566 28.2907 67.1723 28.1316C66.9552 27.951 66.6713 27.8464 66.3734 27.8373C66.3646 27.8373 66.3577 27.8286 66.3489 27.8243L66.3381 27.8373C66.086 27.8307 65.8357 27.8762 65.6069 27.9701C65.3791 28.0627 65.1824 28.2062 65.0363 28.3864C64.8902 28.5666 64.7997 28.7774 64.7737 28.998C64.7414 29.2661 64.757 29.5371 64.8198 29.801C64.8192 30.1244 64.8809 30.4456 65.0023 30.7507C65.4636 31.8871 65.811 33.0616 66.3106 34.1841C66.7513 35.1738 66.7385 36.1304 66.4519 37.1357C66.0319 38.6115 65.601 40.0813 65.2742 41.5709C65.0072 42.7863 64.437 43.8489 63.7127 44.9019C63.1768 45.6832 62.8196 46.5974 62.6037 47.495C62.3239 48.6787 61.953 49.8441 61.4937 50.9831C60.8008 52.6855 60.6791 54.4226 61.635 56.1302C62.0511 56.8724 62.322 57.6754 62.6969 58.4376C62.9433 58.9359 63.5655 59.4889 63.4468 59.8718H63.4428ZM98.7748 49.5924C98.8455 48.7946 98.9171 48.0228 98.6561 47.2285C98.0888 45.5061 98.448 43.7933 98.8524 42.1613L97.4783 41.2115C96.8384 41.2723 96.3507 41.2984 95.8727 41.3713C95.6126 41.4126 95.3641 41.4988 95.1415 41.6248C94.7144 41.8706 94.3038 42.1381 93.9118 42.426C93.3317 42.8523 92.7075 42.9061 91.9489 42.9C90.5484 42.8887 89.1439 43.0737 87.7444 43.1935C86.9651 43.262 86.1858 43.3471 85.4154 43.4669C84.8805 43.5537 84.3211 43.6353 83.8451 43.8428C83.0256 44.197 82.212 44.2439 81.3395 44.0972C80.622 43.9774 79.8968 43.7239 79.0105 44.1119C79.7142 45.1841 80.4159 46.2484 81.1118 47.3153C81.3454 47.6738 81.6074 48.0254 81.7801 48.4065C82.2189 49.3753 83.005 50.0881 83.8736 50.7504C85.4131 51.9259 86.9523 53.103 88.4912 54.282C88.9643 54.6457 89.3922 55.0633 89.9075 55.374C92.0068 56.6198 93.6497 58.3005 95.4929 59.8292L100.028 59.0123C99.8525 57.6312 99.7337 56.2995 99.4982 54.9843C99.3136 53.9712 98.7365 53.0275 98.7493 51.9684C98.765 51.1767 98.712 50.3806 98.7817 49.5924H98.7748ZM95.8305 40.399C95.6342 40.2722 95.4016 40.1099 95.1562 39.9588C91.9175 37.9544 88.6915 35.936 85.4399 33.9541C81.3983 31.4921 77.2095 29.2662 72.4917 27.9406C71.1037 27.555 69.6402 27.4285 68.194 27.5691L69.1048 29.2688C69.5602 30.8835 70.4405 32.3741 71.3768 33.8108C71.3864 33.8538 71.4036 33.8951 71.4279 33.9332C72.4005 35.3092 73.3623 36.6912 74.3565 38.0551C74.8845 38.7799 75.4174 39.5118 76.0455 40.1681C76.7532 40.9068 77.5638 41.564 77.9868 42.492C78.1596 42.8697 78.5296 43.0433 79.0056 43.0997C79.8526 43.1952 80.6888 43.4079 81.5358 43.447C82.1354 43.4721 82.7488 43.2976 83.3505 43.1865C83.6449 43.131 83.9266 42.9738 84.2249 42.9374C85.8934 42.7316 87.551 42.5155 89.2224 42.3705C90.2667 42.2837 91.3266 42.3314 92.3758 42.2733C92.7572 42.2613 93.1289 42.1633 93.4554 41.9885C94.2641 41.5006 95.0169 40.9546 95.8423 40.399H95.8305ZM61.9913 47.284C62.1611 46.3369 62.4584 45.4237 63.0905 44.6797C64.3035 43.2525 64.5538 41.5735 64.9552 39.918C65.1839 38.9753 65.4685 38.042 65.7355 37.1062C65.9681 36.2893 66.078 35.4794 65.7355 34.6572C65.4126 33.8759 65.0779 33.0946 64.8306 32.2986C64.4527 31.0737 64.1436 29.8322 63.7834 28.5066C63.5645 28.5596 63.3515 28.6212 63.1386 28.6802C63.0258 28.6554 62.9065 28.6693 62.8049 28.7193C62.589 28.8235 62.3662 28.9155 62.1424 29.0041L61.9353 29.0839C61.209 29.3548 60.4514 29.5675 59.7006 29.7914C58.7712 29.9043 57.8604 30.11 57.0291 30.5068C56.0453 30.7992 55.1291 31.2459 54.3242 31.8254C51.8706 33.5955 49.4327 35.3847 46.9889 37.16C46.8986 37.226 46.7651 37.2876 46.7386 37.3727C46.5119 38.0863 45.7572 38.2973 45.184 38.6818C44.2202 39.3286 43.2731 39.997 42.2946 40.6264C41.4506 41.1681 40.5722 41.6682 39.6447 42.2246C39.6389 42.1552 39.6163 42.2455 39.6536 42.275C40.7047 43.1049 41.7146 43.9591 42.5223 44.9991C43.0828 45.7171 43.9229 46.1867 44.9092 46.4342C46.4275 46.8135 47.7907 47.4663 49.1137 48.2381C50.8705 49.2634 52.8638 49.7486 54.9592 49.9691C56.1968 50.1002 57.4128 50.398 58.6357 50.6246C59.2835 50.7444 59.9293 50.8711 60.6487 51.0083C61.5349 49.8155 61.7763 48.5428 62.003 47.284H61.9913ZM47.3196 34.31C46.4442 33.1745 45.1389 32.4427 44.0298 31.5268C41.4231 29.3765 38.7948 27.2444 36.1999 25.0836C35.349 24.3752 34.551 23.6156 33.7728 22.8439C33.5198 22.5775 33.3419 22.2618 33.2536 21.9228C33.0573 21.2005 33.6825 20.6944 34.4922 20.9123C34.8624 21.0202 35.2121 21.1768 35.5296 21.3768C36.8054 22.1494 37.8281 23.1295 38.7202 24.2468C40.2179 26.1245 42.1131 27.6889 43.9916 29.2575C45.3018 30.3514 46.6513 31.4079 47.9841 32.4809C48.0714 32.5503 48.1657 32.6137 48.2579 32.6771C49.9116 33.8152 50.579 33.7475 51.9992 32.2343C50.8882 31.5398 49.8498 30.8636 48.7849 30.2229C45.8779 28.4736 43.3232 26.4092 41.2759 23.8604C40.0982 22.3977 38.997 20.8889 37.4934 19.6388C36.09 18.4712 34.5118 17.6039 32.6843 17.1482C30.6861 16.6507 29.582 17.1803 29.9127 19.3184C30.217 21.2926 31.0767 23.0583 32.7285 24.5593C34.5933 26.2539 36.4923 27.8937 38.6378 29.3018C39.3297 29.7567 40.056 30.1699 40.7695 30.5979C43.1927 32.0494 45.2684 33.803 46.7357 36.0619C48.0017 35.4316 48.0498 35.2424 47.3314 34.31H47.3196ZM48.5729 34.7224L49.3463 34.2666C49.2629 34.1329 49.2335 34.0157 49.1501 33.9645C46.7789 32.4713 44.8022 30.5971 42.6725 28.8608C41.1011 27.5719 39.6527 26.1704 38.3424 24.6704C37.5189 23.7346 36.6984 22.8274 35.6355 22.1025C35.2017 21.8065 34.7571 21.5295 33.8778 21.5981C34.0574 21.9879 34.1369 22.2805 34.3145 22.5157C34.6168 22.9168 34.9289 23.3326 35.3264 23.6556C38.4081 26.1644 41.4751 28.6907 44.6226 31.1309C46.0369 32.2282 47.4934 33.2657 48.5847 34.7224H48.5729ZM25.0369 19.9322C23.9632 20.6354 23.0053 21.25 22.3703 22.1815C21.857 22.935 22.2938 23.6191 22.6922 24.219C24.7729 27.359 27.6976 29.7828 31.0993 31.782C31.7471 32.1623 32.4341 32.4896 33.1034 32.8411C35.0732 33.8777 36.6975 35.2832 38.3542 36.6609C39.5535 37.6566 40.8078 38.595 42.0444 39.5586L41.9109 39.7852C42.066 39.6828 42.2289 39.5873 42.3771 39.4762C43.1623 38.8945 43.1092 38.6081 42.5675 37.8163C41.273 35.9325 39.1756 34.784 37.4551 33.2917C34.5265 30.7516 31.3564 28.4259 28.7399 25.6071C28.4455 25.2868 28.0931 24.9994 27.7585 24.7086C26.6033 23.7089 25.7964 22.4372 25.4334 21.0443C25.349 20.7135 25.2057 20.394 25.0369 19.9322ZM37.8467 10.8725C34.1722 12.0523 26.9929 16.1819 25.7131 18.8531L25.7416 18.8609C25.7308 18.8922 25.7269 18.9243 25.7171 18.9564C25.6694 19.115 25.6418 19.2778 25.6346 19.4417C25.6212 19.6912 25.6725 19.94 25.7848 20.1692C25.8025 20.1997 25.8232 20.2287 25.8466 20.256C26.2706 21.6684 26.885 22.9828 28.0372 24.0992C30.8657 26.8407 33.7904 29.4876 36.9566 31.9305C39.048 33.5435 41.0492 35.2484 43.1338 36.9465C43.1789 37.0177 43.2192 37.0906 43.2673 37.1609C43.4096 37.3894 43.5655 37.6111 43.7344 37.825L43.652 37.9205C44.2409 38.3198 44.5736 38.1601 46.0732 36.7303C45.7258 35.8188 45.0918 35.0297 44.3773 34.2996C43.1119 33.0221 41.6809 31.8808 40.1139 30.8992C38.2962 29.7532 36.4982 28.5674 34.8249 27.2643C33.5055 26.2262 32.2987 25.0814 31.22 23.8448C30.5664 23.1017 30.214 22.139 29.7999 21.2483C29.5329 20.6753 29.3975 20.0537 29.211 19.4539C28.9254 18.551 29.211 17.7333 29.739 16.9728C30.1434 16.3868 31.2328 16.1212 32.1779 16.353C35.4805 17.1629 38.0872 18.8401 40.0471 21.3177C41.9364 23.7068 43.7835 26.1401 46.4265 27.9476C48.1244 29.1082 49.9215 30.156 51.6871 31.2377C52.2436 31.578 52.8648 31.624 53.4635 31.3132C54.3674 30.8401 55.2497 30.334 56.3097 29.7506C55.3944 28.7412 54.3136 27.8584 53.1033 27.1315C51.3553 26.0811 49.5151 25.1557 47.933 23.89C45.5157 21.9575 43.0641 20.0312 41.2994 17.5952C39.999 15.8 38.732 13.9396 38.257 11.7788C38.1853 11.4646 37.9851 11.172 37.8467 10.8725ZM39.0029 10.5487C38.7241 11.5731 39.0255 12.4004 39.3955 13.1965C40.6851 15.9823 42.4468 18.5015 44.9416 20.5755C46.5355 21.9028 48.1509 23.212 49.7998 24.482C50.4436 24.9795 51.1865 25.3857 51.9216 25.7781C53.8728 26.8199 55.7022 27.9866 57.2048 29.6352L61.4318 28.353C60.0343 26.8364 58.672 25.6279 56.9741 24.7164C54.2859 23.2727 51.8107 21.5799 49.7517 19.4608C47.9939 17.6508 46.2823 15.8086 44.9485 13.7139C44.1457 12.4534 43.1985 11.2623 42.8943 9.70143L39.0029 10.5487ZM49.841 8.51992C48.1126 8.81247 46.3951 9.15451 44.6707 9.4653C44.0769 9.57208 43.8797 9.92627 44.0024 10.382C44.1555 10.9489 44.3233 11.5358 44.6344 12.0427C46.4655 15.0321 48.7622 17.779 51.4574 20.2031C52.7537 21.3584 54.1747 22.3988 55.7002 23.3092C57.7809 24.5584 59.837 25.8094 61.5437 27.4623C61.9049 27.8095 62.3289 28.0048 62.907 27.826C64.3036 27.392 65.7109 26.9918 67.1939 26.5542C67.03 26.3467 66.9181 26.1202 66.7267 25.9761C65.2644 24.8811 63.7922 23.7956 62.3102 22.7197C58.0537 19.6162 54.4076 16.0995 52.434 11.429C52.0908 10.6577 51.7023 9.90287 51.27 9.16753C50.9284 8.55985 50.5898 8.3923 49.841 8.51992ZM57.4158 7.85754C57.2146 7.68826 56.8652 7.53547 56.6071 7.56151C54.9798 7.72906 53.3595 7.94869 51.6498 8.16138C53.4753 12.6478 55.765 16.6794 59.6299 19.848C60.9195 20.9045 62.2602 21.9202 63.6538 22.8621C65.1819 23.8917 66.6816 24.9456 68.0193 26.161C68.3383 26.4518 68.6425 26.6263 69.1234 26.6324C71.0255 26.6558 72.7724 27.1897 74.5587 27.7609C77.4127 28.6655 79.8634 30.1856 82.5084 31.4018C85.437 32.7474 88.1409 34.4064 90.8919 35.995C92.2296 36.7668 93.4574 37.6957 94.6851 38.6054C95.9905 39.5734 97.3243 40.524 99.0938 40.5761C100.31 40.6108 101.547 40.445 102.753 40.2809C103.672 40.1568 103.79 39.9128 103.492 39.1246C102.984 37.7766 102.285 36.4911 101.411 35.2988C100.358 33.8586 98.9829 32.6849 97.6305 31.4791C96.2695 30.2814 94.7717 29.2119 93.161 28.2879C90.621 26.8121 87.8533 25.7703 85.015 24.8579C81.7262 23.8023 78.2734 23.3335 74.8658 22.6954C73.6089 22.4406 72.4074 22.0057 71.3091 21.408C69.8761 20.6315 68.5201 19.749 67.2557 18.7698C64.9146 16.9761 62.8166 14.9482 61.0039 12.7268C59.9724 11.4689 59.1274 10.0912 58.1872 8.77341C57.9575 8.44786 57.723 8.11537 57.4158 7.85754V7.85754ZM62.7421 7.04238C62.0188 7.00418 61.2925 7.02675 60.418 7.02675C61.5378 8.42963 62.4231 9.65542 63.4438 10.7857C64.7138 12.1903 66.0535 13.5507 67.4471 14.8607C68.1983 15.5803 69.1725 16.0882 70.2482 16.3208C70.8184 16.4415 71.3278 16.4172 71.7429 15.9823C72.1355 15.563 72.1914 15.102 71.9559 14.6228C71.8018 14.3085 71.6349 13.9734 71.3749 13.7295C70.3041 12.7242 69.1676 11.8057 67.8338 11.0383C66.1104 10.0469 64.3006 9.07899 63.2917 7.36185C63.2316 7.27661 63.1514 7.20391 63.0565 7.14876C62.9616 7.09361 62.8544 7.05731 62.7421 7.04238V7.04238ZM99.6444 24.5879C98.1987 22.8187 96.7413 21.053 94.9256 19.5528C92.1776 17.2905 89.5522 14.8971 86.2889 13.1852C85.7246 12.8892 85.0827 12.7077 84.5223 12.4039C82.1021 11.0913 79.3815 10.3846 76.7983 9.40453C75.1897 8.79685 73.4997 8.3515 71.846 7.8341C71.7625 7.91571 71.6801 7.99731 71.5967 8.07805C71.6632 8.33196 71.7458 8.58237 71.844 8.8281C72.6164 10.468 73.905 11.7511 75.4174 12.8866C77.8063 14.6758 80.6515 15.6246 83.5634 16.4945C84.9286 16.9025 86.2329 17.4685 87.5648 17.9633C87.8543 18.071 88.133 18.2012 88.4294 18.2897C90.9606 19.0493 93.1089 20.3341 95.0679 21.928C96.9327 23.449 98.8955 24.8796 100.917 26.3129C100.499 25.7399 100.105 25.1409 99.6493 24.5879H99.6444ZM106.268 38.944C106.123 37.7451 105.923 36.535 105.552 35.3787C105.146 34.1173 104.57 32.8932 103.981 31.6857C102.501 28.6533 100.056 26.3155 97.1515 24.2971C95.7363 23.3135 94.4035 22.2327 93.054 21.1814C91.6427 20.0859 89.9605 19.4313 88.2449 18.8175C88.029 18.7394 87.7817 18.7168 87.5814 18.6161C85.278 17.4642 82.7213 16.886 80.2687 16.0699C77.0829 15.0091 74.38 13.3154 72.371 10.8699C71.7341 10.0964 71.3052 9.17709 70.8674 8.29074C70.573 7.69087 70.1657 7.31063 69.4208 7.24031C68.9929 7.19951 68.5679 7.13006 68.14 7.11009C67.1625 7.06495 66.1843 7.03341 65.2055 7.01547C64.8728 7.01026 64.5391 7.06842 64.1122 7.10228C64.5146 8.15791 65.3311 8.72653 66.1781 9.283C67.717 10.2952 69.2736 11.2892 70.7615 12.3587C71.6448 12.9933 72.3926 13.7738 72.7244 14.7782C72.9157 15.3676 72.9 15.9649 72.3583 16.4276C71.7989 16.9042 71.1697 17.2219 70.3453 16.9294C69.9106 16.7757 69.4021 16.7323 69.0292 16.5066C68.0978 15.9415 67.1546 15.365 66.342 14.6775C64.4959 13.1149 62.9835 11.3005 61.5329 9.43926C60.9853 8.73521 60.2345 8.1527 59.5534 7.53373C59.1863 7.20038 58.7515 7.137 58.2402 7.46342C59.0911 8.75257 59.8654 9.99485 60.7144 11.1963C62.9835 14.4032 65.8906 17.0995 69.2186 19.46C71.5417 21.1094 74.1632 22.04 77.0947 22.4749C80.5352 22.9825 83.9077 23.8008 87.1594 24.9169C90.4963 26.0663 93.6694 27.5213 96.3988 29.5961C98.8072 31.4296 101.117 33.3776 102.706 35.8552C103.339 36.8414 103.768 37.9301 104.282 38.9753C104.421 39.2574 104.526 39.5534 104.669 39.8972C104.917 39.8972 105.148 39.925 105.368 39.892C106.17 39.7748 106.356 39.6767 106.268 38.944ZM117.849 45.7153C116.174 44.829 114.47 43.9852 112.81 43.0771C112.255 42.7733 111.765 42.3549 111.307 41.9356C110.793 41.4659 110.211 41.1291 109.478 41.0987C109.467 41.0987 109.455 41.1039 109.443 41.1039C108.8 40.7784 108.096 40.5717 107.331 40.6151C107.322 40.6151 107.316 40.6151 107.308 40.6204C107.209 40.6151 107.111 40.6117 107.003 40.6082C104.674 40.5283 102.562 41.3461 100.34 41.6881C99.7357 41.781 99.5551 42.2255 99.4569 42.6778C99.1124 44.1805 98.9839 45.6841 99.3264 47.2094C99.4697 47.8483 99.6208 48.5428 99.4864 49.1626C99.0997 50.9301 99.4609 52.6186 99.9908 54.2845C100.285 55.2282 100.495 56.1614 100.523 57.1407C100.537 57.6407 100.713 58.1373 100.849 58.7901C101.656 58.6087 102.247 58.5401 102.779 58.3447C104.729 57.6277 106.689 56.928 108.26 55.5971C109.216 54.7881 110.27 54.0693 111.245 53.2767C111.523 53.0324 111.74 52.7401 111.884 52.4181C112.955 50.194 114.72 48.5489 117.107 47.396C117.647 47.1356 118.142 46.7996 118.81 46.4098C118.416 46.1242 118.157 45.8803 117.846 45.7153H117.849ZM143.808 43.5798C143.199 43.8211 142.758 44.1232 142.748 44.803C142.73 46.0808 142.689 47.3396 143.064 48.6071C143.677 50.6775 144.314 52.7532 144.31 54.9278C144.31 55.3983 144.48 55.8828 144.655 56.3359C144.95 57.0894 145.279 57.8334 145.647 58.5592C146.414 60.0749 146.483 61.7104 146.783 63.3112C147.167 65.3557 147.655 67.3862 148.126 69.553C150.122 69.2648 151.953 69.1068 153.561 68.2057C154.45 67.7083 155.341 67.2126 156.244 66.7299C156.551 66.5817 156.869 66.4537 157.197 66.3471C158.39 65.913 159.596 65.5085 160.778 65.0536C162.967 64.2106 165.142 63.3399 167.325 62.4822C167.609 62.3702 167.899 62.2686 168.306 62.1167C168.112 61.9461 167.906 61.7855 167.691 61.6358C166.722 61.0507 165.711 60.5168 164.782 59.8874C164.012 59.3665 163.35 58.725 162.613 58.1659C162.289 57.9202 161.926 57.6746 161.533 57.5513C159.406 56.8889 158 55.4201 156.486 54.0727C154.753 52.5301 153.33 50.7166 151.228 49.4925C150.408 49.0063 149.776 48.3095 149.417 47.4959C148.852 46.2701 147.731 45.4349 146.611 44.6146C146.25 44.3541 145.826 44.1406 145.507 43.8428C144.991 43.3714 144.449 43.3245 143.805 43.5798H143.808ZM188.887 49.6644C188.097 49.865 187.33 50.1323 186.551 50.3685C184.482 50.9952 182.436 51.6897 180.338 52.2245C178.98 52.5717 177.642 52.254 176.387 51.6567C174.908 50.9527 173.426 50.2461 171.894 49.6401C170.291 49.0064 168.642 48.4569 166.987 47.936C165.656 47.5195 164.252 47.3112 162.84 47.3205C162.251 47.3205 161.629 47.0792 161.073 46.8561C159.397 46.1911 157.745 45.4792 156.08 44.7899C155.761 44.658 155.409 44.5807 155.111 44.421C153.291 43.4496 151.283 43.0086 149.202 42.8636C148.141 42.7898 147.063 42.8905 145.773 42.9165C146.044 43.2699 146.15 43.4756 146.323 43.6214C146.747 43.98 147.19 44.3238 147.647 44.651C148.668 45.382 149.503 46.2371 150.02 47.3196C150.497 48.3197 151.365 48.9934 152.375 49.5681C152.895 49.8696 153.373 50.2233 153.801 50.622C155.621 52.2914 157.384 54.0076 159.239 55.6501C159.802 56.1475 160.559 56.513 161.293 56.8116C162.596 57.3421 163.674 58.1138 164.728 58.9489C165.594 59.6374 166.593 60.193 167.55 60.792C167.803 60.9508 168.166 60.9977 168.37 61.1878C169.14 61.9006 169.94 61.687 170.824 61.3944C172.949 60.6895 175.113 60.0714 177.23 59.3474C181.062 58.0311 184.806 56.5204 188.443 54.8228C191.127 53.5736 193.683 52.1854 196.064 50.5395C196.643 50.1249 197.188 49.6756 197.697 49.1948C198.563 48.4039 199.397 47.587 200.205 46.8196C196.474 47.7546 192.676 48.7008 188.884 49.6644H188.887ZM226.141 86.4536C228.639 86.6393 231.135 86.8434 233.633 87.0317C235.583 87.1785 237.533 87.3243 239.485 87.4467C241.671 87.5839 243.877 87.5865 246.046 87.8426C248.683 88.1542 251.29 88.6647 253.909 89.097C258.798 89.9043 263.662 90.8176 268.455 92.0069C269.887 92.362 271.331 92.7075 272.796 92.9211C275.845 93.3664 278.911 93.7232 281.972 94.1086C282.16 94.1329 282.357 94.0956 282.711 94.0791C282.077 93.2249 281.258 92.8985 280.424 92.6033C279.989 92.4497 279.534 92.283 279.076 92.2439C275.579 91.9453 272.883 90.0476 269.921 88.6846C269.616 88.544 269.375 88.294 269.102 88.0987C268.341 87.5561 267.647 86.9085 266.806 86.4952C263.795 85.0194 260.931 83.2676 257.679 82.2206C255.53 81.5261 253.517 80.6242 251.512 79.684C251.2 79.5453 250.926 79.3473 250.71 79.1041C249.07 77.1187 247.428 75.1333 245.848 73.1141C245.273 72.3779 244.824 71.5558 244.386 70.7441C243.268 68.6684 241.706 66.9357 239.569 65.6066C238.066 64.6716 236.585 63.7088 235.112 62.7366C234.583 62.38 234.079 61.994 233.605 61.5811C232.279 60.4525 230.891 59.3683 229.688 58.1442C228.935 57.3777 228.244 56.447 227.935 55.4869C227.514 54.1847 226.659 53.1299 225.972 51.9736C225.197 50.6619 224.162 49.4509 223.911 47.9317C223.747 46.9385 223.665 45.935 223.434 44.9514C223.041 43.302 222.371 41.7671 220.72 40.7358C219.728 40.116 219.065 40.109 218.025 40.6438C215.701 41.8401 214.117 43.5685 213.098 45.7561C212.532 46.9715 211.823 48.1383 211.22 49.3406C210.435 50.8893 209.605 52.4242 208.963 54.0189C208.601 54.9235 208.689 55.9835 209.348 56.7821C209.986 57.5556 210.41 58.3925 210.821 59.2502C211.559 60.7781 212.289 62.3083 213.013 63.8408C213.328 64.511 213.714 65.1716 213.896 65.8713C214.93 69.8959 216.88 73.6089 218.902 77.2836C219.637 78.6214 220.255 79.9974 220.98 81.3343C221.158 81.6392 221.388 81.9178 221.663 82.1599C222.854 83.2667 223.979 84.417 224.782 85.7825C225.08 86.28 225.563 86.411 226.141 86.4536ZM165.606 85.1392C168.853 85.1514 172.013 85.5282 175.066 86.4848C177.808 87.3434 180.649 87.5795 183.513 87.6438C185.74 87.6941 187.971 87.5622 190.2 87.5804C193.964 87.6099 197.726 87.7184 201.487 87.7462C204.074 87.7644 206.664 87.7462 209.249 87.6594C211.439 87.5847 213.629 87.4363 215.808 87.2253C217.791 87.0352 219.756 86.7045 221.733 86.4666C222.496 86.3798 223.273 86.3859 224.162 86.3451C224.01 85.9648 223.966 85.6427 223.77 85.4101C223.131 84.6288 222.534 83.7832 221.747 83.1278C220.765 82.3083 220.218 81.3126 219.739 80.2465C219.392 79.4782 219.061 78.6978 218.621 77.9703C216.936 75.1802 215.61 72.2511 214.316 69.3126C213.867 68.2908 213.728 67.164 213.365 66.1083C212.815 64.5171 211.978 63.0317 211.085 61.5689C210.734 60.9951 210.504 60.364 210.224 59.7572C210.105 59.4967 210.018 59.2311 209.881 58.9828C209.268 57.8734 208.642 56.7691 207.994 55.6154C207.616 56.125 207.224 56.6658 206.816 57.1988C205.96 58.3204 204.876 59.1512 203.375 59.5853C199.395 60.7364 195.426 61.9118 191.474 63.1446C189.484 63.767 187.548 64.5266 185.598 65.2506C185.201 65.3968 184.839 65.6106 184.534 65.88C182.964 67.3107 181.141 68.4193 179.243 69.4766C177.092 70.6746 174.908 71.8535 173.158 73.5281C171.107 75.484 168.598 76.7636 165.724 77.5501C164.384 77.9174 163.09 78.3879 161.946 79.177C160.712 80.0277 159.343 80.7231 158.073 81.5339C157.441 81.9367 156.895 82.4411 156.315 82.9082C155.597 83.4889 154.887 84.0784 153.944 84.8528C157.953 84.9613 161.78 85.128 165.606 85.1392V85.1392ZM123.467 81.402L123.604 81.4089C123.685 81.4521 123.779 81.4696 123.872 81.4584C123.945 81.4506 124.017 81.4393 124.089 81.4306C125.604 81.5027 127.118 81.573 128.633 81.6112C129.203 81.6251 129.774 81.5166 130.345 81.4723C130.5 81.4623 130.655 81.4658 130.809 81.4827C132.44 81.6355 134.069 81.83 135.704 81.9367C138.267 82.1026 140.765 82.5062 143.092 83.4994C145.195 84.3944 147.443 84.6019 149.716 84.7451C150.262 84.7798 150.811 84.7946 151.358 84.8319C152.122 84.884 152.858 84.9075 153.298 84.1782C153.379 84.0445 153.604 83.9786 153.762 83.8813C154.301 83.5523 154.925 83.2936 155.365 82.8821C157.495 80.8907 160.231 79.6293 162.712 78.0658C163.456 77.597 164.414 77.3592 165.309 77.1196C168.345 76.3079 170.967 74.9328 173.105 72.8458C174.651 71.3361 176.638 70.3126 178.531 69.2223C180.51 68.0868 182.444 66.9322 184.104 65.4355C184.447 65.1248 184.929 64.9147 185.385 64.7245C188.876 63.2982 192.506 62.1905 196.167 61.1653C198.704 60.4543 201.27 59.8266 203.713 58.8674C205.116 58.3152 205.96 57.2952 206.784 56.2291C208.165 54.4417 209.061 52.4493 209.973 50.4596C210.486 49.338 211.022 48.2225 211.615 47.1321C212.309 45.856 212.989 44.5642 213.839 43.3679C214.47 42.4799 215.355 41.7342 216.315 40.728C214.604 41.1074 213.108 41.3461 211.692 41.7854C210.678 42.1005 209.779 42.6978 208.814 43.1448C207.705 43.6588 206.568 44.125 205.465 44.6493C202.902 45.8647 200.459 47.2346 198.527 49.2078C197.994 49.7602 197.403 50.2658 196.76 50.7174C194.284 52.425 191.639 53.8861 188.853 55.1891C185.047 56.9791 181.123 58.5637 177.101 59.9343C174.726 60.7382 172.286 61.3901 169.89 62.1488C168.564 62.569 167.257 63.0421 165.965 63.5378C163.014 64.6577 160.076 65.8019 157.136 66.9443C156.889 67.0468 156.654 67.1725 156.437 67.3194C154.318 68.684 152.031 69.6433 149.363 69.8369C148.44 69.9029 147.508 70.1442 146.635 70.4324C144.292 71.2051 141.865 71.8214 139.772 73.0897C138.644 73.773 137.473 74.4136 136.631 75.4146C136.388 75.6892 136.088 75.921 135.748 76.0978C133.545 77.2984 131.324 78.4417 128.753 78.9799C127.599 79.2221 126.521 79.7508 125.374 80.1614C125.385 80.1745 125.391 80.1831 125.4 80.1962C125.209 80.2401 125.021 80.2911 124.834 80.349C124.717 80.3845 124.581 80.4227 124.449 80.4696C124.261 80.499 124.075 80.539 123.893 80.5894L123.883 80.5955C123.387 80.6433 122.952 80.8334 122.24 81.2553C122.72 81.3082 123.091 81.3846 123.467 81.402V81.402ZM117.894 80.5573C119.349 80.9375 120.785 81.2179 122.169 80.316C122.149 80.296 122.129 80.2743 122.111 80.2535C122.405 80.1484 122.7 80.0217 122.994 79.8949L123.069 79.868C124.698 79.8359 126.098 79.223 127.517 78.6587C128.019 78.4668 128.547 78.3334 129.088 78.262C130.371 78.0944 131.6 77.6872 132.693 77.0675C133.128 76.8327 133.577 76.6179 134.037 76.4242C134.988 75.9953 135.779 75.4189 136.533 74.7314C138.062 73.3287 139.904 72.2227 141.943 71.4837C143.43 70.9464 144.935 70.4498 146.44 69.9524C147.236 69.6919 147.315 69.6546 147.196 68.9054C146.988 67.6032 146.725 66.3011 146.495 65.0049C146.312 63.9806 146.2 62.9423 145.951 61.9327C145.638 60.6852 145.323 59.4212 144.798 58.2371C144.134 56.7396 143.649 55.2673 143.568 53.6274C143.492 52.1229 143.077 50.602 142.575 49.154C142.072 47.7059 142.108 46.2892 142.108 44.8333V43.8532C141.215 44.1137 140.422 44.2283 139.771 44.559C136.614 46.1616 133.121 46.5722 129.604 46.8691C127.076 47.0826 124.535 47.199 121.997 47.2919C121.354 47.3153 120.986 47.5184 120.685 47.9655C120.144 48.7677 119.642 49.5976 119.023 50.3502C118.035 51.55 117.054 52.7714 115.901 53.8418C114.886 54.7837 113.624 55.5155 112.502 56.3724C112.091 56.6864 111.731 57.0492 111.432 57.4506C110.917 58.1451 110.45 58.8682 110.008 59.5974C109.755 60.0275 109.533 60.4718 109.345 60.9274C109.249 61.1418 109.188 61.3671 109.163 61.5967C108.952 62.378 109.065 63.2461 109.424 64.0101L109.305 64.0561C109.632 64.7219 109.894 65.4164 110.298 66.0458C110.965 67.0962 111.286 68.2161 111.485 69.3959C111.574 69.9341 111.823 70.4559 112.048 70.9689C112.288 71.5185 112.582 72.0489 112.857 72.5854C113.001 72.8684 113.1 73.187 113.314 73.4222C114.969 75.2453 115.708 77.4616 116.721 79.5564C116.978 80.1007 117.287 80.3984 117.894 80.5573V80.5573ZM59.1353 77.4321C60.0804 77.2723 61.0324 77.2281 61.9815 76.9555C62.9904 76.6655 64.1534 76.7931 65.2497 76.7367C67.874 76.6013 70.5004 76.5631 73.115 76.8322C75.5175 77.0814 77.9152 77.3592 80.3139 77.637C82.9255 78.6787 85.967 78.8219 88.8524 78.4295C92.3424 78.5433 95.8138 78.3019 99.2852 78.0302C103.571 77.6942 107.824 77.7984 111.992 78.8541C112.288 78.9422 112.599 78.9822 112.911 78.9721C113.268 78.9435 113.377 79.1822 113.591 79.2864C114.278 79.6249 115.082 79.7925 116.113 80.1111C115.753 79.1388 115.571 78.3966 115.21 77.7307C114.555 76.5153 113.79 75.3547 113.079 74.1662C112.788 73.6772 112.509 73.1823 112.242 72.6817C111.909 72.0558 111.592 71.4238 111.274 70.7927C111.147 70.5392 110.948 70.284 110.934 70.0227C110.847 68.3481 110.064 66.8784 109.278 65.4043C109.095 65.057 108.964 64.6942 108.8 64.3408C108.423 63.5257 108.196 62.7044 108.396 61.8068C108.485 61.4083 108.412 60.9821 108.412 60.7954C109.159 59.7381 109.858 58.8752 110.403 57.9419C111.01 56.9002 111.751 56.0694 112.922 55.4374C113.934 54.8914 114.807 54.0953 115.613 53.307C117.32 51.6368 118.949 49.9058 119.931 47.7815C119.988 47.6582 120.017 47.521 120.101 47.2745C119.054 47.5141 118.006 47.4082 117.305 48.2294C117.176 48.3796 116.923 48.4751 116.705 48.5315C114.658 49.0663 113.761 50.5846 112.82 52.0674C112.667 52.3087 112.54 52.5639 112.391 52.8079C111.862 53.7028 111.091 54.4687 110.148 55.0381C109.502 55.4281 108.879 55.848 108.283 56.296C106.007 57.9932 103.32 58.9064 100.478 59.515C99.3382 59.7589 98.1438 59.8275 97.0279 60.1305C95.5282 60.5237 94.0637 61.0153 92.6467 61.6011C91.096 62.2591 89.6454 63.1012 88.132 63.8382C87.6541 64.0761 87.1482 64.2673 86.6236 64.4086C84.3162 65.0058 82.2071 65.9868 80.0822 66.9548C78.5875 67.638 77.1222 68.3715 75.6196 69.0382C75.177 69.2353 74.6598 69.3238 74.1641 69.3994C72.6213 69.6309 71.0745 69.8465 69.5239 70.0461C68.0517 70.2328 66.8887 70.9385 65.9102 71.8518C65.6677 72.0784 65.3468 72.2772 65.1093 72.5315C63.4085 73.4865 62.0796 74.8894 60.4249 75.9042C60.3618 75.9432 60.3113 75.9962 60.2786 76.0578C59.413 76.3791 58.57 76.7636 57.881 77.4468C58.3364 77.4425 58.7486 77.4963 59.1353 77.4312V77.4321ZM46.1704 76.8539C46.4579 77.1248 46.6896 77.3001 47.0537 77.2064C47.7289 77.5302 48.5435 77.6812 49.2963 77.742C50.8195 77.8653 52.3309 77.7012 53.8521 77.6969C53.8903 77.6943 53.9279 77.6873 53.964 77.676C55.3871 77.8184 56.5639 77.4928 57.5954 76.537C58.0861 76.0856 58.8448 75.8425 59.518 75.5743C61.5555 74.7626 63.2691 73.5603 64.7462 72.1114C66.0692 70.8092 67.5875 69.8482 69.5091 69.4028C69.5759 69.3872 69.6279 69.316 69.7761 69.2093C69.0567 68.013 68.0958 67.0806 66.9701 66.2498C65.8287 65.4078 64.7305 64.5136 63.646 63.6177C63.1553 63.2097 62.7627 62.6975 62.7921 62.069C62.8785 60.2355 62.1218 58.6017 61.2787 56.9957C60.4818 55.4799 60.0627 53.9295 60.416 52.2584C60.4425 52.1299 60.4033 51.991 60.3895 51.7878C58.8035 51.2765 57.195 50.8208 55.5275 50.6688C52.6901 50.4084 50.1482 49.5498 47.7741 48.1747C46.9359 47.6894 45.9535 47.3691 44.9936 47.087C43.3988 46.6173 42.2259 45.7753 41.2641 44.5469C40.6596 43.7777 39.7458 43.144 38.836 42.637C38.3453 42.3635 37.5533 42.3766 36.9252 42.4521C35.2979 42.6413 33.6864 42.9461 32.065 43.1796C31.537 43.2551 30.9855 43.21 30.4623 43.302C30.1071 43.3636 29.6919 43.4973 29.4672 43.7247C29.0569 44.1397 28.5937 44.3324 27.9999 44.4809C26.3108 44.9149 24.7611 45.5348 23.3577 46.5809C22.1937 47.449 20.6842 48.0324 19.2248 48.4803C17.681 48.9543 16.6937 49.7677 16.0204 51.1637C16.4532 51.3191 16.8252 51.4857 17.2187 51.5873C19.9481 52.2914 22.1132 53.7576 23.9456 55.6058C25.5227 57.1971 27.1951 58.6903 28.9372 60.1409C30.6449 61.5637 32.1642 63.1637 33.7786 64.6768C34.2005 65.0824 34.6516 65.4635 35.1291 65.8175C36.0222 66.4608 36.7632 67.1709 37.196 68.1536C37.4737 68.7642 37.8778 69.3236 38.3875 69.803C39.9941 71.3214 41.6655 72.7876 43.3144 74.2713C44.2585 75.1307 45.236 75.9736 46.1704 76.853V76.8539Z" fill="url(#paint0_linear_571_4384)"/>
</g>
<defs>
<linearGradient id="paint0_linear_571_4384" x1="142.158" y1="6.18555" x2="142.158" y2="95.1651" gradientUnits="userSpaceOnUse">
<stop stop-color="white"/>
<stop offset="1" stop-color="white" stop-opacity="0"/>
</linearGradient>
<clipPath id="clip0_571_4384">
<rect width="285" height="63" fill="white" transform="matrix(-1 0 0 1 285 0)"/>
</clipPath>
</defs>
</svg>
