<svg width="280" height="76" viewBox="0 0 280 76" fill="none" xmlns="http://www.w3.org/2000/svg">
<g clip-path="url(#clip0_43_858)">
<path d="M57.0873 24.9879L56.9024 24.8614C49.2012 19.5896 43.0039 21.5705 40.3046 22.9535L40.077 23.0701L39.8493 22.9538C37.149 21.5755 30.9499 19.5898 23.249 24.8614L23.0641 24.9879L22.8466 24.9342L22.9666 24.4488C22.8466 24.9342 22.8463 24.9341 22.8459 24.934L22.8447 24.9337L22.8408 24.9327L22.8268 24.9292L22.7751 24.9158C22.7303 24.904 22.6651 24.8866 22.5813 24.8631C22.4137 24.8163 22.1718 24.7458 21.8699 24.6497C21.2665 24.4578 20.4223 24.1636 19.4538 23.7533C17.5225 22.935 15.0708 21.6439 13.054 19.7602C11.0323 17.872 9.42563 15.3655 9.2556 12.1352C9.10872 9.34468 10.0377 6.08348 12.5783 2.29061C12.5215 2.32496 12.4637 2.36016 12.4049 2.3962C11.1403 3.17208 9.44785 4.33712 7.73674 5.89261C4.30906 9.00853 0.849745 13.6497 0.531178 19.8371L0.531146 19.8377C0.28174 24.569 1.96115 28.0038 4.35757 30.4015C2.52891 26.9164 2.71789 23.0273 3.48366 19.8013C3.98294 17.698 4.7324 15.8488 5.35544 14.5272C5.66734 13.8656 5.94853 13.3342 6.15253 12.9669C6.25456 12.7832 6.33736 12.6404 6.39514 12.5427C6.42403 12.4939 6.44667 12.4564 6.46233 12.4306L6.48052 12.4009L6.48552 12.3928L6.48697 12.3905L6.48743 12.3898C6.48759 12.3895 6.48771 12.3893 6.91173 12.6543L6.48771 12.3893L7.38377 12.8191C4.60234 20.784 6.54815 26.337 9.1502 29.9046C10.4588 31.6988 11.9421 33.0013 13.0993 33.8553C13.6773 34.2818 14.1722 34.5951 14.5204 34.8006C14.6944 34.9034 14.8317 34.9791 14.9241 35.0286C14.9703 35.0533 15.0053 35.0714 15.0281 35.083L15.053 35.0956L15.0584 35.0982L15.0588 35.0985L15.0592 35.0987L15.0592 35.0987L15.5861 35.3555L15.2489 35.8354L14.8398 35.5479C15.2489 35.8354 15.2488 35.8355 15.2487 35.8356L15.2485 35.8359L15.2479 35.8368L15.2461 35.8394L15.24 35.8479L15.2178 35.8787C15.1986 35.9051 15.1705 35.9433 15.1334 35.9925C15.0592 36.091 14.949 36.2336 14.8022 36.4147C14.5086 36.7767 14.0682 37.2923 13.4751 37.9153C12.4258 39.0174 10.8979 40.4561 8.8589 41.974C9.48819 42.1303 10.4339 42.3171 11.6834 42.4324C14.1889 42.6636 17.9206 42.608 22.7775 41.4393C24.5202 41.02 26.3694 41.7122 27.9987 42.8418C29.6406 43.98 31.1456 45.6193 32.2413 47.2676L32.2415 47.2678C33.7383 49.5218 34.6115 52.5283 35.1122 54.9334C35.364 56.1428 35.5244 57.2141 35.6218 57.9835C35.6706 58.3685 35.7037 58.6783 35.7247 58.8928C35.7351 59 35.7426 59.0834 35.7474 59.1405L35.7529 59.206L35.7542 59.2233L35.7546 59.228L35.7547 59.2293L35.7547 59.2298C35.7547 59.2299 35.7547 59.23 35.2561 59.2669L35.7547 59.23L34.772 59.3921C33.5273 54.5789 31.9666 51.3515 30.3714 49.1965C28.9861 49.3594 27.5805 49.133 26.314 48.5397L26.3122 48.5389C25.019 47.9267 24.0241 46.9737 23.3589 46.1896C23.2906 46.1092 23.2256 46.0302 23.1639 45.9534C23.1743 47.6384 23.6347 49.2352 24.3356 50.7811C25.1239 52.5198 26.201 54.164 27.2647 55.7879C27.4083 56.007 27.5515 56.2257 27.6938 56.4442C28.8755 58.2589 29.9984 60.0737 30.5068 61.9013C31.0251 63.7643 30.908 65.6502 29.6253 67.5661L28.7303 67.1463C28.8302 66.808 28.9 66.4625 28.9395 66.1139C28.8969 66.1671 28.8548 66.2194 28.8132 66.271C28.7614 66.3353 28.7106 66.3984 28.6612 66.4603C28.2666 66.9545 27.9639 67.3692 27.8117 67.799C27.5481 68.5434 27.92 69.3435 29.0086 70.2256C30.073 71.0881 31.6564 71.8801 33.3298 72.5558C34.9944 73.228 36.71 73.7704 38.0126 74.1453C38.6632 74.3325 39.2089 74.4774 39.5915 74.5754C39.7828 74.6244 39.9331 74.6616 40.0353 74.6865C40.0501 74.6901 40.0639 74.6935 40.0766 74.6965C40.0893 74.6935 40.1031 74.6901 40.1178 74.6865C40.22 74.6616 40.3704 74.6244 40.5617 74.5754C40.9443 74.4774 41.4901 74.3325 42.1406 74.1453C43.4433 73.7705 45.1591 73.2283 46.8239 72.5564C48.4975 71.881 50.0814 71.0895 51.1463 70.2276C52.2357 69.346 52.6076 68.5468 52.3449 67.8041C52.1926 67.3742 51.8902 66.9594 51.4961 66.4655C51.4461 66.4028 51.3946 66.3389 51.3422 66.2738C51.3013 66.223 51.2598 66.1715 51.2179 66.1192C51.2574 66.468 51.327 66.8136 51.4266 67.1521L50.5314 67.5714C49.2487 65.6555 49.1316 63.7696 49.6499 61.9068C50.1583 60.0793 51.2812 58.2647 52.4628 56.4502C52.605 56.2318 52.7482 56.0132 52.8916 55.7943C53.9555 54.1704 55.0327 52.5261 55.821 50.7871C56.522 49.2411 56.9824 47.644 56.9928 45.9586C56.9311 46.0355 56.8661 46.1144 56.7978 46.1949C56.1326 46.979 55.1377 47.932 53.8445 48.5441L53.8427 48.545C52.5762 49.1383 51.1705 49.3647 49.7852 49.2018C48.19 51.3567 46.6295 54.5841 45.3865 59.3972L44.4037 59.2354L44.9023 59.2721C44.4037 59.2354 44.4037 59.2353 44.4037 59.2352L44.4038 59.2347L44.4039 59.2334L44.4042 59.2287L44.4056 59.2114L44.411 59.1459C44.4158 59.0889 44.4232 59.0055 44.4337 58.8982C44.4546 58.6838 44.4876 58.374 44.5363 57.9892C44.6336 57.2199 44.7937 56.1487 45.0453 54.9394C45.5456 52.5345 46.4184 49.528 47.9152 47.2731C49.0109 45.6221 50.516 43.9814 52.158 42.8431C53.7872 41.7136 55.6364 41.0226 57.3792 41.4446C62.236 42.6133 65.9682 42.6689 68.4741 42.4376C69.724 42.3223 70.67 42.1355 71.2995 41.9792C69.2604 40.4614 67.7322 39.0227 66.6825 37.9206C66.0892 37.2977 65.6486 36.782 65.3548 36.42C65.2079 36.239 65.0977 36.0964 65.0235 35.9979C64.9864 35.9487 64.9582 35.9105 64.939 35.8841L64.9168 35.8534L64.9107 35.8448L64.9089 35.8422L64.9083 35.8414L64.9081 35.8411C64.908 35.8409 64.9079 35.8408 65.3169 35.5532L64.9079 35.8408L64.5704 35.3608L57.0873 24.9879ZM57.0873 24.9879L57.3048 24.9342L57.1848 24.4488C57.3048 24.9342 57.3051 24.9341 57.3055 24.934L57.3067 24.9337L57.3106 24.9327L57.3246 24.9292L57.3763 24.9158C57.4211 24.904 57.4863 24.8866 57.5701 24.8631C57.7377 24.8163 57.9796 24.7458 58.2815 24.6497C58.8849 24.4578 59.7291 24.1636 60.6976 23.7533C62.629 22.935 65.0807 21.644 67.0976 19.7602C69.1194 17.872 70.7262 15.3656 70.8965 12.1352C71.0436 9.34479 70.115 6.08366 67.5749 2.2909C67.6315 2.32515 67.6891 2.36024 67.7477 2.39618C69.012 3.17205 70.7042 4.3371 72.4151 5.89259C75.8423 9.00851 79.3017 13.6497 79.622 19.8373C79.8673 24.5669 78.195 27.9962 75.8075 30.394C77.6289 26.9122 77.4391 23.0286 76.6739 19.8065C76.1744 17.7032 75.4247 15.854 74.8015 14.5324C74.4895 13.8708 74.2082 13.3394 74.0042 12.9721C73.9021 12.7884 73.8193 12.6456 73.7615 12.548C73.7326 12.4991 73.71 12.4616 73.6943 12.4358L73.6761 12.4061L73.6711 12.3981L73.6697 12.3957L73.6692 12.395C73.6691 12.3947 73.6689 12.3945 73.2449 12.6596L73.6689 12.3945L72.7729 12.8244C75.5543 20.7893 73.6085 26.3422 71.0065 29.9098C69.6978 31.7041 68.2146 33.0066 67.0573 33.8605C66.4793 34.2871 65.9845 34.6003 65.6363 34.8059C65.4622 34.9087 65.325 34.9844 65.2326 35.0338C65.1863 35.0585 65.1514 35.0767 65.1286 35.0883L65.1037 35.1009L65.0983 35.1035L65.0978 35.1038L65.0975 35.1039L57.0873 24.9879Z" fill="url(#paint0_linear_43_858)" stroke="url(#paint1_linear_43_858)"/>
</g>
<path fill-rule="evenodd" clip-rule="evenodd" d="M214.158 44.4792V55.312H221.3V44.6061L214.158 44.4792ZM204.973 44.3159L210.807 55.312H202.442L196.765 44.1699L204.973 44.3159ZM214.158 42.5193L221.3 42.4056V29.0924H214.158V42.5193ZM226.069 44.6909V55.312H233.211V44.8179L226.069 44.6909ZM233.211 42.216L226.069 42.3297V29.0924H232.966V33.764H233.113C233.83 32.1008 234.874 30.829 236.244 29.9485C237.63 29.0516 239.317 28.6032 241.307 28.6032C244.209 28.6032 246.451 29.4674 248.033 31.1958C249.614 32.9243 250.405 35.3293 250.405 38.4111V41.9422L243.263 42.0559V39.9031C243.263 38.1747 242.856 36.8458 242.04 35.9163C241.225 34.9869 240.027 34.5222 238.445 34.5222C236.863 34.5222 235.591 35.0521 234.629 36.112C233.684 37.1719 233.211 38.5579 233.211 40.27V42.216ZM243.263 44.9966V55.312H250.405V45.1236L243.263 44.9966ZM254.184 45.1908C254.562 47.824 255.455 49.9992 256.862 51.7166C258.803 54.0646 261.387 55.2386 264.616 55.2386C266.491 55.2386 268.154 54.8146 269.605 53.9668C271.056 53.1025 272.092 51.9612 272.711 50.5426H272.858V55.1408C272.858 56.6898 272.353 57.9209 271.342 58.834C270.331 59.7634 268.92 60.2281 267.11 60.2281C265.773 60.2281 264.616 59.9428 263.637 59.3721C262.675 58.8177 262.056 58.0839 261.778 57.1708H254.783C255.077 59.5351 256.316 61.4592 258.501 62.943C260.702 64.4432 263.507 65.1932 266.915 65.1932C270.861 65.1932 274.024 64.2638 276.405 62.4049C278.802 60.5461 280 58.0595 280 54.9451V45.6498L272.427 45.5151C272.164 46.3626 271.785 47.1008 271.293 47.7298C270.249 49.0669 268.831 49.7354 267.037 49.7354C265.26 49.7354 263.857 49.0669 262.83 47.7298C262.315 47.0591 261.929 46.2572 261.672 45.3239L254.184 45.1908ZM272.872 41.5846C272.793 39.485 272.266 37.7913 271.293 36.5034C270.233 35.1011 268.814 34.3999 267.037 34.3999C265.276 34.3999 263.874 35.1011 262.83 36.5034C261.859 37.8139 261.347 39.5691 261.294 41.7689L253.977 41.8854C254.01 37.8312 254.972 34.6267 256.862 32.272C258.786 29.8751 261.412 28.6766 264.738 28.6766C266.597 28.6766 268.236 29.125 269.654 30.0218C271.073 30.9186 272.133 32.1334 272.834 33.6662H272.956V29.0924H280V41.4711L272.872 41.5846ZM204.105 42.6793L196.071 42.8072L195.863 42.3979H189.944V42.9048L182.557 43.0223V20.0183H197.012C201.04 20.0183 204.17 21.0211 206.404 23.0267C208.654 25.016 209.78 27.7635 209.78 31.2692C209.78 33.5683 209.209 35.6228 208.067 37.4328C206.942 39.2264 205.377 40.5146 203.371 41.2972L204.105 42.6793ZM182.557 43.9173V55.312H189.944V44.0487L182.557 43.9173ZM177.127 43.8208V55.312H169.986V43.6938L177.127 43.8208ZM177.127 43.1088V20.0183H169.986V43.2225L177.127 43.1088ZM164.996 43.3019V20.0183H157.854V43.4156L164.996 43.3019ZM157.854 43.4782V55.312H164.996V43.6051L157.854 43.4782ZM217.729 26.2063C218.805 26.2063 219.71 25.8476 220.444 25.1301C221.177 24.4127 221.544 23.5403 221.544 22.5131C221.544 21.4695 221.177 20.5971 220.444 19.896C219.71 19.1785 218.805 18.8198 217.729 18.8198C216.652 18.8198 215.747 19.1785 215.014 19.896C214.28 20.5971 213.913 21.4695 213.913 22.5131C213.913 23.5403 214.28 24.4127 215.014 25.1301C215.747 25.8476 216.652 26.2063 217.729 26.2063ZM97.3926 55.312H113.022C116.788 55.312 119.764 54.407 121.949 52.5971C124.134 50.7871 125.226 48.325 125.226 45.2106C125.226 42.8952 124.444 40.9385 122.878 39.3405C121.313 37.7426 119.324 36.8539 116.91 36.6746V36.4789C118.802 36.2017 120.375 35.3375 121.631 33.8863C122.903 32.4351 123.539 30.7474 123.539 28.8234C123.539 26.1166 122.569 23.9724 120.628 22.3908C118.688 20.8091 116.063 20.0183 112.753 20.0183H97.3926V55.312ZM104.779 34.6934V25.5215H110.845C112.573 25.5215 113.91 25.9128 114.856 26.6955C115.802 27.4618 116.275 28.5543 116.275 29.9729C116.275 31.473 115.736 32.6389 114.66 33.4705C113.584 34.2858 112.06 34.6934 110.087 34.6934H104.779ZM111.138 49.8088H104.779V39.5607H110.967C113.152 39.5607 114.815 39.9928 115.957 40.857C117.114 41.7212 117.693 42.9767 117.693 44.6236C117.693 46.3031 117.131 47.5912 116.006 48.488C114.897 49.3685 113.274 49.8088 111.138 49.8088ZM153.036 55.312V29.0924H145.894V44.11C145.894 45.8547 145.429 47.2488 144.5 48.2924C143.57 49.3359 142.315 49.8577 140.733 49.8577C139.151 49.8577 137.937 49.4012 137.089 48.488C136.257 47.5749 135.841 46.246 135.841 44.5013V29.0924H128.7V45.9933C128.7 49.0261 129.556 51.4231 131.268 53.1841C132.98 54.9288 135.271 55.8011 138.141 55.8011C142.005 55.8011 144.622 54.0646 145.992 50.5915H146.138V55.312H153.036ZM189.944 25.7905V37.0414H196.303C198.162 37.0414 199.605 36.5441 200.632 35.5495C201.676 34.5548 202.197 33.177 202.197 31.416C202.197 29.7039 201.659 28.3424 200.583 27.3314C199.507 26.3041 198.056 25.7905 196.23 25.7905H189.944Z" fill="white"/>
<defs>
<linearGradient id="paint0_linear_43_858" x1="40.0762" y1="0.789551" x2="3.96092" y2="76.8074" gradientUnits="userSpaceOnUse">
<stop stop-color="#1783B0"/>
<stop offset="1" stop-color="#DC67EE"/>
</linearGradient>
<linearGradient id="paint1_linear_43_858" x1="40.0762" y1="0.789551" x2="40.0762" y2="75.2106" gradientUnits="userSpaceOnUse">
<stop stop-color="white"/>
<stop offset="1" stop-color="white" stop-opacity="0.3"/>
</linearGradient>
<clipPath id="clip0_43_858">
<rect width="80.1458" height="74.4211" fill="white" transform="translate(0 0.789551)"/>
</clipPath>
</defs>
</svg>
