<svg width="31" height="30" viewBox="0 0 31 30" fill="none" xmlns="http://www.w3.org/2000/svg">
<g clip-path="url(#clip0_108_276)">
<path d="M10.2717 16.3886L9.83868 22.4168C10.4582 22.4168 10.7265 22.1534 11.0483 21.8371L13.9529 19.0896L19.9717 23.4521C21.0755 24.0609 21.8532 23.7403 22.151 22.447L26.1016 4.12498L26.1027 4.1239C26.4528 2.5089 25.5126 1.87737 24.4371 2.27356L1.21528 11.0729C-0.369567 11.6818 -0.345571 12.5562 0.945866 12.9524L6.88277 14.7801L20.673 6.23981C21.322 5.81447 21.9121 6.04981 21.4267 6.47515L10.2717 16.3886Z" fill="white"/>
<g clip-path="url(#clip1_108_276)">
<path d="M27.735 25.741C28.5099 24.9181 28.9324 23.9008 28.9324 22.8409C28.9324 21.5147 28.2705 20.3136 27.2103 19.4614C27.1861 22.5 24.299 24.9713 20.7526 24.9713H18.3525C19.2808 26.4866 21.167 27.5279 23.3357 27.5279H28.5019C28.6768 27.5279 28.8328 27.424 28.9001 27.2643C28.9673 27.1045 28.9297 26.9207 28.8059 26.8009L27.735 25.741Z" fill="white"/>
<path d="M20.7526 14.2451C17.4771 14.2451 14.656 16.4907 14.656 19.4321C14.656 20.4724 15.0169 21.4647 15.6713 22.3038L14.9307 23.0368L15.2824 23.3921L14.9307 23.0368C14.6659 23.2988 14.5783 23.6995 14.728 24.0509C14.8739 24.3958 15.2115 24.6192 15.5865 24.6192H20.7526C24.0282 24.6192 26.8493 22.3736 26.8493 19.4321C26.8493 16.4907 24.0282 14.2451 20.7526 14.2451Z" fill="#AAA1DF" stroke="white"/>
<path d="M23.3359 18.1538H18.1698C17.933 18.1538 17.7393 18.3456 17.7393 18.5799C17.7393 18.8143 17.933 19.006 18.1698 19.006H23.3359C23.5727 19.006 23.7664 18.8143 23.7664 18.5799C23.7664 18.3456 23.5727 18.1538 23.3359 18.1538Z" fill="white"/>
<path d="M21.6139 19.8584H18.1698C17.933 19.8584 17.7393 20.0501 17.7393 20.2845C17.7393 20.5188 17.933 20.7106 18.1698 20.7106H21.6139C21.8506 20.7106 22.0444 20.5188 22.0444 20.2845C22.0444 20.0501 21.8506 19.8584 21.6139 19.8584Z" fill="white"/>
</g>
</g>
<defs>
<clipPath id="clip0_108_276">
<rect width="31" height="30" fill="white"/>
</clipPath>
<clipPath id="clip1_108_276">
<rect width="16.5333" height="15" fill="white" transform="translate(12.3999 12.9546)"/>
</clipPath>
</defs>
</svg>
