<svg width="30" height="29" viewBox="0 0 30 29" fill="none" xmlns="http://www.w3.org/2000/svg">
<g clip-path="url(#clip0_108_284)">
<path d="M10.1828 16.4152L9.75353 22.4532C10.3677 22.4532 10.6337 22.1893 10.9527 21.8725L13.8322 19.1206L19.7988 23.4901C20.8931 24.1 21.6641 23.7788 21.9592 22.4834L25.8757 4.1316L25.8768 4.13052C26.2239 2.51289 25.2918 1.88033 24.2257 2.27717L1.20476 11.0908C-0.366369 11.7007 -0.34258 12.5766 0.93768 12.9734L6.8232 14.804L20.4941 6.24987C21.1375 5.82383 21.7224 6.05956 21.2413 6.48559L10.1828 16.4152Z" fill="white"/>
</g>
<g clip-path="url(#clip1_108_284)">
<path d="M22.9171 24.4149L23.1851 24.2719L28.2508 21.5701C28.536 21.4248 28.7125 21.1495 28.7585 20.8628L28.7589 20.8604C28.8083 20.5434 28.6959 20.2449 28.4948 20.0344L28.4949 20.0343L28.4867 20.0261L27.5592 19.0994C27.6056 19.1062 27.6531 19.1097 27.7013 19.1097H28.6404C29.1762 19.1097 29.6099 18.6755 29.6099 18.1402C29.6099 17.6049 29.1762 17.1707 28.6404 17.1707H27.7013C27.1655 17.1707 26.7318 17.6049 26.7318 18.1402C26.7318 18.1887 26.7354 18.2364 26.7423 18.283L24.27 15.8126C24.3172 15.8197 24.3655 15.8234 24.4148 15.8234C24.9506 15.8234 25.3843 15.3891 25.3843 14.8538V13.9148C25.3843 13.3796 24.9506 12.9453 24.4148 12.9453C23.8789 12.9453 23.4452 13.3796 23.4452 13.9148V14.8538C23.4452 14.9033 23.4489 14.9519 23.4561 14.9994L22.5131 14.0571C22.2992 13.8364 21.9877 13.7282 21.6788 13.7775C21.3777 13.8251 21.115 14.0071 20.9692 14.2793L20.968 14.2816L18.2777 19.3665L18.105 19.6928L18.3661 19.9539L18.4609 20.0487L18.1501 20.3596L16.8214 21.6883L16.8199 21.6898C16.362 22.1515 16.1877 22.7941 16.2988 23.3922L16.0041 22.7771L15.6006 23.9067C15.3026 24.7411 15.4931 25.7107 16.1593 26.3769L16.1594 26.377C16.6084 26.8257 17.2044 27.0774 17.8416 27.0774C18.1155 27.0774 18.3837 27.0298 18.6342 26.9404L19.776 26.5328L19.1586 26.2425C19.4701 26.2988 19.7932 26.2777 20.0962 26.1791L20.003 26.2391L20.4413 26.6774L21.3051 27.5413C21.6204 27.8566 22.0437 28.0304 22.4897 28.0304C22.9356 28.0304 23.3592 27.8567 23.6745 27.5411L23.6762 27.5394C24.3242 26.8845 24.3242 25.8289 23.6762 25.1739L23.6743 25.1721L22.9171 24.4149ZM26.9783 16.9477L27.9173 16.0086C28.296 15.63 28.296 15.0163 27.9173 14.6376C27.5387 14.259 26.925 14.259 26.5463 14.6376L25.6073 15.5766C25.2286 15.9553 25.2286 16.569 25.6073 16.9477C25.7965 17.1368 26.0454 17.2317 26.2928 17.2317C26.5402 17.2317 26.7891 17.1368 26.9783 16.9477Z" fill="white" stroke="#8499D3"/>
</g>
<defs>
<clipPath id="clip0_108_284">
<rect width="25.9512" height="26.878" fill="white"/>
</clipPath>
<clipPath id="clip1_108_284">
<rect width="15" height="17" fill="white" transform="translate(15 12)"/>
</clipPath>
</defs>
</svg>
