<svg width="22" height="19" viewBox="0 0 22 19" fill="none" xmlns="http://www.w3.org/2000/svg">
<path d="M22 2.24914C21.1905 2.63061 20.3207 2.88847 19.4077 3.00441C20.3395 2.41079 21.0552 1.47081 21.3923 0.350693C20.52 0.900433 19.5542 1.29957 18.526 1.51465C17.7027 0.582434 16.5297 0 15.2314 0C12.7388 0 10.7179 2.14749 10.7179 4.79642C10.7179 5.17236 10.7578 5.53844 10.8348 5.88955C7.08364 5.68945 3.75782 3.77991 1.5317 0.877875C1.14318 1.58629 0.920561 2.41024 0.920561 3.2893C0.920561 4.95345 1.71737 6.42162 2.92849 7.28177C2.18861 7.25684 1.49265 7.04108 0.884166 6.6818C0.883736 6.7018 0.883737 6.7219 0.883737 6.74212C0.883737 9.06611 2.43959 11.0047 4.50432 11.4454C4.12564 11.555 3.72684 11.6138 3.3152 11.6138C3.02435 11.6138 2.74162 11.5837 2.46597 11.5276C3.04038 13.4331 4.70722 14.8201 6.68231 14.8587C5.13759 16.1453 3.19141 16.912 1.07671 16.912C0.712377 16.912 0.353117 16.8894 0 16.8448C1.99744 18.2059 4.36996 19 6.91886 19C15.2209 19 19.7608 11.6911 19.7608 5.35255C19.7608 5.1446 19.7563 4.93774 19.7477 4.73199C20.6297 4.05576 21.3949 3.21099 22 2.24914Z" fill="white"/>
</svg>
