<svg width="11" height="14" viewBox="0 0 11 14" fill="none" xmlns="http://www.w3.org/2000/svg">
<path fill-rule="evenodd" clip-rule="evenodd" d="M10.0599 0.67071C9.71817 0.329002 9.16415 0.329002 8.82244 0.67071L3.19499 6.29816C2.85328 6.63987 2.85328 7.19389 3.19499 7.5356L8.82244 13.163C9.16415 13.5048 9.71817 13.5048 10.0599 13.163C10.4016 12.8213 10.4016 12.2673 10.0599 11.9256L5.05115 6.91688L10.0599 1.90815C10.4016 1.56644 10.4016 1.01242 10.0599 0.67071Z" fill="#9E9EA8"/>
<path fill-rule="evenodd" clip-rule="evenodd" d="M1 0.414551C1.48325 0.414551 1.875 0.806302 1.875 1.28955V12.5445C1.875 13.0277 1.48325 13.4195 1 13.4195C0.516751 13.4195 0.125 13.0277 0.125 12.5445V1.28955C0.125 0.806302 0.516751 0.414551 1 0.414551Z" fill="#9E9EA8"/>
</svg>
