<svg width="11" height="14" viewBox="0 0 11 14" fill="none" xmlns="http://www.w3.org/2000/svg">
<path fill-rule="evenodd" clip-rule="evenodd" d="M0.939875 0.67071C1.28158 0.329002 1.8356 0.329002 2.17731 0.67071L7.80476 6.29816C8.14647 6.63987 8.14647 7.19389 7.80476 7.5356L2.17731 13.163C1.8356 13.5048 1.28158 13.5048 0.939875 13.163C0.598167 12.8213 0.598167 12.2673 0.939875 11.9256L5.94861 6.91688L0.939875 1.90815C0.598167 1.56644 0.598167 1.01242 0.939875 0.67071Z" fill="#9E9EA8"/>
<path fill-rule="evenodd" clip-rule="evenodd" d="M10 0.414551C9.51675 0.414551 9.125 0.806302 9.125 1.28955V12.5445C9.125 13.0277 9.51675 13.4195 10 13.4195C10.4832 13.4195 10.875 13.0277 10.875 12.5445V1.28955C10.875 0.806302 10.4832 0.414551 10 0.414551Z" fill="#9E9EA8"/>
</svg>
