<svg width="25" height="24" viewBox="0 0 25 24" fill="none" xmlns="http://www.w3.org/2000/svg">
<path fill-rule="evenodd" clip-rule="evenodd" d="M2.28197 0.075437C0.884288 0.443197 -0.00226488 1.67243 0.111375 3.08518C0.22675 4.51953 1.26166 5.5524 2.69885 5.66755C5.17575 5.86595 6.67757 3.07326 5.16104 1.08894C4.56221 0.305223 3.21324 -0.169634 2.28197 0.075437ZM20.8646 0.128221C20.1962 0.339156 19.8342 0.567108 19.4431 1.02301C18.5023 2.11987 18.5792 3.84852 19.6128 4.84368C20.3044 5.5094 20.6341 5.63942 21.6303 5.63901C22.6708 5.63861 23.118 5.44428 23.7641 4.71172C25.1251 3.16853 24.4101 0.729742 22.4241 0.141163C21.8022 -0.0431754 21.4178 -0.0464365 20.8646 0.128221ZM11.4712 9.2465C9.29363 9.81949 8.54379 12.4807 10.1238 14.0284C11.2683 15.1493 12.9973 15.139 14.1296 14.0046C15.863 12.2678 14.7667 9.38213 12.3058 9.20411C12.0153 9.18312 11.6396 9.20218 11.4712 9.2465ZM1.62657 18.6454C0.562667 19.176 0.0215248 20.1438 0.10872 21.3599C0.184276 22.4139 0.70806 23.2172 1.62065 23.6788C3.5318 24.6453 5.73884 23.3181 5.74374 21.1993C5.74874 19.0192 3.57764 17.6725 1.62657 18.6454ZM20.6826 18.4742C18.7624 19.158 18.1457 21.5222 19.49 23.0463C20.9624 24.7157 23.7194 24.0772 24.3474 21.9215C24.9766 19.7612 22.805 17.7185 20.6826 18.4742Z" fill="url(#paint0_linear_284_4745)"/>
<defs>
<linearGradient id="paint0_linear_284_4745" x1="12.2323" y1="7.97853e-08" x2="0.185922" y2="24.0024" gradientUnits="userSpaceOnUse">
<stop stop-color="#1783B0"/>
<stop offset="1" stop-color="#DC67EE"/>
</linearGradient>
</defs>
</svg>
