<svg width="13" height="13" viewBox="0 0 13 13" fill="none" xmlns="http://www.w3.org/2000/svg">
<path d="M4.73637 7.17222C4.73637 7.00937 4.60428 6.87744 4.4413 6.87744H3.41161C3.24882 6.87744 3.1167 7.00937 3.1167 7.17222V8.20178C3.1167 8.36484 3.24882 8.49682 3.41161 8.49682H4.4413C4.60428 8.49682 4.73637 8.36484 4.73637 8.20178V7.17222Z" fill="#1A1A1A"/>
<path d="M7.30994 7.17222C7.30994 7.00937 7.17783 6.87744 7.01516 6.87744H5.98534C5.82255 6.87744 5.69043 7.00937 5.69043 7.17222V8.20178C5.69043 8.36484 5.82255 8.49682 5.98534 8.49682H7.01516C7.17783 8.49682 7.30994 8.36484 7.30994 8.20178V7.17222Z" fill="#1A1A1A"/>
<path d="M9.88335 7.17222C9.88335 7.00937 9.75123 6.87744 9.58843 6.87744H8.55874C8.39576 6.87744 8.26367 7.00937 8.26367 7.17222V8.20178C8.26367 8.36484 8.39576 8.49682 8.55874 8.49682H9.58843C9.75123 8.49682 9.88335 8.36484 9.88335 8.20178V7.17222Z" fill="#1A1A1A"/>
<path d="M4.73637 9.74562C4.73637 9.58251 4.60428 9.45068 4.4413 9.45068H3.41161C3.24882 9.45068 3.1167 9.58251 3.1167 9.74562V10.775C3.1167 10.9379 3.24882 11.0699 3.41161 11.0699H4.4413C4.60428 11.0699 4.73637 10.9379 4.73637 10.775V9.74562Z" fill="#1A1A1A"/>
<path d="M7.30994 9.74562C7.30994 9.58251 7.17783 9.45068 7.01516 9.45068H5.98534C5.82255 9.45068 5.69043 9.58251 5.69043 9.74562V10.775C5.69043 10.9379 5.82255 11.0699 5.98534 11.0699H7.01516C7.17783 11.0699 7.30994 10.9379 7.30994 10.775V9.74562Z" fill="#1A1A1A"/>
<path d="M9.88335 9.74562C9.88335 9.58251 9.75123 9.45068 9.58857 9.45068H8.55874C8.39576 9.45068 8.26367 9.58251 8.26367 9.74562V10.775C8.26367 10.9379 8.39576 11.0699 8.55874 11.0699H9.58857C9.75123 11.0699 9.88335 10.9379 9.88335 10.775V9.74562Z" fill="#1A1A1A"/>
<path d="M11.7244 1.44754V3.0201C11.7244 3.73089 11.1478 4.30367 10.4371 4.30367H9.62502C8.91429 4.30367 8.33003 3.73089 8.33003 3.0201V1.44189H4.66986V3.0201C4.66986 3.73089 4.08562 4.30367 3.375 4.30367H2.56278C1.85213 4.30367 1.27554 3.73089 1.27554 3.0201V1.44754C0.654427 1.46626 0.144043 1.98021 0.144043 2.61193V11.8279C0.144043 12.4715 0.665692 13.0001 1.30928 13.0001H11.6906C12.3332 13.0001 12.8558 12.4704 12.8558 11.8279V2.61193C12.8558 1.98021 12.3455 1.46626 11.7244 1.44754ZM11.3472 11.254C11.3472 11.5321 11.1217 11.7578 10.8434 11.7578H2.13426C1.85602 11.7578 1.63051 11.5321 1.63051 11.254V6.49362C1.63051 6.21538 1.85599 5.98973 2.13426 5.98973H10.8434C11.1217 5.98973 11.3472 6.21538 11.3472 6.49362L11.3472 11.254Z" fill="#1A1A1A"/>
<path d="M2.56014 3.46057H3.36339C3.60719 3.46057 3.80488 3.26318 3.80488 3.01937V0.441356C3.80488 0.197522 3.60719 0 3.36339 0H2.56014C2.31631 0 2.11865 0.197522 2.11865 0.441356V3.01937C2.11865 3.26318 2.31631 3.46057 2.56014 3.46057Z" fill="#1A1A1A"/>
<path d="M9.6148 3.46057H10.418C10.6617 3.46057 10.8594 3.26318 10.8594 3.01937V0.441356C10.8594 0.197522 10.6617 0 10.418 0H9.6148C9.37102 0 9.17334 0.197522 9.17334 0.441356V3.01937C9.17334 3.26318 9.37102 3.46057 9.6148 3.46057Z" fill="#1A1A1A"/>
</svg>
