<svg width="14" height="14" viewBox="0 0 14 14" fill="none" xmlns="http://www.w3.org/2000/svg">
<path d="M9.06559 7.42269L7.66683 6.6154V3.66683C7.66683 3.49002 7.59659 3.32045 7.47157 3.19543C7.34655 3.0704 7.17698 3.00016 7.00017 3.00016C6.82336 3.00016 6.65379 3.0704 6.52876 3.19543C6.40374 3.32045 6.3335 3.49002 6.3335 3.66683V7.00016C6.33347 7.11721 6.36426 7.2322 6.42277 7.33357C6.48129 7.43495 6.56546 7.51912 6.66683 7.57764L8.39893 8.57764C8.47476 8.62146 8.55849 8.64992 8.64533 8.66138C8.73217 8.67284 8.82041 8.66707 8.90502 8.64441C8.98963 8.62176 9.06895 8.58265 9.13844 8.52934C9.20793 8.47602 9.26624 8.40953 9.31003 8.33367C9.35382 8.25781 9.38223 8.17406 9.39364 8.08722C9.40506 8.00038 9.39925 7.91213 9.37655 7.82754C9.35385 7.74294 9.3147 7.66364 9.26135 7.59418C9.20799 7.52471 9.14147 7.46644 9.06559 7.42269ZM7.00017 0.333496C5.68162 0.333496 4.39269 0.724489 3.29636 1.45703C2.20004 2.18957 1.34555 3.23077 0.840969 4.44894C0.336385 5.66711 0.204362 7.00756 0.461597 8.30077C0.718832 9.59397 1.35377 10.7819 2.28612 11.7142C3.21847 12.6466 4.40636 13.2815 5.69956 13.5387C6.99277 13.796 8.33322 13.6639 9.55139 13.1594C10.7696 12.6548 11.8108 11.8003 12.5433 10.704C13.2758 9.60764 13.6668 8.31871 13.6668 7.00016C13.6649 5.23266 12.9619 3.53811 11.712 2.28829C10.4622 1.03847 8.76767 0.335462 7.00017 0.333496ZM7.00017 12.3335C5.94533 12.3335 4.91419 12.0207 4.03712 11.4347C3.16006 10.8486 2.47648 10.0157 2.07281 9.04114C1.66914 8.0666 1.56352 6.99425 1.76931 5.95968C1.9751 4.92512 2.48305 3.97481 3.22893 3.22893C3.97481 2.48305 4.92512 1.9751 5.95968 1.76931C6.99425 1.56352 8.06661 1.66914 9.04114 2.07281C10.0157 2.47647 10.8486 3.16006 11.4347 4.03712C12.0207 4.91418 12.3335 5.94533 12.3335 7.00016C12.3319 8.41415 11.7695 9.76977 10.7696 10.7696C9.76977 11.7695 8.41416 12.3319 7.00017 12.3335Z" fill="#666666"/>
</svg>
