<svg width="12" height="19" viewBox="0 0 12 19" fill="none" xmlns="http://www.w3.org/2000/svg">
<path d="M11.9722 1.80241C11.9722 0.919945 11.2543 0.166504 10.3718 0.166504H1.83667C0.954206 0.166504 0.236328 0.919945 0.236328 1.80241V2.33586H11.9722V1.80241Z" fill="white"/>
<path d="M0.236328 16.739C0.236328 17.6215 0.954206 18.3749 1.83667 18.3749H10.3718C11.2543 18.3749 11.9722 17.6215 11.9722 16.739V16.2056H0.236328V16.739Z" fill="white"/>
<path d="M5.03021 9.00177L4.83433 10.139L5.85641 9.60243C6.00724 9.52192 6.19611 9.51904 6.35234 9.60243L7.37443 10.139L7.17854 9.00177C7.14938 8.82883 7.20667 8.65222 7.33275 8.52981L8.15895 7.72391L7.01598 7.55773C6.84304 7.53273 6.69197 7.42333 6.61487 7.266L6.10439 6.23193L5.59389 7.266C5.51678 7.42333 5.36571 7.53273 5.19277 7.55773L4.0498 7.72391L4.87601 8.52981C5.00208 8.65222 5.05937 8.82883 5.03021 9.00177Z" fill="white"/>
<path d="M0.236328 15.1387H11.9722V3.40283H0.236328V15.1387ZM3.97046 14.0718C3.67585 14.0718 3.43701 13.8329 3.43701 13.5383C3.43701 13.2437 3.67585 13.0049 3.97046 13.0049C4.26506 13.0049 4.50391 13.2437 4.50391 13.5383C4.50391 13.8329 4.26506 14.0718 3.97046 14.0718ZM6.10425 14.0718C5.80964 14.0718 5.5708 13.8329 5.5708 13.5383C5.5708 13.2437 5.80964 13.0049 6.10425 13.0049C6.39885 13.0049 6.6377 13.2437 6.6377 13.5383C6.6377 13.8329 6.39885 14.0718 6.10425 14.0718ZM8.23804 14.0718C7.94343 14.0718 7.70459 13.8329 7.70459 13.5383C7.70459 13.2437 7.94343 13.0049 8.23804 13.0049C8.53264 13.0049 8.77148 13.2437 8.77148 13.5383C8.77148 13.8329 8.53264 14.0718 8.23804 14.0718ZM2.39615 7.18696C2.45867 6.99368 2.62642 6.85303 2.82646 6.82386L4.76124 6.54256L5.626 4.79061C5.8052 4.42595 6.40323 4.42595 6.58247 4.79061L7.44722 6.54256L9.382 6.82386C9.58204 6.85303 9.74979 6.99368 9.81231 7.18696C9.87483 7.37972 9.82273 7.59174 9.67685 7.73343L8.27758 9.09777L8.60889 11.0242C8.64328 11.2243 8.56095 11.4264 8.39633 11.5457C8.23775 11.6615 8.02028 11.684 7.83475 11.5863L6.10425 10.6773L4.37367 11.5864C4.19447 11.6812 3.97672 11.6656 3.8121 11.5457C3.64747 11.4264 3.56518 11.2243 3.59954 11.0243L3.93084 9.09781L2.53157 7.73346C2.38573 7.59174 2.33366 7.37972 2.39615 7.18696Z" fill="white"/>
</svg>
