<svg width="18" height="18" viewBox="0 0 18 18" fill="none" xmlns="http://www.w3.org/2000/svg">
<path d="M17.8232 6.58227C17.7513 6.51123 17.6627 6.46142 17.5666 6.43777L12.2803 5.15572L9.48851 0.287376C9.3296 0.0080097 8.98483 -0.0833795 8.71846 0.083201C8.63842 0.13327 8.57152 0.203436 8.52377 0.287376L5.71876 5.15572L0.432509 6.43777C0.130615 6.5127 -0.0562215 6.83001 0.0152255 7.14663C0.0357923 7.23802 0.0769256 7.32283 0.135157 7.39412L3.70007 11.6907L3.23092 17.3595C3.20217 17.6815 3.42783 17.9669 3.73485 17.9971C3.82785 18.0062 3.92152 17.9907 4.00733 17.952L9.00284 15.7309L13.9587 17.9312C14.2328 18.0837 14.5727 17.9742 14.718 17.6868C14.7688 17.5864 14.7908 17.4727 14.7814 17.3595L14.3089 11.6907L17.8474 7.41491C18.06 7.17799 18.0491 6.80524 17.8232 6.58227Z" fill="#F2D19B"/>
</svg>
