<svg width="431" height="144" viewBox="0 0 431 144" fill="none" xmlns="http://www.w3.org/2000/svg">
<g opacity="0.2" clip-path="url(#clip0_108_892)">
<path d="M75.9082 159.237C74.0736 157.518 72.5068 155.685 71.5051 153.438C71.0335 152.389 70.1107 151.453 69.2154 150.616C67.7036 149.204 66.0157 147.942 64.4654 146.562C61.1447 143.612 57.846 140.638 54.5693 137.641C52.6191 135.866 50.5459 134.172 48.814 132.232C45.0841 128.065 40.4883 125.184 34.7972 123.504C32.6598 122.876 31.1792 123.325 29.6014 124.449C28.7006 125.092 27.6714 125.597 26.666 126.118C24.6479 127.174 22.5729 128.162 20.5694 129.244C18.1954 130.527 15.9185 131.958 13.5096 133.177C9.20182 135.371 4.48307 136.947 0.75688 140.012C0.711014 140.05 0.520224 139.945 0.267041 139.868C0.973385 138.509 2.17325 137.592 3.51989 136.851C5.45179 135.787 7.43875 134.802 9.42386 133.82C11.9208 132.586 14.4802 131.445 16.9368 130.152C18.2522 129.458 19.3585 128.452 20.652 127.718C23.8479 125.902 27.4145 124.671 30.4692 122.604C31.7296 121.752 32.8121 120.904 33.5514 119.64C34.4908 118.029 35.9035 116.713 37.8978 116.261C41.9707 115.338 45.4198 113.497 48.6947 111.202C50.0395 110.258 51.7531 109.716 53.3401 109.072C54.2005 108.724 55.1747 108.593 56.0517 108.282C56.459 108.136 56.7856 107.79 57.4479 107.313C55.8132 107.197 54.5528 107.277 53.4116 106.985C50.9422 106.37 48.5149 105.615 46.1042 104.831C43.2751 103.912 40.4516 103.04 37.4134 102.833C36.3254 102.76 35.2595 102.465 34.1789 102.301C31.8397 101.948 29.4803 101.298 27.2072 102.515C23.8369 104.318 20.1291 105.412 16.48 106.626C16.0635 106.706 15.6488 106.79 15.2416 106.895C15.0358 106.951 14.8342 107.019 14.6379 107.098C13.1996 107.238 11.7575 107.352 10.3265 107.551C9.88801 107.611 9.44586 107.68 9.00371 107.757C7.93961 107.821 6.89018 107.908 5.83892 107.97C4.01711 108.077 2.20079 109.019 -0.0319875 107.97C0.633994 107.654 1.00826 107.354 1.43574 107.297C5.12891 106.79 8.81657 106.208 12.5318 105.895C14.5754 105.738 16.5473 105.147 18.2834 104.171C19.2613 103.627 20.3621 103.246 21.4372 102.86C22.5123 102.473 23.6388 102.155 24.7561 101.84C25.6294 101.593 26.0055 101.114 26.1284 100.283C26.3559 98.7291 26.5944 97.1556 27.0953 95.6624C29.2969 89.1192 32.4525 82.9448 36.2558 77.0278C40.8699 69.8552 46.8435 63.6038 52.8741 57.3868C55.982 54.184 59.7706 51.7303 63.6637 49.3979C65.9717 48.0146 68.3623 46.7345 70.7804 45.5117C72.1652 44.7896 73.6359 44.208 75.1652 43.7776C77.8126 43.0711 80.5187 42.5204 83.2248 42.0057C84.5458 41.7533 85.9401 41.8156 87.2611 41.5828C91.2717 40.8813 95.2474 40.0061 99.2726 39.3799C104.245 38.6046 109.249 37.9949 114.247 37.3508C115.693 37.1361 117.155 37.0188 118.621 37C123.16 37.0328 127.699 37.1344 132.236 37.2606C133.188 37.2889 134.132 37.4373 135.037 37.7015C139.551 39.0226 144.108 40.2519 148.528 41.7992C153.907 43.6759 159.372 45.392 164.392 48.0277C168.698 50.2945 172.78 52.7925 176.288 55.9952C176.982 56.669 177.717 57.3087 178.49 57.9113C183.81 61.8155 188.116 66.4935 191.958 71.5533C195.6 76.3476 198.35 81.5516 200.744 86.8999C201.845 89.3815 202.733 91.9565 203.551 94.5298C204.125 96.3328 204.421 98.2128 204.806 99.901C206.178 100.535 207.334 101.298 208.626 101.62C211.73 102.399 214.39 103.892 216.984 105.48C220.18 107.447 223.259 109.552 226.407 111.573C228.508 112.922 230.858 113.477 233.454 113.314C235.355 113.194 237.265 113.222 239.167 113.135C240.918 113.053 242.664 112.912 244.411 112.786C245.357 112.717 246.299 112.578 247.245 112.55C251.32 112.425 255.186 111.493 258.958 110.188C261.893 109.175 264.748 107.987 267.737 107.149C270.221 106.454 272.382 105.136 275.114 104.841C280.113 104.302 284.916 104.677 289.58 106.233C291.761 106.962 293.704 108.314 295.917 108.895C299.333 109.791 302.445 111.189 305.558 112.645C306.31 112.999 307.229 113.333 308.039 113.279C310.581 113.115 312.977 113.75 315.315 114.359C318.03 115.067 320.6 116.216 323.222 117.198C326.668 118.485 330.126 119.744 333.533 121.111C336.43 122.273 339.325 122.863 342.424 121.809C345.291 120.825 348.133 119.78 351.047 118.96C354.811 117.905 358.655 117.072 362.449 116.097C366.384 115.084 370.377 114.197 374.207 112.923C378.794 111.401 383.252 109.558 387.736 107.795C390.488 106.716 393.288 105.71 395.847 104.341C398.942 102.687 402.252 101.845 405.729 101.255C407.381 100.968 409 100.547 410.567 99.9977C412.016 99.4946 413.42 99.5241 414.867 99.7961C418.441 100.468 422.009 101.161 425.58 101.842C429.339 102.556 432.9 103.686 436.017 105.766C438.553 107.46 441.273 108.845 444.291 109.752C446.647 110.458 449.028 111.129 451.296 112.022C452.768 112.607 454.387 112.833 455.989 112.678C460.178 112.33 464.1 111.157 467.951 109.727C470.652 108.726 473.314 107.624 476.066 106.744C478.622 105.925 481.019 104.93 483.201 103.466C484.852 102.363 486.81 102.002 488.791 102.81C493.779 104.864 498.709 107.011 502.701 110.514C503.498 111.191 504.357 111.808 505.27 112.356C509.356 114.902 513.427 117.467 517.573 119.931C521.653 122.356 525.792 124.708 529.957 127.018C532.632 128.493 535.393 129.862 538.138 131.243C538.767 131.56 539.239 131.843 538.809 132.815C537.758 132.384 536.766 132.04 535.839 131.586C533.784 130.583 531.766 129.521 529.726 128.493C528.899 128.077 528.02 127.736 527.222 127.282C523.024 124.899 518.782 122.581 514.68 120.07C510.644 117.587 506.653 115.013 502.85 112.255C500.234 110.357 497.731 108.377 494.695 107C492.367 105.944 490.083 104.83 487.013 104.497C487.516 105.644 487.839 106.566 488.298 107.421C490.989 112.435 493.602 117.488 496.467 122.424C498.01 125.08 499.893 127.598 501.821 130.053C504.448 133.394 506.993 136.774 508.127 140.768C508.891 143.506 510.203 146.098 511.999 148.419C514.808 152.025 516.461 156.067 518.116 160.119C518.687 161.514 519.149 163.036 519.158 164.503C519.177 167.714 519.76 170.745 521.531 173.563C521.742 173.9 522.096 174.284 522.052 174.608C521.931 175.5 522.585 175.766 523.261 176.02C525.952 177.031 528.631 178.075 531.362 178.993C533.553 179.73 535.812 180.304 538.041 180.96C538.611 181.124 539.108 181.333 538.936 182.123C538.643 182.096 538.353 182.047 538.068 181.978C532.727 180.222 526.991 179.412 522.075 176.636C521.835 176.498 521.51 176.485 521.257 176.362C517.221 174.425 512.818 173.279 509.167 170.511C505.283 167.56 500.799 165.22 496.449 162.797C492.847 160.791 489.066 159.04 485.351 157.203C480.607 154.858 475.919 152.407 471.066 150.253C468.131 148.942 465.467 147.426 463.251 145.274C462.11 144.167 460.902 143.112 459.802 141.973C456.352 138.409 452.881 134.861 449.528 131.225C445.943 127.337 442.488 123.358 438.964 119.424C437.956 118.301 437.076 117.02 435.845 116.146C431.208 112.846 427.361 108.916 424.117 104.535C422.69 102.607 420.742 102.269 418.492 102.076C418.535 102.297 418.509 102.458 418.586 102.535C421.043 104.94 422.38 107.78 422.734 111.004C423.248 115.653 425.053 119.855 427.849 123.789C428.972 125.369 430.482 126.797 430.801 128.781C431.185 131.153 432.616 133.069 434.417 134.731C437.07 137.177 439.842 139.517 442.57 141.897C442.935 142.22 443.326 142.517 443.741 142.786C446.423 144.49 449.172 146.118 451.793 147.893C455.132 150.153 458.246 152.609 460.233 156.034C461.655 158.546 463.22 160.991 464.92 163.361C467.039 166.264 469.336 169.068 471.679 171.833C472.723 173.066 473.881 174.374 475.31 175.161C477.73 176.488 480.392 177.473 482.997 178.514C485.133 179.37 487.389 179.989 489.49 180.907C492.059 182.022 494.53 183.294 496.999 184.566C500.423 186.328 503.944 187.931 507.011 190.232C512.344 194.233 518.219 197.329 525.279 198.249C527.796 198.576 530.049 199.611 532.067 200.907C533.931 202.112 535.542 203.523 538.059 203.487C538.927 203.476 539.321 204.054 538.886 205C536.463 204.862 533.992 204.784 531.537 204.571C521.886 203.728 512.385 201.981 503.035 199.829C492.945 197.508 482.729 195.862 472.58 193.853C469.94 193.33 467.272 192.799 464.588 192.584C458.244 192.076 451.88 191.764 445.526 191.355C439.472 190.96 433.394 190.616 427.343 190.093C422.449 189.684 417.514 189.917 412.695 190.784C404.514 192.225 396.262 192.509 387.98 192.481C379.04 192.448 370.101 192.223 361.161 192.135C355.885 192.082 350.608 192.187 345.334 192.119C339.947 192.048 334.711 191.151 329.587 189.647C327.5 189.034 325.367 188.558 323.204 188.222C318.788 187.541 314.32 187.603 309.848 187.549C301.426 187.449 293.007 187.09 284.588 186.828C279.649 186.674 274.89 185.926 270.303 184.108C265.648 182.233 260.569 181.349 255.466 181.525C254.265 181.325 253.049 181.199 251.828 181.15C251.314 181.096 250.797 181.066 250.28 181.061C250.179 181.061 250.08 181.079 249.988 181.115C247.21 180.861 244.403 180.775 241.607 180.755C233.324 180.696 225.303 179.403 217.471 177.021C214.566 176.138 211.62 175.325 208.637 174.698C202.283 173.369 195.818 174.41 189.409 174.153C189.211 174.144 189.011 174.343 188.802 174.364C185.999 174.662 183.234 175.239 180.374 175.11C177.677 174.989 174.971 174.915 172.272 174.974C165.592 175.116 158.95 175.066 152.366 173.789C147.865 172.915 143.325 172.092 138.755 171.648C132.177 171.012 125.6 171.465 119.043 172.292C114.917 172.814 110.748 173.309 106.593 173.351C100.739 173.413 94.8804 172.991 89.0205 172.877C84.5568 172.791 80.0894 172.812 75.6275 172.877C71.6793 172.938 67.7385 173.341 63.7866 172.95C62.4785 172.818 61.1631 172.733 59.8476 172.686C57.5855 172.604 55.3197 172.582 53.0594 172.504C51.8907 172.463 50.7239 172.351 49.557 172.271C48.7553 170.573 47.8673 172.161 47.0068 172.168C45.3336 172.181 43.6586 171.93 41.9817 171.799C37.8354 171.471 33.711 170.75 29.5207 171.284C27.3466 171.563 25.1707 171.82 22.9967 172.104C15.8231 173.018 8.58725 173.579 1.53115 175.149C1.19907 175.223 0.797248 175.077 0.441324 175.033C0.41197 174.89 0.384457 174.748 0.356937 174.605C1.07062 174.367 1.76411 174.061 2.49981 173.907C6.97638 172.969 11.4328 171.928 15.9515 171.191C19.8722 170.548 23.8608 170.207 27.831 169.84C29.7904 169.658 31.7773 169.714 33.7514 169.652C39.4701 169.468 45.1814 169.508 50.8633 170.173C56.2333 170.801 61.5722 171.717 67.0248 171.532C68.9879 171.465 70.9491 171.283 72.9122 171.253C77.2365 171.189 81.5645 171.196 85.8906 171.156C86.6446 171.156 87.3969 171.06 88.5931 170.978C87.5711 170.134 86.8978 169.639 86.3034 169.078C82.8267 165.805 79.3849 162.507 75.9082 159.237ZM431.161 110.788C432.843 112.496 434.913 113.902 436.723 115.51C437.699 116.38 438.501 117.41 439.363 118.38C443.372 122.889 447.348 127.421 451.392 131.904C453.367 134.089 455.412 136.228 457.527 138.319C459.932 140.699 462.348 143.082 464.94 145.295C466.479 146.597 468.197 147.719 470.054 148.632C477.488 152.299 485.054 155.756 492.451 159.48C496.271 161.402 499.882 163.671 503.512 165.872C505.925 167.347 508.178 169.022 510.556 170.545C513.372 172.348 516.645 173.331 519.756 174.605L520.171 174.313C519.78 173.279 519.417 172.237 518.991 171.212C518.426 169.85 518.296 168.467 518.179 167.011C517.966 164.376 517.9 161.684 516.373 159.213C515.359 157.573 514.948 155.641 514.058 153.927C513.168 152.212 512.069 150.573 510.965 148.955C509.198 146.369 507.763 143.671 506.897 140.727C505.677 136.59 503 133.169 500.157 129.808C498.485 127.831 496.873 125.761 495.638 123.553C492.528 117.995 489.653 112.332 486.672 106.718C486.364 106.139 485.979 105.595 485.502 104.831C484.667 105.199 483.99 105.525 483.285 105.803C480.75 106.803 478.209 107.794 475.662 108.775C474.855 109.085 474.022 109.342 473.2 109.619C469.369 110.912 465.579 112.317 461.693 113.463C457.29 114.764 452.967 114.656 448.79 112.438C447.056 111.519 445 111.043 443.042 110.511C439.829 109.637 437.204 107.855 434.403 106.329C432.473 105.279 430.493 104.261 428.411 103.499C427.447 103.145 426.187 103.438 424.683 103.438C426.932 106.01 428.913 108.505 431.161 110.788ZM39.7306 170.97V171.12H40.958C40.958 171.071 40.958 171.02 40.958 170.97H39.7306ZM28.1465 100.308L30.5096 100.144C31.8507 100.386 33.1882 100.681 34.5458 100.799C35.8631 101.652 37.6116 100.86 39.1875 100.871C39.1875 100.847 39.1875 100.824 39.1875 100.801C39.5655 100.839 39.9481 100.814 40.3158 100.727C40.3687 100.714 40.4208 100.698 40.4718 100.68C40.9355 100.605 41.3828 100.463 41.7964 100.262C42.0464 100.139 42.2839 99.9967 42.5064 99.8371C43.6421 99.824 44.1044 99.406 43.8035 98.28C43.5431 97.3394 43.0341 96.4682 42.3193 95.7394C41.1826 94.6387 39.9346 93.6341 38.5913 92.7383C36.408 91.2402 34.1349 89.8453 31.5994 88.2128C30.3445 92.2777 27.8475 95.8034 28.1465 100.306V100.308ZM32.3351 86.8557C33.8321 87.9752 35.1311 89.1389 36.6337 90.0273C39.2022 91.5516 41.6478 93.1825 43.7302 95.2346C45.2676 96.7491 45.9959 98.398 45.1795 100.416L44.664 100.924L41.6056 101.907C42.156 102.125 42.5816 102.329 43.0293 102.466C46.2143 103.44 49.4231 104.349 52.5842 105.382C55.0188 106.177 57.4497 105.721 59.9999 105.821C59.8623 105.543 59.7577 105.33 59.6513 105.166C59.6513 105.166 59.6605 105.154 59.666 105.146C59.7126 105.057 59.739 104.96 59.7437 104.862C59.7485 104.763 59.7314 104.665 59.6935 104.572C59.6605 104.512 59.6238 104.451 59.5889 104.39C59.5247 104.276 59.4605 104.159 59.389 104.046C59.307 103.928 59.2103 103.818 59.1009 103.718C59.044 103.645 58.989 103.566 58.9284 103.494L59.033 103.453C57.8845 100.527 55.3178 98.6537 52.6943 96.8966C48.4195 94.0332 44.2072 91.114 40.2003 87.9473C38.2152 86.3787 36.43 84.7167 34.8302 82.4351C33.9753 83.9479 33.2175 85.2969 32.3351 86.8557ZM36.109 80.0994C35.5586 81.3303 36.3566 82.581 37.2373 83.5415C38.4408 84.8527 39.7324 86.1377 41.1946 87.2097C45.8327 90.6124 50.5276 93.955 55.2793 97.2375C57.4809 98.757 59.3156 100.503 60.376 102.791C61.0603 104.266 62.4455 104.646 63.8619 104.682C66.1607 104.74 68.4687 104.508 71.1638 104.381C70.7033 103.668 70.5198 103.182 70.1547 102.861C69.2831 102.073 68.3553 101.335 67.3771 100.653C65.1076 99.1077 62.8143 97.5883 60.4824 96.1181C58.6331 94.9494 56.6626 93.9332 54.8335 92.7383C49.0029 88.9291 44.5117 84.0594 40.9616 78.4784C40.3232 77.4736 39.8792 76.3689 39.1692 74.9626C38.0464 76.8065 36.8905 78.3833 36.1163 80.0994H36.109ZM40.802 73.0055C40.4718 74.1414 40.8424 75.592 41.3634 76.7377C42.0973 78.3571 43.1541 79.8896 44.2659 81.3418C48.1186 86.3689 52.9677 90.4682 58.6753 93.8086C62.4052 95.9919 66.0396 98.3128 69.6227 100.683C70.9069 101.529 71.9032 102.704 73.0498 103.746C73.2001 103.729 73.3473 103.694 73.4883 103.645H73.5048C73.7818 103.645 74.0552 103.645 74.3359 103.628C74.5255 103.617 74.7142 103.597 74.901 103.566C75.6129 103.567 76.3182 103.444 76.9779 103.205L79.9885 102.279C79.972 102.227 79.9573 102.173 79.9426 102.115C80.1525 101.999 80.335 101.847 80.4802 101.668C80.6196 101.51 80.6856 101.311 80.6644 101.111C80.6432 100.911 80.5365 100.726 80.3665 100.594C80.2587 100.515 80.1286 100.463 79.9904 100.445C79.838 100.184 79.6534 99.9387 79.44 99.7142C75.7541 96.159 71.8408 92.8186 67.5147 89.8798C66.0534 88.8982 64.5306 87.9919 62.9537 87.1655C56.8461 83.925 51.5311 79.8847 47.3059 74.7675C45.9336 73.1071 44.7704 71.3091 43.3962 69.4143C42.4147 70.7255 41.1708 71.7631 40.8093 73.0055H40.802ZM122.371 138.364C122.05 139.373 122.384 140.248 122.268 141.168C122.021 143.135 123.107 144.556 124.673 145.757C126.338 147.037 128.084 148.239 129.671 149.593C131.591 151.196 133.408 152.895 135.113 154.682C135.966 155.598 136.823 156.039 138.068 155.869C140.938 155.474 143.792 155.213 146.374 153.699C148.555 152.415 151.072 151.588 153.428 150.535C154.865 149.894 156.255 149.167 157.71 148.559C159.029 148.006 160.416 147.585 161.756 147.072C164.508 146.016 167.304 145.041 169.977 143.845C173.376 142.324 176.67 140.616 180.117 138.937C180.093 137.685 179.016 136.929 178.069 136.167C174.1 132.974 170.106 129.805 166.087 126.661C163.664 124.764 161.119 122.989 158.749 121.034C157.65 120.084 156.706 119.002 155.943 117.818C152.874 113.228 149.898 108.6 146.878 103.989C146.628 103.602 146.331 103.239 145.994 102.909C143.29 100.286 141.268 97.2654 139.474 94.0971C138.85 92.9956 138.006 91.9958 137.245 90.9533C136.014 89.2569 134.727 87.5883 133.575 85.8542C133.098 85.1428 132.862 84.2971 132.55 83.5021C131.983 82.0597 131.319 80.6796 130.128 79.5011C129.955 79.0996 129.687 78.7362 129.343 78.4357C128.937 78.0947 128.406 77.8972 127.849 77.8801C127.833 77.8801 127.82 77.8637 127.803 77.8555L127.783 77.8801C127.312 77.8676 126.844 77.9535 126.416 78.1309C125.991 78.3057 125.623 78.5765 125.35 78.9168C125.077 79.2571 124.907 79.6551 124.859 80.0715C124.799 80.5778 124.828 81.0894 124.945 81.5877C124.944 82.1984 125.059 82.8048 125.286 83.3808C126.149 85.5264 126.798 87.744 127.732 89.8634C128.556 91.7319 128.532 93.5382 127.996 95.4362C127.211 98.2226 126.405 100.998 125.794 103.81C125.295 106.105 124.23 108.111 122.876 110.099C121.874 111.575 121.206 113.3 120.802 114.995C120.279 117.23 119.586 119.431 118.727 121.581C117.432 124.795 117.205 128.075 118.992 131.299C119.769 132.701 120.276 134.217 120.977 135.656C121.437 136.597 122.6 137.641 122.378 138.364H122.371ZM188.419 118.955C188.551 117.449 188.685 115.992 188.197 114.492C187.136 111.24 187.808 108.006 188.564 104.925L185.995 103.132C184.799 103.246 183.887 103.296 182.994 103.433C182.507 103.511 182.043 103.674 181.627 103.912C180.828 104.376 180.061 104.881 179.328 105.425C178.244 106.229 177.077 106.331 175.659 106.32C173.041 106.298 170.415 106.647 167.799 106.874C166.342 107.003 164.886 107.164 163.445 107.39C162.445 107.554 161.4 107.708 160.51 108.1C158.978 108.768 157.457 108.857 155.826 108.58C154.485 108.354 153.129 107.875 151.472 108.608C152.788 110.632 154.1 112.642 155.4 114.656C155.837 115.333 156.327 115.997 156.65 116.716C157.47 118.545 158.939 119.891 160.563 121.142C163.441 123.361 166.318 125.584 169.195 127.81C170.079 128.496 170.879 129.285 171.843 129.871C175.767 132.224 178.838 135.397 182.284 138.283L190.762 136.741C190.433 134.133 190.211 131.619 189.771 129.136C189.426 127.223 188.347 125.441 188.371 123.441C188.4 121.947 188.301 120.444 188.432 118.955H188.419ZM182.915 101.597C182.548 101.358 182.113 101.052 181.654 100.766C175.6 96.9819 169.569 93.171 163.491 89.429C155.936 84.7806 148.106 80.578 139.287 78.0752C136.692 77.3471 133.956 77.1082 131.253 77.3736L132.955 80.5829C133.806 83.6316 135.452 86.4459 137.202 89.1586C137.22 89.2396 137.253 89.3176 137.298 89.3897C139.116 91.9876 140.914 94.597 142.772 97.172C143.759 98.5406 144.756 99.9223 145.93 101.161C147.253 102.556 148.768 103.797 149.559 105.549C149.882 106.262 150.573 106.59 151.463 106.697C153.047 106.877 154.61 107.279 156.193 107.352C157.314 107.4 158.461 107.07 159.585 106.861C160.136 106.756 160.662 106.459 161.22 106.39C164.339 106.002 167.438 105.594 170.562 105.32C172.514 105.156 174.495 105.246 176.457 105.136C177.17 105.114 177.864 104.929 178.475 104.599C179.987 103.677 181.394 102.646 182.937 101.597H182.915ZM119.658 114.597C119.975 112.809 120.531 111.084 121.712 109.68C123.98 106.985 124.448 103.815 125.198 100.689C125.626 98.9094 126.158 97.1474 126.657 95.3805C127.092 93.8381 127.297 92.3089 126.657 90.7567C126.053 89.2815 125.428 87.8063 124.965 86.3033C124.259 83.9906 123.681 81.6467 123.008 79.1438C122.598 79.2438 122.2 79.3602 121.802 79.4716C121.591 79.4247 121.368 79.451 121.178 79.5454C120.775 79.7421 120.358 79.9158 119.94 80.083L119.553 80.2338C118.195 80.7452 116.779 81.1468 115.375 81.5697C113.638 81.7827 111.935 82.1712 110.381 82.9202C108.542 83.4723 106.83 84.3157 105.325 85.41C100.739 88.7521 96.1812 92.1302 91.6129 95.4821C91.4442 95.6067 91.1946 95.723 91.1451 95.8837C90.7213 97.231 89.3104 97.6293 88.239 98.3554C86.4373 99.5765 84.6669 100.839 82.8377 102.027C81.2599 103.05 79.6179 103.994 77.8842 105.044C77.8732 104.913 77.831 105.084 77.9007 105.14C79.8656 106.706 81.7535 108.319 83.2634 110.283C84.311 111.638 85.8814 112.525 87.7253 112.992C90.5635 113.709 93.1118 114.941 95.585 116.398C98.869 118.334 102.595 119.25 106.512 119.667C108.826 119.914 111.099 120.476 113.385 120.904C114.596 121.13 115.803 121.37 117.148 121.629C118.804 119.376 119.256 116.974 119.68 114.597H119.658ZM92.2312 90.101C90.5947 87.9571 88.1546 86.5754 86.0814 84.8462C81.2086 80.7862 76.2953 76.7606 71.4445 72.681C69.8538 71.3435 68.3623 69.9093 66.9074 68.4522C66.4346 67.9491 66.102 67.3532 65.9368 66.7131C65.5699 65.3494 66.7386 64.3938 68.2522 64.8052C68.9442 65.0089 69.598 65.3045 70.1914 65.6821C72.5765 67.1409 74.4882 68.9914 76.1559 71.1009C78.9556 74.6462 82.4983 77.5998 86.0099 80.5616C88.4592 82.6269 90.9818 84.6216 93.4733 86.6475C93.6365 86.7786 93.8127 86.8983 93.9851 87.0179C97.0765 89.1668 98.3241 89.0389 100.979 86.182C98.902 84.8707 96.9609 83.5939 94.9703 82.3843C89.5361 79.0815 84.7604 75.1838 80.9333 70.3715C78.7318 67.6097 76.6733 64.761 73.8626 62.4007C71.239 60.1961 68.2889 58.5587 64.8728 57.6982C61.1374 56.759 59.0734 57.7588 59.6917 61.7959C60.2604 65.5231 61.8676 68.857 64.9553 71.691C68.4412 74.8904 71.9912 77.9866 76.0018 80.6452C77.2952 81.5041 78.6529 82.2843 79.9867 83.0923C84.5165 85.8329 88.3968 89.1438 91.1396 93.4087C93.5063 92.2187 93.5962 91.8614 92.2532 90.101H92.2312ZM94.5741 90.8796L96.0198 90.0191C95.8638 89.7667 95.8088 89.5454 95.6529 89.4487C91.2203 86.6295 87.5253 83.0907 83.5441 79.8126C80.6065 77.3791 77.8991 74.7328 75.4496 71.9008C73.9103 70.1338 72.3765 68.421 70.3896 67.0524C69.5786 66.4935 68.7476 65.9706 67.1037 66.1001C67.4394 66.836 67.588 67.3884 67.9201 67.8326C68.4852 68.5898 69.0686 69.375 69.8117 69.9847C75.5725 74.7216 81.3058 79.4913 87.1896 84.0987C89.8333 86.1705 92.556 88.1292 94.5961 90.8796H94.5741ZM50.5771 62.9547C48.57 64.2824 46.7793 65.4428 45.5923 67.2015C44.6328 68.6243 45.4492 69.9158 46.1941 71.0484C50.0836 76.977 55.5508 81.5533 61.9098 85.328C63.1206 86.046 64.4049 86.6639 65.6562 87.3277C69.3383 89.2848 72.3747 91.9384 75.4716 94.5396C77.7136 96.4197 80.0582 98.1915 82.3699 100.011L82.1204 100.439C82.4103 100.245 82.7148 100.065 82.9919 99.8551C84.4596 98.757 84.3605 98.2161 83.3478 96.7212C80.9279 93.1645 77.0072 90.996 73.791 88.1784C68.3164 83.3825 62.3904 78.9914 57.4992 73.6693C56.9488 73.0645 56.2902 72.522 55.6646 71.9729C53.5052 70.0854 51.9968 67.6844 51.3183 65.0544C51.1605 64.4299 50.8926 63.8267 50.5771 62.9547ZM74.5231 45.8494C67.6541 48.0769 54.2336 55.8739 51.8412 60.9173L51.8944 60.9321C51.8742 60.9911 51.8669 61.0517 51.8485 61.1124C51.7595 61.4118 51.7078 61.7191 51.6944 62.0286C51.6692 62.4996 51.7653 62.9695 51.9751 63.4022C52.0083 63.4597 52.0469 63.5145 52.0907 63.5661C52.8832 66.2328 54.0318 68.7144 56.1856 70.8223C61.4731 75.9984 66.9404 80.996 72.859 85.6083C76.7687 88.6537 80.5096 91.8729 84.4064 95.0789C84.4908 95.2133 84.566 95.351 84.6559 95.4837C84.9219 95.9152 85.2134 96.3338 85.5292 96.7376L85.3751 96.9179C86.4759 97.6719 87.0978 97.3703 89.9012 94.6708C89.2517 92.9497 88.0665 91.4598 86.7309 90.0814C84.3654 87.6694 81.6904 85.5145 78.7611 83.6611C75.3633 81.4975 72.0022 79.2586 68.8741 76.7983C66.4078 74.8383 64.1518 72.6768 62.1354 70.342C60.9135 68.939 60.2549 67.1212 59.4807 65.4395C58.9817 64.3577 58.7285 63.1842 58.3799 62.0516C57.846 60.3469 58.3799 58.8029 59.367 57.3671C60.1228 56.2607 62.1593 55.7592 63.9261 56.1968C70.0997 57.7261 74.9726 60.8928 78.6364 65.5707C82.1681 70.0814 85.6209 74.6757 90.5617 78.0883C93.7356 80.2797 97.0949 82.2581 100.395 84.3003C101.436 84.9429 102.597 85.0297 103.716 84.4429C105.406 83.5496 107.055 82.5941 109.037 81.4926C107.326 79.5867 105.305 77.92 103.043 76.5475C99.7753 74.5643 96.3353 72.817 93.3779 70.4272C88.8591 66.7787 84.2761 63.1416 80.9774 58.5423C78.5465 55.1527 76.1779 51.6402 75.2899 47.5605C75.156 46.9672 74.7817 46.4148 74.5231 45.8494ZM76.6843 45.238C76.1632 47.1721 76.7265 48.7341 77.4182 50.2371C79.8289 55.4969 83.1221 60.2535 87.7858 64.1693C90.7653 66.6754 93.7852 69.1471 96.8674 71.5451C98.0709 72.4843 99.4598 73.2514 100.834 73.9922C104.481 75.9591 107.901 78.162 110.71 81.2746L118.612 78.8537C115.999 75.9903 113.453 73.7087 110.279 71.9876C105.254 69.2619 100.627 66.0657 96.7775 62.0647C93.4916 58.6472 90.292 55.1691 87.7987 51.214C86.2979 48.8341 84.5274 46.5853 83.9587 43.6382L76.6843 45.238ZM96.9444 41.4075C93.7136 41.9598 90.5029 42.6056 87.2795 43.1924C86.1695 43.394 85.8007 44.0628 86.03 44.9233C86.3162 45.9936 86.63 47.1016 87.2116 48.0588C90.6345 53.7029 94.9279 58.8893 99.9661 63.4661C102.389 65.6475 105.046 67.6118 107.897 69.3307C111.787 71.6893 115.63 74.0512 118.821 77.172C119.496 77.8277 120.289 78.1964 121.369 77.8588C123.98 77.0393 126.611 76.2837 129.383 75.4576C129.077 75.0658 128.868 74.638 128.51 74.3659C125.776 72.2985 123.024 70.2491 120.254 68.2178C112.297 62.3581 105.481 55.7182 101.792 46.9C101.15 45.4438 100.424 44.0186 99.6157 42.6302C98.9772 41.4829 98.3443 41.1665 96.9444 41.4075ZM111.104 40.1568C110.728 39.8372 110.075 39.5488 109.593 39.5979C106.551 39.9143 103.522 40.3289 100.326 40.7305C103.738 49.2012 108.018 56.8131 115.243 62.7957C117.654 64.7905 120.16 66.7082 122.765 68.4866C125.622 70.4305 128.425 72.4204 130.926 74.7151C131.522 75.2641 132.091 75.5936 132.99 75.6051C136.546 75.6493 139.811 76.6574 143.15 77.7359C148.486 79.4438 153.067 82.3138 158.011 84.6101C163.486 87.1507 168.54 90.283 173.683 93.2825C176.183 94.7396 178.479 96.4934 180.774 98.2112C183.214 100.039 185.707 101.834 189.015 101.932C191.288 101.997 193.602 101.684 195.855 101.375C197.574 101.14 197.794 100.68 197.236 99.1913C196.287 96.6462 194.98 94.219 193.347 91.9679C191.378 89.2487 188.808 87.0327 186.279 84.756C183.735 82.4947 180.935 80.4754 177.924 78.7308C173.176 75.9444 168.003 73.9775 162.697 72.2548C156.549 70.2617 150.095 69.3766 143.725 68.1719C141.375 67.6908 139.129 66.8697 137.076 65.7411C134.397 64.2751 131.862 62.6087 129.499 60.76C125.122 57.3734 121.2 53.5446 117.812 49.3504C115.884 46.9754 114.304 44.3742 112.546 41.8861C112.117 41.2714 111.679 40.6436 111.104 40.1568V40.1568ZM121.061 38.6178C119.709 38.5456 118.351 38.5883 116.717 38.5883C118.81 41.237 120.465 43.5514 122.373 45.6854C124.747 48.3375 127.251 50.9059 129.856 53.3792C131.261 54.738 133.082 55.6969 135.093 56.1362C136.158 56.364 137.111 56.3181 137.887 55.4969C138.621 54.7053 138.725 53.8349 138.285 52.9301C137.997 52.3368 137.685 51.7041 137.199 51.2435C135.197 49.3455 133.073 47.6113 130.579 46.1624C127.358 44.2906 123.974 42.463 122.088 39.2209C121.976 39.06 121.826 38.9227 121.649 38.8186C121.471 38.7145 121.271 38.646 121.061 38.6178V38.6178ZM190.044 71.7451C187.342 68.4046 184.617 65.0708 181.223 62.2384C176.086 57.967 171.178 53.4481 165.078 50.2158C164.023 49.6569 162.823 49.3144 161.776 48.7407C157.252 46.2624 152.166 44.9282 147.337 43.0777C144.33 41.9303 141.171 41.0895 138.079 40.1126C137.923 40.2667 137.769 40.4207 137.613 40.5732C137.738 41.0526 137.892 41.5254 138.076 41.9893C139.52 45.0855 141.928 47.5081 144.756 49.652C149.221 53.0301 154.54 54.8216 159.983 56.464C162.535 57.2343 164.974 58.303 167.463 59.2373C168.004 59.4405 168.525 59.6864 169.08 59.8536C173.811 61.2878 177.827 63.7136 181.489 66.7229C184.975 69.5946 188.644 72.2958 192.424 75.0019C191.642 73.9201 190.905 72.7891 190.053 71.7451H190.044ZM202.426 98.8504C202.155 96.5868 201.781 94.302 201.087 92.1187C200.329 89.7372 199.252 87.4261 198.152 85.1461C195.385 79.4208 190.813 75.0068 185.384 71.196C182.739 69.3389 180.247 67.2983 177.724 65.3133C175.086 63.2448 171.942 62.009 168.735 60.8501C168.331 60.7026 167.869 60.66 167.494 60.4699C163.188 58.2948 158.409 57.2032 153.824 55.6625C147.869 53.6595 142.816 50.4617 139.061 45.8444C137.87 44.384 137.068 42.6482 136.25 40.9748C135.7 39.8422 134.938 39.1242 133.546 38.9915C132.746 38.9144 131.952 38.7833 131.152 38.7456C129.324 38.6604 127.496 38.6008 125.666 38.567C125.044 38.5571 124.42 38.6669 123.622 38.7309C124.374 40.724 125.901 41.7976 127.484 42.8482C130.361 44.7594 133.271 46.6361 136.052 48.6554C137.703 49.8536 139.101 51.3271 139.721 53.2235C140.079 54.3365 140.05 55.4641 139.037 56.3378C137.991 57.2376 136.815 57.8375 135.274 57.2852C134.461 56.995 133.511 56.9131 132.814 56.4869C131.073 55.4199 129.31 54.3315 127.791 53.0334C124.34 50.0831 121.512 46.6574 118.801 43.1432C117.777 41.814 116.374 40.7141 115.1 39.5455C114.414 38.9161 113.601 38.7964 112.645 39.4127C114.236 41.8467 115.684 44.1922 117.271 46.4607C121.512 52.5155 126.947 57.6064 133.168 62.0631C137.511 65.1773 142.411 66.9344 147.891 67.7555C154.323 68.7138 160.627 70.2588 166.706 72.3663C172.943 74.5364 178.875 77.2835 183.977 81.2009C188.479 84.6626 192.796 88.3407 195.767 93.0186C196.95 94.8806 197.753 96.936 198.713 98.9094C198.974 99.4421 199.17 100.001 199.438 100.65C199.9 100.65 200.333 100.703 200.744 100.64C202.243 100.419 202.591 100.234 202.426 98.8504ZM224.075 111.635C220.944 109.962 217.759 108.368 214.656 106.654C213.618 106.08 212.702 105.29 211.845 104.499C210.884 103.612 209.796 102.976 208.428 102.919C208.406 102.919 208.383 102.928 208.361 102.928C207.16 102.314 205.842 101.924 204.413 102.006C204.397 102.006 204.386 102.006 204.369 102.015C204.186 102.006 204.002 101.999 203.8 101.992C199.447 101.842 195.499 103.386 191.345 104.032C190.215 104.207 189.877 105.046 189.694 105.9C189.05 108.737 188.81 111.576 189.45 114.456C189.718 115.662 190 116.974 189.749 118.144C189.026 121.481 189.701 124.669 190.692 127.814C191.242 129.596 191.635 131.358 191.686 133.207C191.712 134.151 192.042 135.089 192.295 136.321C193.805 135.979 194.91 135.849 195.904 135.48C199.55 134.127 203.213 132.805 206.151 130.293C207.938 128.765 209.908 127.408 211.73 125.911C212.249 125.45 212.655 124.898 212.924 124.29C214.926 120.091 218.226 116.985 222.688 114.808C223.697 114.317 224.622 113.682 225.871 112.946C225.134 112.407 224.651 111.947 224.07 111.635H224.075ZM272.602 107.603C271.463 108.059 270.639 108.629 270.621 109.912C270.586 112.325 270.509 114.702 271.211 117.095C272.356 121.004 273.547 124.923 273.54 129.029C273.54 129.917 273.857 130.832 274.185 131.688C274.736 133.11 275.35 134.515 276.038 135.885C277.473 138.747 277.602 141.835 278.163 144.858C278.88 148.718 279.792 152.551 280.673 156.642C284.404 156.098 287.828 155.8 290.833 154.099C292.495 153.159 294.161 152.224 295.849 151.312C296.422 151.032 297.018 150.791 297.631 150.589C299.86 149.77 302.114 149.006 304.323 148.147C308.416 146.556 312.482 144.912 316.562 143.292C317.094 143.081 317.636 142.889 318.397 142.602C318.033 142.28 317.649 141.977 317.247 141.694C315.436 140.589 313.546 139.581 311.809 138.393C310.37 137.41 309.132 136.198 307.754 135.143C307.149 134.679 306.47 134.215 305.736 133.982C301.758 132.732 299.131 129.958 296.3 127.415C293.06 124.502 290.402 121.078 286.472 118.767C284.939 117.849 283.758 116.533 283.087 114.997C282.03 112.683 279.935 111.106 277.842 109.557C277.167 109.065 276.374 108.662 275.778 108.1C274.813 107.21 273.8 107.121 272.597 107.603H272.602ZM356.87 119.091C355.393 119.47 353.958 119.975 352.503 120.421C348.636 121.604 344.811 122.915 340.888 123.925C338.351 124.581 335.848 123.981 333.504 122.853C330.739 121.524 327.968 120.189 325.105 119.045C322.107 117.849 319.024 116.811 315.931 115.828C313.442 115.042 310.818 114.648 308.178 114.666C307.077 114.666 305.914 114.21 304.876 113.789C301.742 112.533 298.654 111.189 295.543 109.888C294.946 109.639 294.288 109.493 293.73 109.191C290.329 107.357 286.575 106.525 282.685 106.251C280.7 106.111 278.686 106.302 276.275 106.351C276.781 107.018 276.98 107.406 277.302 107.682C278.095 108.359 278.924 109.008 279.777 109.626C281.685 111.006 283.247 112.62 284.214 114.664C285.105 116.552 286.727 117.824 288.617 118.909C289.588 119.479 290.482 120.146 291.281 120.899C294.684 124.051 297.979 127.292 301.447 130.393C302.5 131.332 303.914 132.022 305.287 132.586C307.723 133.587 309.737 135.044 311.708 136.621C313.326 137.921 315.194 138.97 316.982 140.101C317.456 140.401 318.135 140.489 318.516 140.848C319.955 142.194 321.452 141.791 323.103 141.238C327.077 139.908 331.12 138.741 335.078 137.374C342.243 134.888 349.241 132.036 356.039 128.831C361.057 126.472 365.834 123.851 370.287 120.743C371.368 119.961 372.387 119.112 373.338 118.205C374.958 116.711 376.517 115.169 378.027 113.72C371.052 115.485 363.952 117.272 356.864 119.091H356.87ZM426.51 188.552C431.179 188.903 435.846 189.288 440.516 189.644C444.161 189.921 447.805 190.196 451.454 190.427C455.542 190.686 459.664 190.691 463.719 191.174C468.648 191.763 473.523 192.727 478.418 193.543C487.558 195.067 496.649 196.792 505.609 199.037C508.286 199.707 510.987 200.36 513.724 200.763C519.424 201.604 525.156 202.277 530.878 203.005C531.229 203.051 531.597 202.981 532.26 202.95C531.074 201.337 529.543 200.72 527.983 200.163C527.17 199.873 526.321 199.558 525.464 199.485C518.927 198.921 513.887 195.338 508.35 192.764C507.78 192.499 507.33 192.027 506.818 191.658C505.397 190.634 504.099 189.411 502.527 188.631C496.898 185.844 491.545 182.537 485.465 180.56C481.449 179.249 477.686 177.546 473.938 175.77C473.354 175.509 472.842 175.135 472.439 174.676C469.373 170.927 466.304 167.178 463.35 163.366C462.275 161.976 461.434 160.424 460.616 158.891C458.527 154.972 455.606 151.701 451.612 149.191C448.803 147.426 446.034 145.608 443.28 143.772C442.29 143.099 441.349 142.371 440.462 141.591C437.984 139.46 435.39 137.413 433.14 135.102C431.733 133.654 430.442 131.897 429.864 130.085C429.077 127.626 427.479 125.634 426.194 123.451C424.745 120.975 422.811 118.688 422.342 115.82C422.035 113.945 421.881 112.05 421.45 110.193C420.716 107.079 419.463 104.181 416.377 102.233C414.522 101.063 413.282 101.05 411.339 102.06C406.995 104.318 404.033 107.582 402.129 111.712C401.07 114.007 399.744 116.21 398.618 118.48C397.15 121.404 395.598 124.302 394.398 127.313C393.723 129.021 393.886 131.022 395.119 132.53C396.311 133.99 397.104 135.571 397.871 137.19C399.25 140.075 400.617 142.964 401.969 145.857C402.558 147.123 403.279 148.37 403.621 149.691C405.553 157.29 409.198 164.3 412.977 171.238C414.352 173.764 415.507 176.362 416.863 178.886C417.195 179.462 417.625 179.988 418.138 180.445C420.366 182.535 422.468 184.707 423.969 187.285C424.527 188.224 425.429 188.472 426.51 188.552ZM313.35 186.07C319.419 186.093 325.327 186.805 331.034 188.611C336.158 190.232 341.47 190.678 346.823 190.799C350.986 190.894 355.158 190.645 359.325 190.679C366.361 190.735 373.393 190.94 380.423 190.992C385.259 191.027 390.101 190.992 394.934 190.829C399.027 190.688 403.122 190.407 407.195 190.009C410.901 189.65 414.574 189.026 418.27 188.577C419.696 188.413 421.149 188.424 422.811 188.347C422.527 187.629 422.444 187.021 422.077 186.582C420.883 185.107 419.767 183.51 418.296 182.273C416.461 180.725 415.438 178.845 414.542 176.833C413.895 175.382 413.275 173.908 412.453 172.535C409.303 167.267 406.824 161.737 404.406 156.188C403.566 154.259 403.305 152.132 402.628 150.139C401.599 147.134 400.034 144.33 398.364 141.568C397.709 140.484 397.28 139.293 396.755 138.147C396.533 137.655 396.37 137.154 396.115 136.685C394.968 134.59 393.798 132.505 392.587 130.327C391.881 131.289 391.147 132.31 390.385 133.317C388.786 135.434 386.758 137.003 383.953 137.823C376.512 139.996 369.092 142.215 361.706 144.543C357.985 145.718 354.367 147.152 350.722 148.519C349.978 148.795 349.303 149.199 348.733 149.708C345.798 152.409 342.389 154.502 338.841 156.498C334.821 158.76 330.739 160.986 327.466 164.148C323.633 167.841 318.942 170.257 313.57 171.742C311.066 172.435 308.646 173.323 306.507 174.813C304.2 176.419 301.641 177.732 299.267 179.263C298.085 180.024 297.065 180.976 295.981 181.858C294.638 182.954 293.312 184.067 291.549 185.529C299.043 185.734 306.197 186.049 313.35 186.07V186.07ZM234.577 179.014L234.834 179.027C234.984 179.109 235.161 179.142 235.335 179.121C235.47 179.106 235.604 179.085 235.74 179.068C238.571 179.204 241.402 179.337 244.235 179.409C245.299 179.435 246.366 179.231 247.434 179.147C247.724 179.128 248.014 179.135 248.302 179.167C251.351 179.455 254.395 179.822 257.451 180.024C262.244 180.337 266.913 181.099 271.263 182.974C275.194 184.664 279.396 185.056 283.645 185.326C284.667 185.392 285.692 185.42 286.714 185.49C288.143 185.588 289.519 185.633 290.341 184.256C290.494 184.003 290.914 183.879 291.209 183.695C292.216 183.074 293.383 182.586 294.205 181.809C298.186 178.049 303.301 175.667 307.939 172.715C309.33 171.83 311.121 171.381 312.794 170.929C318.469 169.396 323.371 166.8 327.367 162.859C330.258 160.009 333.971 158.077 337.511 156.018C341.209 153.874 344.825 151.694 347.928 148.868C348.57 148.282 349.471 147.885 350.324 147.526C356.85 144.833 363.634 142.741 370.478 140.806C375.22 139.463 380.018 138.278 384.584 136.467C387.208 135.425 388.786 133.499 390.325 131.486C392.906 128.111 394.581 124.349 396.286 120.593C397.245 118.475 398.247 116.369 399.355 114.31C400.654 111.901 401.924 109.462 403.514 107.203C404.692 105.526 406.347 104.118 408.141 102.219C404.943 102.935 402.147 103.386 399.5 104.215C397.605 104.81 395.924 105.938 394.121 106.782C392.048 107.752 389.921 108.632 387.859 109.622C383.069 111.917 378.502 114.504 374.89 118.229C373.894 119.272 372.789 120.227 371.587 121.079C366.959 124.304 362.014 127.062 356.806 129.522C349.692 132.902 342.356 135.894 334.837 138.482C330.398 139.999 325.837 141.23 321.358 142.663C318.88 143.456 316.436 144.349 314.02 145.285C308.505 147.4 303.012 149.56 297.517 151.717C297.054 151.91 296.615 152.148 296.209 152.425C292.248 155.002 287.973 156.813 282.986 157.178C281.26 157.303 279.519 157.759 277.886 158.303C273.507 159.762 268.969 160.925 265.056 163.32C262.948 164.61 260.759 165.82 259.185 167.709C258.73 168.228 258.17 168.666 257.534 168.999C253.417 171.266 249.265 173.425 244.458 174.441C242.301 174.898 240.286 175.897 238.142 176.672C238.162 176.697 238.173 176.713 238.191 176.737C237.834 176.821 237.481 176.917 237.133 177.026C236.914 177.093 236.659 177.165 236.413 177.254C236.062 177.309 235.714 177.385 235.373 177.48L235.355 177.491C234.428 177.582 233.614 177.941 232.284 178.737C233.181 178.837 233.874 178.981 234.577 179.014V179.014ZM224.16 177.419C226.879 178.137 229.563 178.667 232.15 176.964C232.113 176.926 232.076 176.885 232.041 176.846C232.592 176.647 233.142 176.408 233.693 176.169L233.832 176.118C236.878 176.057 239.496 174.9 242.149 173.835C243.087 173.472 244.073 173.22 245.084 173.086C247.484 172.769 249.781 172 251.823 170.83C252.637 170.387 253.475 169.982 254.336 169.616C256.114 168.806 257.593 167.718 259.002 166.42C261.86 163.771 265.304 161.683 269.114 160.288C271.894 159.273 274.708 158.336 277.521 157.396C279.009 156.905 279.157 156.834 278.935 155.42C278.546 152.961 278.055 150.502 277.624 148.055C277.282 146.121 277.073 144.161 276.607 142.255C276.022 139.899 275.433 137.513 274.451 135.277C273.211 132.45 272.305 129.67 272.153 126.574C272.011 123.733 271.235 120.861 270.296 118.128C269.357 115.394 269.423 112.719 269.423 109.97V108.119C267.755 108.611 266.272 108.827 265.054 109.452C259.154 112.478 252.624 113.253 246.049 113.813C241.323 114.217 236.573 114.436 231.829 114.612C230.627 114.656 229.939 115.04 229.376 115.884C228.365 117.398 227.427 118.965 226.27 120.386C224.422 122.651 222.589 124.958 220.434 126.979C218.536 128.757 216.177 130.139 214.08 131.756C213.311 132.349 212.637 133.034 212.078 133.792C211.117 135.103 210.244 136.469 209.418 137.846C208.944 138.658 208.53 139.496 208.178 140.357C207.999 140.761 207.884 141.187 207.839 141.62C207.444 143.096 207.655 144.735 208.327 146.177L208.103 146.264C208.714 147.521 209.204 148.832 209.959 150.021C211.207 152.004 211.807 154.118 212.178 156.346C212.345 157.362 212.811 158.347 213.231 159.316C213.68 160.353 214.229 161.355 214.742 162.368C215.012 162.902 215.197 163.504 215.597 163.948C218.691 167.39 220.072 171.574 221.965 175.529C222.446 176.557 223.024 177.119 224.16 177.419V177.419ZM114.319 171.519C116.085 171.217 117.865 171.133 119.639 170.619C121.525 170.071 123.699 170.312 125.749 170.206C130.654 169.95 135.564 169.878 140.452 170.386C144.943 170.856 149.425 171.381 153.909 171.905C158.791 173.872 164.476 174.143 169.87 173.402C176.394 173.617 182.884 173.161 189.373 172.648C197.385 172.014 205.334 172.21 213.126 174.203C213.679 174.37 214.261 174.445 214.843 174.426C215.511 174.372 215.715 174.823 216.115 175.02C217.399 175.659 218.902 175.975 220.83 176.577C220.157 174.741 219.817 173.34 219.142 172.083C217.918 169.788 216.487 167.596 215.159 165.352C214.615 164.429 214.093 163.495 213.594 162.55C212.97 161.368 212.378 160.175 211.783 158.983C211.546 158.504 211.174 158.023 211.148 157.529C210.985 154.367 209.523 151.592 208.053 148.809C207.71 148.154 207.466 147.469 207.16 146.801C206.455 145.262 206.03 143.712 206.404 142.017C206.571 141.265 206.433 140.46 206.433 140.107C207.829 138.111 209.138 136.482 210.156 134.72C211.291 132.753 212.677 131.184 214.865 129.991C216.757 128.96 218.388 127.457 219.894 125.969C223.086 122.815 226.132 119.547 227.967 115.536C228.073 115.303 228.128 115.044 228.284 114.579C226.328 115.031 224.369 114.831 223.057 116.382C222.817 116.665 222.343 116.846 221.936 116.952C218.109 117.962 216.432 120.829 214.675 123.628C214.388 124.084 214.15 124.566 213.873 125.026C212.883 126.716 211.442 128.162 209.679 129.237C208.471 129.974 207.307 130.766 206.193 131.612C201.938 134.817 196.915 136.541 191.602 137.69C189.472 138.15 187.239 138.28 185.153 138.852C182.35 139.594 179.612 140.523 176.963 141.629C174.064 142.871 171.353 144.461 168.524 145.852C167.63 146.302 166.685 146.663 165.704 146.929C161.391 148.057 157.448 149.909 153.476 151.737C150.682 153.027 147.942 154.412 145.134 155.67C144.306 156.043 143.339 156.21 142.413 156.352C139.529 156.789 136.637 157.196 133.739 157.573C130.987 157.926 128.812 159.258 126.983 160.983C126.53 161.411 125.93 161.786 125.486 162.266C122.307 164.069 119.823 166.718 116.729 168.634C116.611 168.708 116.517 168.808 116.456 168.924C114.838 169.53 113.262 170.257 111.974 171.547C112.825 171.538 113.596 171.64 114.319 171.517V171.519ZM90.0828 170.427C90.6204 170.938 91.0534 171.27 91.734 171.093C92.9963 171.704 94.519 171.989 95.9262 172.104C98.7736 172.337 101.599 172.027 104.443 172.019C104.514 172.014 104.584 172.001 104.652 171.979C107.312 172.248 109.512 171.633 111.44 169.829C112.357 168.976 113.776 168.518 115.034 168.011C118.843 166.479 122.046 164.208 124.807 161.473C127.281 159.014 130.119 157.2 133.711 156.359C133.836 156.329 133.933 156.195 134.21 155.993C132.865 153.735 131.069 151.974 128.965 150.406C126.831 148.816 124.778 147.128 122.751 145.436C121.833 144.666 121.1 143.699 121.155 142.512C121.316 139.05 119.902 135.966 118.326 132.933C116.836 130.071 116.052 127.144 116.713 123.989C116.762 123.746 116.689 123.484 116.663 123.1C113.699 122.135 110.692 121.275 107.574 120.988C102.27 120.496 97.5187 118.875 93.0807 116.279C91.5139 115.362 89.6774 114.758 87.8831 114.225C84.9017 113.338 82.7093 111.748 80.9114 109.429C79.7812 107.977 78.0731 106.78 76.3724 105.823C75.4551 105.307 73.9745 105.331 72.8003 105.474C69.7585 105.831 66.746 106.407 63.7151 106.847C62.728 106.99 61.697 106.905 60.7191 107.079C60.0549 107.195 59.2789 107.447 58.8588 107.877C58.0919 108.66 57.2259 109.024 56.1159 109.304C52.9585 110.124 50.0616 111.294 47.438 113.269C45.2621 114.908 42.4404 116.01 39.7122 116.856C36.8263 117.751 34.9807 119.286 33.7221 121.922C34.5312 122.215 35.2265 122.53 35.9622 122.722C41.0644 124.051 45.1116 126.82 48.537 130.309C51.4853 133.314 54.6115 136.133 57.868 138.872C61.0603 141.558 63.9004 144.579 66.9184 147.436C67.707 148.202 68.5503 148.921 69.4429 149.59C71.1124 150.804 72.4976 152.145 73.3067 154C73.8257 155.153 74.5811 156.209 75.534 157.114C78.5373 159.981 81.6617 162.75 84.7439 165.551C86.5089 167.173 88.3362 168.765 90.0828 170.425V170.427Z" fill="url(#paint0_linear_108_892)"/>
</g>
<defs>
<linearGradient id="paint0_linear_108_892" x1="269.516" y1="37" x2="269.516" y2="205" gradientUnits="userSpaceOnUse">
<stop stop-color="white"/>
<stop offset="1" stop-color="white" stop-opacity="0"/>
</linearGradient>
<clipPath id="clip0_108_892">
<rect width="431" height="144" fill="white" transform="matrix(-1 0 0 1 431 0)"/>
</clipPath>
</defs>
</svg>
