<svg width="56" height="56" viewBox="0 0 56 56" fill="none" xmlns="http://www.w3.org/2000/svg">
<circle cx="26.5" cy="28.5" r="29" stroke="url(#paint0_linear_634_2596)"/>
<path d="M29.9252 35.4812L20.9346 37.7475L24.8546 32.5894L29.9252 35.4812Z" fill="#9377B6"/>
<path d="M30.9051 37.7298L43.1201 12.2104L12.8801 22.6886L18.8608 28.6692L20.9345 37.7473L24.312 33.3023L24.4739 33.4073L25.957 34.4048L28.2014 35.9142L30.9051 37.7298Z" fill="#73BCFF"/>
<path d="M18.8606 28.6694L20.9343 37.7476L34.6456 19.7007L18.8606 28.6694Z" fill="#C383B8"/>
<path d="M13.1819 36.1899C13.0423 36.1915 12.9058 36.1485 12.7922 36.0672C12.6787 35.9859 12.594 35.8705 12.5506 35.7377C12.5072 35.605 12.5072 35.4619 12.5507 35.3292C12.5943 35.1965 12.679 35.0811 12.7926 34.9999L17.1151 31.828C17.2555 31.7247 17.4311 31.6814 17.6034 31.7077C17.7757 31.734 17.9306 31.8276 18.0338 31.968C18.1371 32.1084 18.1804 32.284 18.1541 32.4563C18.1278 32.6286 18.0342 32.7835 17.8938 32.8867L13.5626 36.063C13.4522 36.1442 13.319 36.1886 13.1819 36.1899Z" fill="#73BCFF"/>
<path d="M11.1519 43.4086C11.016 43.4087 10.8834 43.3666 10.7724 43.2881C10.6614 43.2095 10.5775 43.0985 10.5324 42.9702C10.4872 42.842 10.483 42.7029 10.5203 42.5722C10.5576 42.4414 10.6347 42.3255 10.7407 42.2404L17.3032 36.9904C17.3704 36.9364 17.4476 36.8962 17.5304 36.872C17.6132 36.8479 17.6999 36.8402 17.7856 36.8496C17.8713 36.8589 17.9544 36.8851 18.03 36.9265C18.1056 36.9679 18.1723 37.0238 18.2263 37.0911C18.2803 37.1583 18.3206 37.2355 18.3447 37.3183C18.3689 37.401 18.3765 37.4878 18.3672 37.5735C18.3579 37.6592 18.3317 37.7422 18.2903 37.8178C18.2488 37.8935 18.1929 37.9602 18.1257 38.0142L11.5632 43.2642C11.4466 43.3578 11.3015 43.4087 11.1519 43.4086Z" fill="#73BCFF"/>
<path d="M16.3539 44.4453C16.2179 44.4454 16.0853 44.4033 15.9743 44.3248C15.8633 44.2462 15.7794 44.1352 15.7343 44.0069C15.6891 43.8787 15.6849 43.7396 15.7222 43.6089C15.7596 43.4781 15.8366 43.3622 15.9426 43.2771L20.5276 39.6153C20.5941 39.5558 20.6721 39.5105 20.7567 39.4822C20.8413 39.4539 20.9308 39.4431 21.0198 39.4505C21.1087 39.458 21.1951 39.4835 21.2739 39.5255C21.3526 39.5675 21.422 39.6251 21.4777 39.6948C21.5334 39.7645 21.5743 39.8449 21.5979 39.9309C21.6215 40.017 21.6273 40.1069 21.6149 40.1953C21.6026 40.2837 21.5723 40.3686 21.5261 40.4449C21.4798 40.5212 21.4184 40.5872 21.3457 40.639L16.7607 44.3053C16.6447 44.3963 16.5014 44.4456 16.3539 44.4453Z" fill="#73BCFF"/>
<defs>
<linearGradient id="paint0_linear_634_2596" x1="26.5" y1="-1" x2="26.5" y2="58" gradientUnits="userSpaceOnUse">
<stop/>
<stop offset="1" stop-color="white" stop-opacity="0.3"/>
</linearGradient>
</defs>
</svg>
