<svg width="59" height="59" viewBox="0 0 59 59" fill="none" xmlns="http://www.w3.org/2000/svg">
<g clip-path="url(#clip0_634_2589)">
<path d="M29.5 14L15.877 19.7579V24.8015C15.877 33.5384 21.0901 41.4034 29.1367 44.8545L29.5 45L29.8633 44.8545C37.9099 41.4034 43.123 33.5384 43.123 24.8015V19.7579L29.5 14ZM29.5 36.8262C25.4857 36.8262 22.2344 33.5749 22.2344 29.5605C22.2344 25.5462 25.4857 22.2949 29.5 22.2949C33.5143 22.2949 36.7656 25.5462 36.7656 29.5605C36.7656 33.5749 33.5143 36.8262 29.5 36.8262Z" fill="#6AA9FF"/>
<path d="M43.123 19.7579V24.8015C43.123 33.5384 37.9099 41.4034 29.8633 44.8545L29.5 45V36.8262C33.5143 36.8262 36.7656 33.5749 36.7656 29.5605C36.7656 25.5462 33.5143 22.2949 29.5 22.2949V14L43.123 19.7579Z" fill="#4895FF"/>
<path d="M29.5 21.3867C24.9954 21.3867 21.3262 25.0557 21.3262 29.5605C21.3262 34.0651 24.9954 37.7344 29.5 37.7344C34.0046 37.7344 37.6738 34.0651 37.6738 29.5605C37.6738 25.0557 34.0046 21.3867 29.5 21.3867Z" fill="#E0F4FF"/>
<path d="M37.6738 29.5605C37.6738 34.0651 34.0046 37.7344 29.5 37.7344V21.3867C34.0046 21.3867 37.6738 25.0557 37.6738 29.5605Z" fill="#BBDCFF"/>
<path d="M33.7686 28.3799L29.5 32.6666L28.5918 33.5749L25.2314 30.1963L26.5029 28.9248L28.5918 30.9955L29.5 30.0873L32.4971 27.1084L33.7686 28.3799Z" fill="#61729B"/>
<path d="M33.7686 28.3799L29.5 32.6666V30.0873L32.4971 27.1084L33.7686 28.3799Z" fill="#47568C"/>
</g>
<circle cx="29.5" cy="29.5" r="29" stroke="url(#paint0_linear_634_2589)"/>
<defs>
<linearGradient id="paint0_linear_634_2589" x1="29.5" y1="0" x2="29.5" y2="59" gradientUnits="userSpaceOnUse">
<stop/>
<stop offset="1" stop-color="white" stop-opacity="0.3"/>
</linearGradient>
<clipPath id="clip0_634_2589">
<rect width="31" height="31" fill="white" transform="translate(14 14)"/>
</clipPath>
</defs>
</svg>
