<svg width="59" height="59" viewBox="0 0 59 59" fill="none" xmlns="http://www.w3.org/2000/svg">
<circle cx="29.5" cy="29.5" r="29" stroke="url(#paint0_linear_634_2600)"/>
<g clip-path="url(#clip0_634_2600)">
<path d="M23.1948 27.1407H29.1278V22.6542C27.5137 22.6116 25.7741 22.4538 24.0843 22.2314C23.5822 23.846 23.2753 25.5159 23.1948 27.1407Z" fill="#73BCFF"/>
<path d="M30.859 14.0282C30.846 14.0168 30.8271 14 30.8271 14V20.9542C32.2527 20.9146 33.7828 20.781 35.2853 20.5914C34.2539 18.039 32.7325 15.6664 30.859 14.0282V14.0282Z" fill="#73BCFF"/>
<path d="M24.1207 33.8712C25.8115 33.6435 27.5354 33.4837 29.1278 33.4401V28.8398H23.1948C23.2771 30.5041 23.5971 32.2175 24.1207 33.8712V33.8712Z" fill="#73BCFF"/>
<path d="M36.6402 25.7656C36.4923 24.5846 36.2324 23.3946 35.871 22.2329C34.1837 22.4561 32.4493 22.6124 30.8271 22.6549V27.1408H33.8721C34.7331 26.8978 35.7345 26.481 36.6402 25.7656Z" fill="#73BCFF"/>
<path d="M38.2566 25.0607C38.8908 25.0202 39.5371 25.2211 40.0465 25.6463C40.989 26.4348 42.0521 26.8845 42.9595 27.1405H43.9417C43.8125 24.9768 43.1934 22.9072 42.1371 21.0596C40.8423 21.3864 39.2609 21.7121 37.5696 21.9839C37.872 23.0012 38.1031 24.0343 38.2566 25.0607Z" fill="#73BCFF"/>
<path d="M24.6685 20.5948C26.17 20.7829 27.7 20.9153 29.128 20.9544V14C29.128 14 29.1072 14.0186 29.0962 14.0282C27.2218 15.6672 25.6999 18.041 24.6685 20.5948V20.5948Z" fill="#73BCFF"/>
<path d="M37.0149 20.3479C38.5246 20.1129 39.9484 19.8342 41.1397 19.554C39.3062 17.1384 36.6997 15.3006 33.6133 14.4756C35.0555 16.1785 36.2024 18.2207 37.0149 20.3479V20.3479Z" fill="#73BCFF"/>
<path d="M29.1279 41.9443V35.1406C27.7317 35.1817 26.2155 35.318 24.7146 35.511C25.751 38.0398 27.2669 40.3273 29.1279 41.9443Z" fill="#73BCFF"/>
<path d="M22.9848 35.7583C21.5078 35.9909 20.1015 36.2656 18.9038 36.543C20.7573 38.9328 23.3364 40.6962 26.3177 41.4988C24.9007 39.8154 23.7829 37.8182 22.9848 35.7583V35.7583Z" fill="#73BCFF"/>
<path d="M22.3852 21.9841C20.6724 21.7114 19.0807 21.3871 17.8126 21.0688C16.7591 22.9138 16.142 24.9806 16.0134 27.1405H21.4937C21.5712 25.4482 21.8766 23.6933 22.3852 21.9841Z" fill="#73BCFF"/>
<path d="M30.8271 36.9067V41.9444C31.4423 41.4097 32.02 40.8019 32.5536 40.1364C31.817 39.1758 31.229 38.0761 30.8271 36.9067Z" fill="#73BCFF"/>
<path d="M21.4937 28.8398H16.0134C16.1449 31.0497 16.7884 33.1619 17.887 35.039C19.1946 34.7149 20.7624 34.3935 22.4214 34.1238C21.891 32.3735 21.5729 30.5734 21.4937 28.8398Z" fill="#73BCFF"/>
<path d="M26.3417 14.4756C23.3123 15.2853 20.6819 17.091 18.8088 19.5623C20.0021 19.8417 21.4273 20.1191 22.9382 20.3527C23.7419 18.2469 24.8846 16.196 26.3417 14.4756V14.4756Z" fill="#73BCFF"/>
<path d="M44.2364 29.1208C43.0923 28.9883 40.8459 28.5301 38.9563 26.9504C38.6437 26.6887 38.1871 26.6904 37.8745 26.9515C35.9855 28.5306 33.7397 28.9883 32.5961 29.1208C32.1679 29.1707 31.8462 29.5338 31.8462 29.9648V32.8297C31.8462 35.7943 33.0441 38.5861 35.0804 40.3646L37.8575 42.7906C38.1775 43.0698 38.655 43.0698 38.975 42.7906L41.7521 40.3646C43.7884 38.5861 44.9869 35.7943 44.9869 32.8297V29.9648C44.9869 29.5338 44.6646 29.1707 44.2364 29.1208V29.1208ZM41.9623 33.4006L39.0169 36.346C38.6847 36.6782 38.1479 36.6783 37.8156 36.346L36.2296 34.76C35.8977 34.4287 35.8977 33.8906 36.2296 33.5587C36.5616 33.2267 37.0996 33.2267 37.431 33.5587L38.4165 34.5437L40.7609 32.1993C41.0928 31.8674 41.6309 31.8674 41.9623 32.1993C42.2942 32.5312 42.2942 33.0693 41.9623 33.4006V33.4006Z" fill="#C383B8"/>
</g>
<defs>
<linearGradient id="paint0_linear_634_2600" x1="29.5" y1="0" x2="29.5" y2="59" gradientUnits="userSpaceOnUse">
<stop/>
<stop offset="1" stop-color="white" stop-opacity="0.3"/>
</linearGradient>
<clipPath id="clip0_634_2600">
<rect width="29" height="29" fill="white" transform="translate(16 14)"/>
</clipPath>
</defs>
</svg>
