<svg width="59" height="59" viewBox="0 0 59 59" fill="none" xmlns="http://www.w3.org/2000/svg">
<circle cx="29.5" cy="29.5" r="29" stroke="url(#paint0_linear_634_2593)"/>
<g clip-path="url(#clip0_634_2593)">
<path d="M36.7008 44.8336H22.6322C21.2691 44.8336 20.1641 43.7286 20.1641 42.3654V16.6347C20.1641 15.2715 21.2691 14.1665 22.6322 14.1665H36.7008C38.0639 14.1665 39.169 15.2715 39.169 16.6347V42.3654C39.169 43.7286 38.0639 44.8336 36.7008 44.8336Z" fill="#3D6D93"/>
<path d="M36.7007 14.1665H34.8496C36.2127 14.1665 37.3178 15.2715 37.3178 16.6347V42.3654C37.3178 43.7286 36.2127 44.8336 34.8496 44.8336H36.7007C38.0638 44.8336 39.1689 43.7286 39.1689 42.3654V16.6347C39.1689 15.2715 38.0638 14.1665 36.7007 14.1665Z" fill="#335E80"/>
<path d="M34.1988 16.5112C34.1988 16.972 33.8254 17.3454 33.3647 17.3454H25.9683C25.5076 17.3454 25.1341 16.972 25.1341 16.5112C25.1341 16.2386 24.9131 16.0176 24.6405 16.0176H22.9407C22.4296 16.0176 22.0151 16.432 22.0151 16.9432V42.0569C22.0151 42.5681 22.4295 42.9825 22.9407 42.9825H36.3923C36.9034 42.9825 37.3178 42.5682 37.3178 42.0569V16.9432C37.3178 16.432 36.9035 16.0176 36.3923 16.0176H34.6924C34.4199 16.0176 34.1988 16.2386 34.1988 16.5112Z" fill="#F9F7F8"/>
<path d="M29.6666 16.219C29.9222 16.219 30.1294 16.0118 30.1294 15.7562C30.1294 15.5006 29.9222 15.2935 29.6666 15.2935C29.411 15.2935 29.2039 15.5006 29.2039 15.7562C29.2039 16.0118 29.411 16.219 29.6666 16.219Z" fill="#335E80"/>
<path d="M19.6682 28.2066C22.6149 28.2066 25.0037 25.8178 25.0037 22.8711C25.0037 19.9244 22.6149 17.5356 19.6682 17.5356C16.7215 17.5356 14.3328 19.9244 14.3328 22.8711C14.3328 25.8178 16.7215 28.2066 19.6682 28.2066Z" fill="#FFE179"/>
<path d="M19.6683 17.5356C19.3524 17.5356 19.0435 17.5647 18.7427 17.6173C21.2479 18.0557 23.1526 20.2402 23.1526 22.8711C23.1526 25.5019 21.2479 27.6864 18.7427 28.1248C19.0435 28.1775 19.3524 28.2065 19.6683 28.2065C22.6149 28.2065 25.0037 25.8177 25.0037 22.871C25.0037 19.9243 22.615 17.5356 19.6683 17.5356Z" fill="#FBD268"/>
<path d="M21.5195 25.6477H17.8172C17.306 25.6477 16.8916 25.2333 16.8916 24.7221V21.0198C16.8916 20.5087 17.306 20.0942 17.8172 20.0942H21.5195C22.0306 20.0942 22.445 20.5086 22.445 21.0198V24.7221C22.445 25.2333 22.0306 25.6477 21.5195 25.6477Z" fill="#F58A97"/>
<path d="M21.5194 20.0942H19.6682C20.1794 20.0942 20.5938 20.5086 20.5938 21.0198V24.7221C20.5938 25.2333 20.1794 25.6477 19.6682 25.6477H21.5193C22.0305 25.6477 22.4449 25.2333 22.4449 24.7221V21.0198C22.4449 20.5087 22.0305 20.0942 21.5194 20.0942Z" fill="#F07281"/>
<path d="M19.6683 23.7965C20.1794 23.7965 20.5938 23.3821 20.5938 22.8709C20.5938 22.3597 20.1794 21.9453 19.6683 21.9453C19.1571 21.9453 18.7427 22.3597 18.7427 22.8709C18.7427 23.3821 19.1571 23.7965 19.6683 23.7965Z" fill="white"/>
<path d="M19.3354 40.7983C22.2821 40.7983 24.6708 38.4095 24.6708 35.4629C24.6708 32.5162 22.2821 30.1274 19.3354 30.1274C16.3887 30.1274 14 32.5162 14 35.4629C14 38.4095 16.3887 40.7983 19.3354 40.7983Z" fill="#8FD8FA"/>
<path d="M19.3353 30.1274C18.9978 30.1274 18.6682 30.1602 18.3481 30.2201C20.823 30.6833 22.6965 32.8536 22.6965 35.4629C22.6965 38.0721 20.823 40.2425 18.3481 40.7057C18.6682 40.7656 18.9978 40.7984 19.3353 40.7984C22.282 40.7984 24.6707 38.4097 24.6707 35.463C24.6707 32.5163 22.282 30.1274 19.3353 30.1274Z" fill="#6BCDFE"/>
<path d="M21.0346 33.417C20.6073 32.9257 19.8626 32.8738 19.3713 33.3011C19.1097 33.5287 18.9615 33.8598 18.9661 34.2065V34.4697C18.1214 34.4916 17.3173 34.132 16.7712 33.5001C16.6892 33.4053 16.5353 33.4361 16.4999 33.5563C16.3065 34.2135 16.0419 35.8669 17.9134 36.6988C17.5415 36.9513 17.1206 37.1174 16.6816 37.1883C16.5676 37.2067 16.6239 37.4172 16.6528 37.4926C16.8514 38.0109 19.0916 38.2259 20.4636 37.0975C21.3047 36.4057 21.562 35.4207 21.6497 34.8901C21.7951 34.74 22.0097 34.4806 22.1613 34.1041C22.232 33.9288 22.2758 33.7609 22.302 33.6075C22.3411 33.3795 22.1067 33.2076 21.8986 33.3084C21.8119 33.3504 21.7133 33.387 21.6029 33.4116C21.3631 33.4649 21.1593 33.4418 21.0346 33.417Z" fill="white"/>
<path d="M39.6646 40.7984C42.6113 40.7984 45.0001 38.4096 45.0001 35.4629C45.0001 32.5162 42.6113 30.1274 39.6646 30.1274C36.7179 30.1274 34.3291 32.5162 34.3291 35.4629C34.3291 38.4096 36.7179 40.7984 39.6646 40.7984Z" fill="#F58A97"/>
<path d="M39.6646 30.1274C39.3488 30.1274 39.0398 30.1565 38.739 30.2091C41.2443 30.6475 43.1489 32.8321 43.1489 35.4629C43.1489 38.0937 41.2443 40.2782 38.739 40.7166C39.0398 40.7693 39.3487 40.7983 39.6646 40.7983C42.6113 40.7983 45.0001 38.4095 45.0001 35.4628C45.0001 32.5162 42.6113 30.1274 39.6646 30.1274Z" fill="#F07281"/>
<path d="M38.3545 33.6483C38.3545 33.5103 38.5038 33.424 38.6232 33.493L41.8682 35.3674C41.9876 35.4364 41.9876 35.6089 41.8682 35.6779L38.6232 37.5524C38.5038 37.6214 38.3545 37.5351 38.3545 37.3971V33.6483Z" fill="white"/>
<path d="M39.6646 28.2066C42.6113 28.2066 45.0001 25.8178 45.0001 22.8711C45.0001 19.9244 42.6113 17.5356 39.6646 17.5356C36.7179 17.5356 34.3291 19.9244 34.3291 22.8711C34.3291 25.8178 36.7179 28.2066 39.6646 28.2066Z" fill="#8FD8FA"/>
<path d="M39.6646 17.5356C39.3488 17.5356 39.0398 17.5647 38.739 17.6173C41.2443 18.0557 43.1489 20.2402 43.1489 22.8711C43.1489 25.5019 41.2443 27.6864 38.739 28.1248C39.0398 28.1775 39.3487 28.2065 39.6646 28.2065C42.6113 28.2065 45.0001 25.8177 45.0001 22.871C45.0001 19.9244 42.6113 17.5356 39.6646 17.5356Z" fill="#6BCDFE"/>
<path d="M41.2827 19.5239H40.186C39.4173 19.5239 38.7919 20.1494 38.7919 20.9181V22.2626H38.0465C37.7909 22.2626 37.5837 22.4698 37.5837 22.7254C37.5837 22.981 37.7909 23.1882 38.0465 23.1882H38.7919V26.1298C38.7919 26.3854 38.999 26.5926 39.2546 26.5926C39.5102 26.5926 39.7174 26.3854 39.7174 26.1298V23.1882H40.4627C40.7183 23.1882 40.9254 22.981 40.9254 22.7254C40.9254 22.4698 40.7183 22.2626 40.4627 22.2626H39.7174V20.9181C39.7174 20.6597 39.9276 20.4495 40.1859 20.4495H41.2826C41.5382 20.4495 41.7454 20.2423 41.7454 19.9867C41.7455 19.7311 41.5383 19.5239 41.2827 19.5239Z" fill="white"/>
<path d="M29.5664 25.7718C27.6478 25.8221 26.0627 27.3502 25.9445 29.2658C25.9133 29.7709 25.9839 30.2554 26.1363 30.7021C26.167 30.7924 26.1655 30.8905 26.1338 30.9806L25.6373 32.393C25.5686 32.5884 25.7566 32.7764 25.952 32.7077L26.9456 32.3584C27.0869 32.3086 27.2427 32.3375 27.3604 32.4302C28.0201 32.9503 28.8593 33.2525 29.7701 33.2278C31.7722 33.1736 33.3892 31.5154 33.3959 29.5126C33.4029 27.4138 31.676 25.7165 29.5664 25.7718Z" fill="#AEE69C"/>
<path d="M29.5662 25.7718C29.2831 25.7793 29.0076 25.8196 28.7426 25.8879C30.3574 26.3013 31.5504 27.7676 31.5446 29.5126C31.5389 31.2333 30.344 32.6985 28.738 33.1119C29.0668 33.1962 29.4127 33.2375 29.7699 33.2278C31.772 33.1735 33.3891 31.5154 33.3957 29.5126C33.4027 27.4138 31.6759 25.7165 29.5662 25.7718Z" fill="#89DAA4"/>
<path d="M30.1537 30.8458C29.9118 30.8458 29.6697 30.7814 29.4567 30.652L28.7641 30.2315C28.3265 29.9656 28.0753 29.4647 28.1242 28.9552L28.125 28.9458C28.1538 28.645 28.2515 28.351 28.4074 28.0942C28.5401 27.8757 28.8249 27.8062 29.0433 27.9389C29.2617 28.0716 29.3312 28.3562 29.1986 28.5747C29.1146 28.713 29.062 28.8712 29.0466 29.0323L29.0458 29.0417C29.0304 29.2019 29.1085 29.3577 29.2446 29.4404L29.9372 29.8609C30.0732 29.9435 30.2474 29.941 30.381 29.8545L30.3906 29.8482C30.5264 29.7603 30.6425 29.6407 30.7265 29.5024C30.8591 29.2839 31.1438 29.2145 31.3623 29.3469C31.5807 29.4796 31.6503 29.7642 31.5177 29.9828C31.3617 30.2396 31.146 30.4617 30.8937 30.6251L30.8842 30.6313C30.6638 30.774 30.4088 30.8458 30.1537 30.8458Z" fill="white"/>
</g>
<defs>
<linearGradient id="paint0_linear_634_2593" x1="29.5" y1="0" x2="29.5" y2="59" gradientUnits="userSpaceOnUse">
<stop/>
<stop offset="1" stop-color="white" stop-opacity="0.3"/>
</linearGradient>
<clipPath id="clip0_634_2593">
<rect width="31" height="31" fill="white" transform="translate(14 14)"/>
</clipPath>
</defs>
</svg>
